<?xml version="1.0" encoding="utf-8"?>
<!-- Generator: Adobe Illustrator 19.0.0, SVG Export Plug-In . SVG Version: 6.00 Build 0)  -->
<svg version="1.1" id="Layer_1" xmlns="http://www.w3.org/2000/svg" xmlns:xlink="http://www.w3.org/1999/xlink" x="0px" y="0px"
	 viewBox="-351 170.8 256 290.2" style="enable-background:new -351 170.8 256 290.2;" xml:space="preserve">
<style type="text/css">
	.st0{fill:#264DE4;}
	.st1{fill:#2965F1;}
	.st2{fill:#EBEBEB;}
	.st3{fill:#FFFFFF;}
</style>
<g>
	<path class="st0" d="M-223.2,460.1l-104.2-28.9l-23.2-260.4h255.1l-23.2,260.4L-223.2,460.1L-223.2,460.1z"/>
	<path class="st1" d="M-138.6,414.5l19.9-222.5H-223V438L-138.6,414.5L-138.6,414.5z"/>
	<path class="st2" d="M-297.3,288.6l2.9,31.9h71.5v-31.9H-297.3L-297.3,288.6z"/>
	<path class="st2" d="M-303.1,224l2.9,31.9h77.2V224H-303.1L-303.1,224z"/>
	<path class="st2" d="M-223,371.6l-0.1,0l-35.6-9.6l-2.3-25.5H-293l4.5,50.1l65.4,18.2l0.1,0V371.6L-223,371.6z"/>
	<path d="M-290.5,100h38.7v16.2h-22.5v16.2h22.5v16.2h-38.7V100L-290.5,100z"/>
	<path d="M-244.1,100h38.7v14.1h-22.5v2.8h22.5v32.4h-38.7v-14.8h22.5v-2.8h-22.5V100L-244.1,100z"/>
	<path d="M-197.7,100h38.7v14.1h-22.5v2.8h22.5v32.4h-38.7v-14.8h22.5v-2.8h-22.5V100L-197.7,100z"/>
	<path class="st3" d="M-148.9,288.6l5.8-64.6h-80v31.9h45l-2.9,32.7h-42.1v31.9h39.3l-3.7,41.4l-35.6,9.6v33.2l65.5-18.1l0.5-5.4
		l7.5-84.1L-148.9,288.6L-148.9,288.6z"/>
</g>
</svg>
