<?xml version="1.0" encoding="utf-8"?>
<!-- Generator: Adobe Illustrator 19.0.0, SVG Export Plug-In . SVG Version: 6.00 Build 0)  -->
<svg version="1.1" id="Layer_1" xmlns="http://www.w3.org/2000/svg" xmlns:xlink="http://www.w3.org/1999/xlink" x="0px" y="0px"
	 viewBox="-351 170.8 256 290.2" style="enable-background:new -351 170.8 256 290.2;" xml:space="preserve">
<style type="text/css">
	.st0{fill:#E44D26;}
	.st1{fill:#F16529;}
	.st2{fill:#EBEBEB;}
	.st3{fill:#FFFFFF;}
</style>
<g>
	<path class="st0" d="M-95.4,170.8l-23.2,260.4l-104.5,29l-104.2-28.9l-23.2-260.4H-95.4L-95.4,170.8z"/>
	<path class="st1" d="M-223,438l84.4-23.4l19.9-222.5H-223V438L-223,438z"/>
	<path class="st2" d="M-268.2,255.9h45.2V224h-80.1l0.8,8.6l7.8,88h71.5v-31.9h-42.3L-268.2,255.9L-268.2,255.9z"/>
	<path class="st2" d="M-261,336.5H-293l4.5,50.1l65.4,18.2l0.1,0v-33.2l-0.1,0l-35.6-9.6L-261,336.5L-261,336.5z"/>
	<path d="M-326.8,100h16.2v16h14.8v-16h16.2v48.6h-16.2v-16.3h-14.8v16.3h-16.2L-326.8,100L-326.8,100L-326.8,100z"/>
	<path d="M-258.2,116.1h-14.3V100h44.8v16.1h-14.3v32.5h-16.2L-258.2,116.1L-258.2,116.1L-258.2,116.1z"/>
	<path d="M-220.5,100h16.9l10.4,17.1l10.4-17.1h16.9v48.6H-182v-24.1l-11.2,17.3h-0.3l-11.2-17.3v24.1h-15.9V100L-220.5,100z"/>
	<path d="M-157.8,100h16.2v32.5h22.8v16.1h-39.1V100L-157.8,100z"/>
	<path class="st3" d="M-223.1,320.6h39.3l-3.7,41.4l-35.6,9.6v33.2l65.5-18.1l0.5-5.4l7.5-84.1l0.8-8.6h-74.2V320.6L-223.1,320.6z"
		/>
	<path class="st3" d="M-223.1,255.9L-223.1,255.9l77.1,0.1l0.6-7.2l1.5-16.2l0.8-8.6h-80V255.9L-223.1,255.9z"/>
</g>
</svg>
