<?xml version="1.0" encoding="utf-8"?>
<!-- Generator: Adobe Illustrator 19.0.0, SVG Export Plug-In . SVG Version: 6.00 Build 0)  -->
<svg version="1.1" id="Layer_1" xmlns="http://www.w3.org/2000/svg" xmlns:xlink="http://www.w3.org/1999/xlink" x="0px" y="0px"
	 viewBox="67 146 843 195" style="enable-background:new 67 146 843 195;" xml:space="preserve">
<style type="text/css">
	.st0{fill:#F2F2F2;}
	.st1{fill:#333333;}
</style>
<g id="XMLID_3_">
	<path id="XMLID_20_" class="st0" d="M613,296.2c0,13.9,7.3,22.2,23.4,22.2c20,0,39.7-12.9,39.7-30v-21c-4,2.7-9,4.6-35.5,8
		C630,277,613,280.1,613,296.2z"/>
	<path id="XMLID_23_" class="st0" d="M67,146v195h843V146H67z M156.6,337.1c-39.7,0-78.7-25.8-78.7-93.1c0-53.9,30.7-91.2,81.7-91.2
		c45.1,0,68.5,28.2,71.9,57.2h-22.9c-6.6-31-32.2-36.3-49-36.3c-31.7,0-57.3,23.4-57.3,69.5c0,41.2,14.6,72.8,58,72.8
		c15.4,0,41.9-7.1,50-48.1h22.9C223.4,334,169.7,337.1,156.6,337.1z M310.9,336c-40.7,0-59.2-34.4-59.2-67.3s18.5-67.3,59.2-67.3
		s59.2,34.4,59.2,67.3S351.6,336,310.9,336z M498,333h-21v-79c0-22.2-6.4-33.4-27.3-33.4c-12.2,0-33.7,7.8-33.7,42.4v70h-21V205h20
		v18h0.2c4.6-7,16.4-21.7,38.3-21.7c19.7,0,44.4,8.1,44.4,44.4V333H498z M577,223h-21v82.7c0,10,8.9,10.3,13.3,10.3h7.7v16.5
		c-8,0.7-13.9,1.7-16.1,1.7c-21.2,0-25.9-11.9-25.9-27.3V223h-17v-18h17v-36h21v36h21V223z M711,332.5c-3,1-6.7,2.4-11.6,2.4
		c-19,0-21.9-9.8-22.6-19.5c-8.3,9-21.2,20.7-46.1,20.7c-23.4,0-40-14.9-40-36.8c0-10.7,3.2-35.6,38.8-40l35.4-4.4
		c5.1-0.5,11.2-2.4,11.2-15.1c0-13.4-9.8-20.6-30-20.6c-24.4,0-27.8,14.7-29.3,24.7h-19.7c1-31,21.2-42.5,52.6-42.5
		c10.2,0,47.3,2.8,47.3,35.5v73.4c0,5.4,2.6,7.6,7,7.6c2,0,5-0.5,7-1L711,332.5L711,332.5z M782.6,317.5c14.4,0,26.8-10.5,30.5-30.5
		h20.7c-2.2,21-14.6,49-51.9,49c-35.8,0-57-27-57-63.8c0-39.5,19-70.9,61.2-70.9c33.4,0,46.1,24.7,47.8,46.7h-20.7
		c-2.7-17-12.2-27.3-30.2-27.3c-26.6,0-35.1,25.2-35.1,47.9C747.8,290.5,753.1,317.5,782.6,317.5z M902,223h-20v82.7
		c0,10,8.2,10.3,12.6,10.3h7.4v16.5c-8,0.7-13.9,1.7-16.1,1.7c-21.2,0-25.9-11.9-25.9-27.3V223h-17v-18h17v-36h22v36h20V223z"/>
	<path id="XMLID_31_" class="st1" d="M160.2,316.1c-43.4,0-58-31.6-58-72.9c0-46.1,25.6-69.5,57.3-69.5c16.8,0,42.4,5.3,49,36.3
		h22.9c-3.4-29-26.8-57.2-71.9-57.2c-51,0-81.7,37.3-81.7,91.2c0,67.3,39,93.1,78.7,93.1c13.2,0,66.8-3.1,76.6-69.1h-22.9
		C202.1,309,175.6,316.1,160.2,316.1z"/>
	<path id="XMLID_34_" class="st1" d="M310.9,201.4c-40.7,0-59.2,34.4-59.2,67.3s18.5,67.3,59.2,67.3s59.2-34.4,59.2-67.3
		S351.6,201.4,310.9,201.4z M310.9,317.4c-30.7,0-37.1-31.7-37.1-48.8s6.3-48.8,37.1-48.8c30.7,0,37.1,31.7,37.1,48.8
		S341.6,317.4,310.9,317.4z"/>
	<path id="XMLID_35_" class="st1" d="M453.6,201.3c-21.9,0-33.7,14.7-38.3,21.7H415v-18h-20v128h21v-69.9
		c0-34.6,21.5-42.4,33.7-42.4c21,0,27.3,11.2,27.3,33.4v79h21v-87.3C498,209.4,473.3,201.3,453.6,201.3z"/>
	<path id="XMLID_36_" class="st1" d="M556,169h-21v36h-17v18h17v83.9c0,15.4,4.7,27.3,25.9,27.3c2.2,0,8.1-1,16.1-1.7V316h-7.7
		c-4.4,0-13.3-0.3-13.3-10.3V223h21v-18h-21V169z"/>
	<path id="XMLID_39_" class="st1" d="M697,310.4V237c0-32.7-37-35.5-47.3-35.5c-31.5,0-51.7,11.5-52.6,42.5h19.7
		c1.5-10,4.9-24.7,29.3-24.7c20.2,0,30,7.3,30,20.7c0,12.7-6.1,14.6-11.2,15.1l-35.4,4.4c-35.6,4.4-38.8,29.3-38.8,40
		c0,21.9,16.6,36.8,40,36.8c24.9,0,37.8-11.7,46.1-20.7c0.7,9.8,3.6,19.5,22.6,19.5c4.9,0,8.6-1.5,11.6-2.4v-15.6c-2,0.5-5,1-7,1
		C699.6,317.9,697,315.7,697,310.4z M676,288.4c0,17.1-19.7,30-39.7,30c-16.1,0-23.3-8.3-23.3-22.2c0-16.1,17-19.3,27.5-20.7
		c26.6-3.4,31.5-5.4,35.5-8V288.4z"/>
	<path id="XMLID_40_" class="st1" d="M782.9,220.7c18,0,27.5,10.3,30.2,27.3h20.7c-1.7-22-14.4-46.6-47.8-46.6
		c-42.2,0-61.2,31.4-61.2,70.9c0,36.8,21.2,63.7,57,63.7c37.3,0,49.7-28,51.9-49H813c-3.7,20-16.1,30.5-30.5,30.5
		c-29.5,0-34.9-26.9-34.9-48.9C747.8,245.9,756.3,220.7,782.9,220.7z"/>
	<path id="XMLID_41_" class="st1" d="M882,169h-22v36h-17v18h17v83.9c0,15.4,4.7,27.3,25.9,27.3c2.2,0,8.1-1,16.1-1.7V316h-7.4
		c-4.4,0-12.6-0.3-12.6-10.3V223h20v-18h-20V169z"/>
</g>
</svg>
