<?xml version="1.0" encoding="utf-8"?>
<!-- Generator: Adobe Illustrator 19.0.0, SVG Export Plug-In . SVG Version: 6.00 Build 0)  -->
<svg version="1.1" id="Layer_1" xmlns="http://www.w3.org/2000/svg" xmlns:xlink="http://www.w3.org/1999/xlink" x="0px" y="0px"
	 viewBox="-239 -528 2799 1652" style="enable-background:new -239 -528 2799 1652;" xml:space="preserve">
<style type="text/css">
	.st0{fill:#F2F2F2;}
	.st1{fill:#333333;}
</style>
<g>
	<path class="st0" d="M-368-748v1986.9h3106V-748H-368z M827.1,390.1c-39.7,0-78.7-25.8-78.7-93.1c0-53.9,30.7-91.2,81.7-91.2
		c45.1,0,68.5,28.2,71.9,57.2h-22.9c-6.6-31-32.2-36.3-49-36.3c-31.7,0-57.3,23.4-57.3,69.5c0,41.3,14.6,72.9,58,72.9
		c15.4,0,41.9-7.1,50-48.1h22.9C893.9,387,840.3,390.1,827.1,390.1z M981.5,389c-40.7,0-59.2-34.4-59.2-67.3
		c0-32.9,18.5-67.3,59.2-67.3c40.7,0,59.2,34.4,59.2,67.3C1040.7,354.6,1022.2,389,981.5,389z M1168.6,386.1h-21v-79
		c0-22.2-6.3-33.4-27.3-33.4c-12.2,0-33.7,7.8-33.7,42.4V386h-21V258h20v18h0.3c4.6-7,16.4-21.7,38.3-21.7
		c19.7,0,44.4,8.1,44.4,44.5V386.1z M1247.6,276h-21v82.7c0,10,8.9,10.3,13.3,10.3h7.7v16.5c-8,0.7-13.9,1.7-16.1,1.7
		c-21.2,0-25.9-11.9-25.9-27.3V276h-17v-18h17v-36h21v36h21V276z M1381.6,385.7c-3,0.9-6.7,2.4-11.6,2.4c-19,0-21.9-9.7-22.6-19.5
		c-8.3,9-21.2,20.7-46.1,20.7c-23.4,0-40-14.9-40-36.8c0-10.7,3.2-35.6,38.8-40l35.4-4.4c5.1-0.5,11.2-2.4,11.2-15.1
		c0-13.4-9.8-20.7-30-20.7c-24.4,0-27.8,14.7-29.3,24.7h-19.7c0.9-31,21.1-42.5,52.6-42.5c10.3,0,47.3,2.8,47.3,35.5v73.4
		c0,5.3,2.6,7.5,7,7.7c2,0,5-0.5,7-1V385.7z M1453.1,370.5c14.4,0,26.8-10.5,30.5-30.5h20.7c-2.2,21-14.6,49-51.9,49
		c-35.8,0-57-26.9-57-63.7c0-39.5,19-70.9,61.2-70.9c33.4,0,46.1,24.6,47.8,46.6h-20.7c-2.7-17-12.2-27.3-30.2-27.3
		c-26.6,0-35.1,25.2-35.3,47.9C1418.2,343.6,1423.6,370.5,1453.1,370.5z M1572.6,276h-20v82.7c0,10,8.2,10.3,12.6,10.3h7.4v16.5
		c-8,0.7-13.9,1.7-16.1,1.7c-21.2,0-25.9-11.9-25.9-27.3V276h-17v-18h17v-36h22v36h20V276z"/>
	<path class="st0" d="M1304,329.8c-9.1,1.9-19,6.2-20.2,17.2C1284.9,335.9,1294.9,331.8,1304,329.8z"/>
	<path class="st0" d="M1283.6,349.3c0,13.9,7.2,22.2,23.3,22.2c0,0,0,0,0.1,0C1290.9,371.4,1283.6,363.1,1283.6,349.3z"/>
	<path class="st0" d="M1304,329.8c-9.1,2-19,6.2-20.2,17.2c0,0,0,0,0,0c0,0.4-0.1,0.7-0.1,1.1c0,0.4,0,0.8,0,1.2c0,0,0,0,0,0
		c0,13.9,7.3,22.2,23.4,22.2c20,0,39.6-12.9,39.6-30v-20.9c-4,2.6-8.9,4.6-35.5,8C1308.9,328.8,1306.5,329.2,1304,329.8z"/>
	<path class="st1" d="M830.8,369.1c-43.4,0-58-31.6-58-72.9c0-46.1,25.6-69.5,57.3-69.5c16.8,0,42.4,5.3,49,36.3H902
		c-3.4-29-26.8-57.2-71.9-57.2c-51,0-81.7,37.3-81.7,91.2c0,67.3,39,93.1,78.7,93.1c13.2,0,66.8-3.1,76.6-69.1h-22.9
		C872.7,362,846.2,369.1,830.8,369.1z"/>
	<path class="st1" d="M981.5,254.4c-40.7,0-59.2,34.4-59.2,67.3c0,32.9,18.5,67.3,59.2,67.3c40.7,0,59.2-34.4,59.2-67.3
		C1040.7,288.8,1022.2,254.4,981.5,254.4z M981.5,370.4c-30.7,0-37.1-31.7-37.1-48.8s6.3-48.8,37.1-48.8c30.7,0,37.1,31.7,37.1,48.8
		C1018.6,338.8,1012.2,370.4,981.5,370.4z"/>
	<path class="st1" d="M1124.2,254.3c-21.9,0-33.7,14.7-38.3,21.7h-0.3v-18h-20v128h21v-69.9c0-34.6,21.5-42.4,33.7-42.4
		c21,0,27.3,11.2,27.3,33.4v79h21v-87.3C1168.6,262.4,1143.9,254.3,1124.2,254.3z"/>
	<path class="st1" d="M1226.6,222h-21v36h-17v18h17v83.9c0,15.4,4.7,27.3,25.9,27.3c2.2,0,8.1-1,16.1-1.7V369h-7.7
		c-4.4,0-13.3-0.3-13.3-10.3V276h21v-18h-21V222z"/>
	<path class="st1" d="M1367.6,363.4V290c0-32.7-37-35.5-47.3-35.5c-31.5,0-51.7,11.5-52.6,42.5h19.7c1.5-10,4.9-24.7,29.3-24.7
		c20.2,0,30,7.3,30,20.7c0,12.7-6.1,14.6-11.2,15.1l-35.4,4.4c-35.6,4.4-38.8,29.3-38.8,40c0,21.9,16.6,36.8,40,36.8
		c24.9,0,37.8-11.7,46.1-20.7c0.7,9.8,3.6,19.5,22.6,19.5c4.9,0,8.6-1.5,11.6-2.4v-15.6c-2,0.5-5,1-7,1
		C1370.2,370.9,1367.6,368.8,1367.6,363.4z M1346.6,341.4c0,17.1-19.7,30-39.6,30c0,0,0,0-0.1,0c-16.1,0-23.3-8.3-23.3-22.2
		c0,0,0,0,0,0c0-0.4,0-0.8,0-1.2c0-0.4,0-0.7,0.1-1.1c0,0,0,0,0,0c1.2-11,11.2-15.3,20.2-17.2c2.5-0.5,5-0.9,7.1-1.2
		c26.6-3.4,31.5-5.4,35.5-8V341.4z"/>
	<path class="st1" d="M1453.5,273.8c18,0,27.5,10.3,30.2,27.3h20.7c-1.7-22-14.4-46.6-47.8-46.6c-42.2,0-61.2,31.4-61.2,70.9
		c0,36.8,21.2,63.7,57,63.7c37.3,0,49.7-28,51.9-49h-20.7c-3.7,20-16.1,30.5-30.5,30.5c-29.5,0-34.9-26.9-34.9-48.9
		C1418.4,298.9,1426.9,273.8,1453.5,273.8z"/>
	<path class="st1" d="M1552.6,222h-22v36h-17v18h17v83.9c0,15.4,4.7,27.3,25.9,27.3c2.2,0,8.1-1,16.1-1.7V369h-7.4
		c-4.4,0-12.6-0.3-12.6-10.3V276h20v-18h-20V222z"/>
</g>
</svg>
