<?xml version="1.0" encoding="utf-8"?>
<!-- Generator: Adobe Illustrator 19.0.0, SVG Export Plug-In . SVG Version: 6.00 Build 0)  -->
<svg version="1.1" xmlns="http://www.w3.org/2000/svg" xmlns:xlink="http://www.w3.org/1999/xlink" x="0px" y="0px"
	 viewBox="0 0 176.4 51.4" style="enable-background:new 0 0 176.4 51.4;" xml:space="preserve">
<style type="text/css">
	.st0{fill:url(#XMLID_226_);}
	.st1{clip-path:url(#XMLID_512_);}
	.st2{clip-path:url(#XMLID_513_);}
	.st3{clip-path:url(#XMLID_512_);fill:#FFFFFF;}
	.st4{clip-path:url(#XMLID_512_);fill:#43544B;}
	.st5{clip-path:url(#XMLID_515_);fill:#00A651;}
	.st6{clip-path:url(#XMLID_515_);fill:#FFFFFF;}
	.st7{clip-path:url(#XMLID_516_);fill:#FFFFFF;}
	.st8{clip-path:url(#XMLID_516_);fill:none;stroke:#FFFFFF;stroke-width:0.5;stroke-miterlimit:10;}
	.st9{clip-path:url(#XMLID_517_);fill:#00A651;}
	.st10{clip-path:url(#XMLID_518_);fill:#FFFFFF;}
	.st11{clip-path:url(#XMLID_518_);fill:none;stroke:#FFFFFF;stroke-width:0.5;stroke-miterlimit:10;}
	.st12{clip-path:url(#XMLID_519_);fill:#00A651;}
	.st13{clip-path:url(#XMLID_520_);fill:#FFFFFF;}
	.st14{clip-path:url(#XMLID_520_);fill:none;stroke:#FFFFFF;stroke-width:0.5;stroke-miterlimit:10;}
	.st15{clip-path:url(#XMLID_521_);fill:#00A651;}
	.st16{clip-path:url(#XMLID_522_);fill:#FFFFFF;}
	.st17{clip-path:url(#XMLID_522_);fill:none;stroke:#FFFFFF;stroke-width:0.5;stroke-miterlimit:10;}
	.st18{clip-path:url(#XMLID_523_);fill:#00A651;}
	.st19{clip-path:url(#XMLID_524_);fill:#FFFFFF;}
	.st20{clip-path:url(#XMLID_524_);fill:none;stroke:#FFFFFF;stroke-width:0.5;stroke-miterlimit:10;}
	.st21{clip-path:url(#XMLID_525_);fill:#FFFFFF;}
	.st22{clip-path:url(#XMLID_526_);fill:#FFFFFF;}
	.st23{clip-path:url(#XMLID_526_);fill:#00A651;}
	.st24{clip-path:url(#XMLID_526_);fill:#43544B;}
	.st25{clip-path:url(#XMLID_512_);fill:#939598;}
	.st26{clip-path:url(#XMLID_512_);fill:none;stroke:#BCBEC0;stroke-width:0.25;stroke-miterlimit:10;}
	.st27{clip-path:url(#XMLID_527_);fill:none;stroke:#BCBEC0;stroke-width:0.25;stroke-miterlimit:10;}
	.st28{clip-path:url(#XMLID_528_);fill:none;stroke:#BCBEC0;stroke-width:0.25;stroke-miterlimit:10;}
	.st29{clip-path:url(#XMLID_529_);fill:none;stroke:#BCBEC0;stroke-width:0.25;stroke-miterlimit:10;}
	.st30{clip-path:url(#XMLID_530_);fill:none;stroke:#BCBEC0;stroke-width:0.25;stroke-miterlimit:10;}
	.st31{clip-path:url(#XMLID_531_);fill:none;stroke:#BCBEC0;stroke-width:0.25;stroke-miterlimit:10;}
	.st32{clip-path:url(#XMLID_532_);fill:none;stroke:#BCBEC0;stroke-width:0.25;stroke-miterlimit:10;}
	.st33{clip-path:url(#XMLID_533_);fill:none;stroke:#BCBEC0;stroke-width:0.25;stroke-miterlimit:10;}
	.st34{clip-path:url(#XMLID_534_);fill:#00A651;}
	.st35{clip-path:url(#XMLID_535_);fill:#FFFFFF;}
	.st36{clip-path:url(#XMLID_535_);fill:none;stroke:#FFFFFF;stroke-width:0.5;stroke-miterlimit:10;}
	.st37{clip-path:url(#XMLID_536_);fill:#00A651;}
	.st38{clip-path:url(#XMLID_537_);fill:#FFFFFF;}
	.st39{clip-path:url(#XMLID_537_);fill:none;stroke:#FFFFFF;stroke-width:0.5;stroke-miterlimit:10;}
	.st40{clip-path:url(#XMLID_538_);fill:#FFFFFF;}
	.st41{clip-path:url(#XMLID_538_);fill:#00A651;}
	.st42{clip-path:url(#XMLID_538_);fill:#43544B;}
	.st43{clip-path:url(#XMLID_538_);fill:#B7DEC6;}
	.st44{clip-path:url(#XMLID_539_);fill:#FFFFFF;}
	.st45{clip-path:url(#XMLID_539_);fill:none;stroke:#FFFFFF;stroke-width:0.5;stroke-miterlimit:10;}
	.st46{clip-path:url(#XMLID_540_);fill:#B7DEC6;}
	.st47{clip-path:url(#XMLID_541_);fill:#FFFFFF;}
	.st48{clip-path:url(#XMLID_541_);fill:none;stroke:#FFFFFF;stroke-width:0.5;stroke-miterlimit:10;}
	.st49{clip-path:url(#XMLID_541_);fill:#00A651;}
	.st50{clip-path:url(#XMLID_541_);fill:none;stroke:#FFFFFF;stroke-miterlimit:10;}
	.st51{clip-path:url(#XMLID_541_);fill:none;stroke:#939598;stroke-miterlimit:10;}
	.st52{clip-path:url(#XMLID_542_);fill:none;stroke:#939598;stroke-miterlimit:10;}
	.st53{clip-path:url(#XMLID_543_);fill:none;stroke:#939598;stroke-miterlimit:10;}
	.st54{clip-path:url(#XMLID_544_);fill:#FFFFFF;}
	.st55{clip-path:url(#XMLID_545_);fill:none;stroke:#939598;stroke-miterlimit:10;}
	.st56{clip-path:url(#XMLID_546_);fill:none;stroke:#939598;stroke-miterlimit:10;}
	.st57{clip-path:url(#XMLID_547_);fill:none;stroke:#939598;stroke-miterlimit:10;}
	.st58{clip-path:url(#XMLID_548_);fill:none;stroke:#939598;stroke-miterlimit:10;}
	.st59{clip-path:url(#XMLID_549_);fill:none;stroke:#939598;stroke-miterlimit:10;}
	.st60{clip-path:url(#XMLID_550_);fill:none;stroke:#939598;stroke-miterlimit:10;}
	.st61{fill:#333333;}
	.st62{opacity:0.6;fill:#333333;}
	.st63{opacity:0.24;fill:#8C8C8C;}
	.st64{fill:#020202;}
</style>
<g id="background">
	<linearGradient id="XMLID_226_" gradientUnits="userSpaceOnUse" x1="447.5187" y1="78" x2="1407.5187" y2="78">
		<stop  offset="0" style="stop-color:#3B9F51;stop-opacity:0.3"/>
		<stop  offset="0.5674" style="stop-color:#3B9F51;stop-opacity:0.5"/>
		<stop  offset="0.8652" style="stop-color:#3B9F51;stop-opacity:0.6"/>
		<stop  offset="0.9944" style="stop-color:#3B9F51;stop-opacity:0.7"/>
	</linearGradient>
	<rect id="XMLID_1_" x="447.5" y="-202" class="st0" width="960" height="560"/>
</g>
<g id="Layer_3">
	<g id="XMLID_13_">
		
			<image style="overflow:visible;opacity:0.75;" width="688" height="370" id="XMLID_61_" xlink:href="35CA58A6.png"  transform="matrix(1 0 0 1 1220.5187 -161)">
		</image>
		<g id="XMLID_46_">
			<g id="XMLID_58_">
				<g>
					<defs>
						<rect id="XMLID_227_" x="1229" y="-152.3" width="657" height="338.5"/>
					</defs>
					<clipPath id="XMLID_512_">
						<use xlink:href="#XMLID_227_"  style="overflow:visible;"/>
					</clipPath>
					<g class="st1">
						<defs>
							<rect id="XMLID_509_" x="1229" y="-152.3" width="657" height="338.5"/>
						</defs>
						<clipPath id="XMLID_513_">
							<use xlink:href="#XMLID_509_"  style="overflow:visible;"/>
						</clipPath>
						<g class="st2">
							<defs>
								<rect id="XMLID_510_" x="1229" y="-183.3" width="657" height="369.6"/>
							</defs>
							<clipPath id="XMLID_514_">
								<use xlink:href="#XMLID_510_"  style="overflow:visible;"/>
							</clipPath>
							<g style="clip-path:url(#XMLID_514_);">
								
									<image style="overflow:visible;" width="1920" height="1080" id="XMLID_511_" xlink:href="35CA58AA.jpg"  transform="matrix(0.3422 0 0 0.3422 1229.0187 -183.2937)">
								</image>
							</g>
						</g>
					</g>
					<rect id="XMLID_508_" x="1229" y="-152.3" class="st3" width="657" height="338.5"/>
					<rect id="XMLID_507_" x="1229.2" y="-152.3" class="st4" width="163.3" height="338.5"/>
					<g class="st1">
						<defs>
							<rect id="XMLID_488_" x="1229" y="-152.3" width="657" height="338.5"/>
						</defs>
						<clipPath id="XMLID_515_">
							<use xlink:href="#XMLID_488_"  style="overflow:visible;"/>
						</clipPath>
						<path id="XMLID_506_" class="st5" d="M1285.2-121.9c-0.4,0.3-0.9,0.5-1.3,0.6c-0.7,0.2-1.4,0.3-2.3,0.3
							c-4.4,0-6.6-2.3-6.6-6.9c0-1.6,0.3-3,0.9-4.2c0.6-1.2,1.5-2,2.5-2.6c1-0.6,2.2-0.9,3.5-0.9c0.6,0,1.1,0.1,1.7,0.2
							c0.3,0.1,0.6,0.1,0.8,0.2v-5.6h2.7c-0.8-1-2.1-1.6-3.4-1.6h-15.5c-2.5,0-4.6,2-4.6,4.6v16.3c0,2.5,2,4.6,4.6,4.6h15.5
							c2.5,0,4.5-2,4.6-4.4h-2.9L1285.2-121.9z"/>
						<path class="st6" d="M1285.4-139.8v6.2l-0.7-0.3c-0.3-0.2-0.8-0.3-1.2-0.4c-0.5-0.1-1-0.2-1.5-0.2c-1.1,0-2.2,0.3-3.1,0.8
							c-0.9,0.5-1.6,1.3-2.2,2.3c-0.5,1-0.8,2.3-0.8,3.7c0,4,1.9,6,5.7,6c0.7,0,1.4-0.1,2-0.3c0.6-0.2,1.1-0.5,1.6-0.8l0.5-0.4
							l0.4,1.2h4.3v-17.7H1285.4z M1285.4-126.1l-0.2,0.1c-0.5,0.5-1.2,0.7-1.9,0.7c-0.5,0-0.9-0.1-1.2-0.2
							c-0.4-0.1-0.6-0.4-0.8-0.9c-0.2-0.4-0.2-0.9-0.2-1.6c0-1.1,0.2-1.9,0.5-2.4c0.4-0.6,1-1,1.8-1c0.8,0,1.4,0.2,1.9,0.7l0.2,0.1
							V-126.1z"/>
						<path id="XMLID_503_" class="st6" d="M1299.2-133.5l-0.6,0.3l-0.2-1.2h-4.9v12.2h5v-8l0.3-0.1c0.5-0.2,1.2-0.4,2.1-0.5
							c0.7-0.1,1.4-0.2,2-0.2v-3.5c-0.6,0-1.2,0.2-1.8,0.3C1300.4-134,1299.7-133.8,1299.2-133.5"/>
						<path class="st6" d="M1314.6-133.3c-1.2-0.8-2.8-1.3-4.9-1.3c-1,0-2,0.1-3,0.3c-0.9,0.1-1.6,0.3-2.2,0.6v2.4
							c0.6-0.1,1.1-0.3,1.7-0.4c0.8-0.1,1.6-0.2,2.3-0.2c2,0,3.1,0.5,3.1,1.6v0.6h-3.6c-1.8,0-3.1,0.3-3.9,1
							c-0.8,0.7-1.2,1.6-1.2,2.9c0,1.3,0.4,2.2,1.1,2.9l0,0c0.8,0.6,1.8,1,3,1c1.8,0,3.2-0.4,4.1-1.2l0.6-0.5l0.3,1.4h4.4v-7.5
							C1316.3-131.3,1315.7-132.5,1314.6-133.3 M1311.5-125.4l-0.1,0.1c-0.6,0.6-1.4,1-2.3,1c-1.6,0-1.8-1.1-1.8-1.6
							c0-0.7,0.3-1.1,0.5-1.2c0.3-0.2,0.8-0.3,1.4-0.3h2.3V-125.4z"/>
						<path class="st6" d="M1332-121c0-1.1-0.3-1.9-1-2.4c-0.7-0.6-1.7-0.8-3-0.8h-2.6c-0.3,0-0.6,0-0.8-0.1
							c-0.3-0.1-0.5-0.4-0.5-0.8c0-0.6,0.6-1,1.7-1.1l0,0l0,0c1.1,0.1,1.4,0.1,1.5,0.1c1.5,0,2.6-0.3,3.3-1c0.7-0.7,1-1.6,1-2.9
							c0-0.4-0.1-0.7-0.3-0.9l-0.4-0.7h1.8c0.1-0.2,0.1-0.4,0.2-0.6l0.1-2.1l-4.9,0c-0.3-0.1-0.7-0.1-1.3-0.2
							c-0.6-0.1-1.1-0.1-1.5-0.1c-2.1,0-3.8,0.4-4.9,1.1c-1.1,0.7-1.6,1.8-1.6,3.3c0,0.8,0.2,1.5,0.4,2c0.3,0.5,0.8,0.9,1.5,1.3
							l1,0.5l-1,0.3c-0.6,0.2-1,0.5-1.3,0.8c-0.3,0.4-0.4,0.8-0.4,1.3c0,0.5,0,2.1,4,2.1h3.3c0.5,0,0.9,0,1.1,0.1
							c0.4,0.1,0.6,0.4,0.6,0.8c0,0.8-0.9,1-3.4,1c-1,0-2-0.1-3.1-0.2c-0.8-0.1-1.5-0.2-2.2-0.4v2.6c0.6,0.2,1.3,0.3,2.2,0.4
							c1.1,0.1,2.3,0.2,3.4,0.2c2.5,0,4.4-0.4,5.6-1C1331.4-119,1332-119.9,1332-121 M1323.1-130.4c0-0.7,0.2-1.1,0.6-1.5
							c0.4-0.3,0.9-0.5,1.7-0.5c0.7,0,1.3,0.1,1.6,0.5c0.4,0.3,0.6,0.8,0.6,1.5c0,0.7-0.2,1.2-0.5,1.5c-0.3,0.3-0.9,0.4-1.7,0.4
							c-0.8,0-1.3-0.1-1.7-0.5C1323.3-129.3,1323.1-129.7,1323.1-130.4"/>
						<path class="st6" d="M1346.6-121c0-1.1-0.3-1.9-1-2.4c-0.7-0.6-1.7-0.8-3-0.8h-2.6c-0.3,0-0.6,0-0.8-0.1
							c-0.3-0.1-0.5-0.4-0.5-0.8c0-0.6,0.6-1,1.7-1.1l0,0l0,0c1.1,0.1,1.4,0.1,1.5,0.1c1.5,0,2.6-0.3,3.3-1c0.7-0.7,1-1.6,1-2.9
							c0-0.4-0.1-0.7-0.3-0.9l-0.4-0.7h1.9v-2.6l-4.6,0c-0.3-0.1-0.7-0.1-1.3-0.2c-0.6-0.1-1.1-0.1-1.5-0.1c-2.1,0-3.8,0.4-4.9,1.1
							c-1.1,0.7-1.6,1.8-1.6,3.3c0,0.8,0.2,1.5,0.4,2c0.3,0.5,0.8,0.9,1.5,1.3l1,0.5l-1,0.3c-0.6,0.2-1,0.5-1.3,0.8
							c-0.3,0.4-0.4,0.8-0.4,1.3c0,0.5,0,2.1,4,2.1h3.3c0.5,0,0.9,0,1.1,0.1c0.4,0.1,0.6,0.4,0.6,0.8c0,0.8-0.9,1-3.4,1
							c-1,0-2-0.1-3.1-0.2c-0.8-0.1-1.5-0.2-2.2-0.4v2.6c0.6,0.2,1.3,0.3,2.2,0.4c1.1,0.1,2.3,0.2,3.4,0.2c2.5,0,4.4-0.4,5.6-1
							C1346.1-119,1346.6-119.9,1346.6-121 M1337.7-130.4c0-0.7,0.2-1.1,0.6-1.5c0.4-0.3,0.9-0.5,1.7-0.5c0.7,0,1.3,0.1,1.6,0.5
							c0.4,0.3,0.6,0.8,0.6,1.5c0,0.7-0.2,1.2-0.5,1.5c-0.3,0.3-0.9,0.4-1.7,0.4c-0.8,0-1.3-0.1-1.7-0.5
							C1337.9-129.3,1337.7-129.7,1337.7-130.4"/>
						<path id="XMLID_496_" class="st6" d="M1354-133.5l-0.6,0.3l-0.2-1.2h-4.9v12.2h5v-8l0.3-0.1c0.5-0.2,1.2-0.4,2.1-0.5
							c0.7-0.1,1.4-0.2,2-0.2v-3.5c-0.6,0-1.2,0.2-1.8,0.3C1355.1-134,1354.4-133.8,1354-133.5"/>
						<path id="XMLID_495_" class="st5" d="M1256.5-88.2h-9.1c-2.5,0-4.6-2-4.6-4.6v-9.1c0-2.5,2-4.6,4.6-4.6h9.1
							c2.5,0,4.6,2,4.6,4.6v9.1C1261.1-90.2,1259.1-88.2,1256.5-88.2"/>
						<rect id="XMLID_494_" x="1250.6" y="-103.1" class="st6" width="2.7" height="11.6"/>
						<rect id="XMLID_493_" x="1246.2" y="-98.7" class="st6" width="11.6" height="2.7"/>
						<path id="XMLID_492_" class="st6" d="M1374-88.2h-104.3c-2.5,0-4.6-2-4.6-4.6v-9.1c0-2.5,2-4.6,4.6-4.6H1374
							c2.5,0,4.6,2,4.6,4.6v9.1C1378.5-90.2,1376.5-88.2,1374-88.2"/>
						<path class="st6" d="M1383.3-148.6h0.2c0.3,0.1,0.5,0.1,0.8,0.2c0.4,0.1,0.4,0.1,0.3,0.5c0,0.3,0,0.5,0.2,0.7
							c0.3,0.4,0.6,0.4,1.1,0.3c0.2-0.1,0.3-0.1,0.5,0.1c0.1,0.2,0.3,0.5,0.4,0.7c0.1,0.3,0.1,0.3-0.1,0.5c-0.1,0.1-0.2,0.3-0.3,0.4
							c-0.1,0.3,0,0.6,0.1,0.8c0.1,0.1,0.2,0.2,0.2,0.3c0.1,0.1,0.3,0.2,0.4,0.2v0.3c-0.1,0.3-0.1,0.5-0.2,0.8
							c-0.1,0.3-0.2,0.4-0.5,0.3c-0.2,0-0.4,0-0.6,0.1c-0.4,0.3-0.5,0.7-0.3,1.2c0.1,0.2,0.1,0.4-0.1,0.5c-0.3,0.1-0.5,0.3-0.8,0.4
							c-0.3,0.1-0.3,0.1-0.5-0.1c-0.2-0.3-0.5-0.4-0.8-0.3c-0.3,0-0.7,0.1-0.8,0.5c0,0.1-0.1,0.2-0.2,0.3h-0.3
							c-0.3-0.1-0.5-0.1-0.8-0.2c-0.3-0.1-0.4-0.2-0.3-0.5c0.1-0.5-0.4-1.1-1-1c-0.1,0-0.3,0.1-0.4,0.1c-0.2,0.1-0.3,0-0.4-0.1
							c-0.1-0.2-0.2-0.4-0.3-0.6c-0.3-0.5-0.3-0.5,0.2-0.8c0.3-0.2,0.3-0.5,0.3-0.8c0-0.3-0.2-0.6-0.5-0.7c-0.2-0.1-0.3-0.2-0.4-0.2
							v-0.2c0.1-0.2,0.1-0.5,0.2-0.7c0.1-0.4,0.1-0.4,0.5-0.3c0.3,0,0.5,0,0.6-0.2c0.3-0.3,0.5-0.6,0.3-1.1
							c-0.1-0.3-0.1-0.3,0.2-0.5c0.2-0.1,0.5-0.2,0.7-0.4c0.2-0.1,0.4-0.1,0.5,0.1c0.3,0.4,0.7,0.4,1.1,0.3c0.3-0.1,0.4-0.2,0.5-0.5
							C1383.1-148.4,1383.2-148.5,1383.3-148.6 M1382.9-142c1.3,0,2.3-1,2.3-2.3c0-1.3-1-2.3-2.3-2.3c-1.3,0-2.3,1-2.3,2.3
							C1380.6-143.1,1381.6-142,1382.9-142"/>
						<path id="XMLID_489_" class="st5" d="M1374-31.4h-126.5c-2.5,0-4.6-2-4.6-4.6v-38.8c0-2.5,2-4.6,4.6-4.6H1374
							c2.5,0,4.6,2,4.6,4.6v38.8C1378.5-33.4,1376.5-31.4,1374-31.4"/>
					</g>
					<g id="XMLID_487_" class="st1">
						
							<text transform="matrix(1 0 0 1 1268.2401 -51.9536)" style="fill:#FFFFFF; font-family:'Roboto-Medium'; font-size:11.5042px;">Debug this thing</text>
					</g>
					<g class="st1">
						<defs>
							<rect id="XMLID_480_" x="1229" y="-152.3" width="657" height="338.5"/>
						</defs>
						<clipPath id="XMLID_516_">
							<use xlink:href="#XMLID_480_"  style="overflow:visible;"/>
						</clipPath>
						<path class="st7" d="M1347.3-73.8v-0.6c0,0,0,0,0-0.1c0.2-1.2,1.1-2.1,2.3-2.2c1.4-0.1,2.6,0.9,2.8,2.3
							c0.1,1.2-0.7,2.4-1.9,2.7c-0.1,0-0.2,0.1-0.3,0.1h-0.6c0,0,0,0-0.1,0c-1.1-0.2-1.8-0.8-2.1-1.8
							C1347.3-73.6,1347.3-73.7,1347.3-73.8 M1349.8-76.3c-1.2,0-2.2,1-2.2,2.2c0,1.2,1,2.2,2.2,2.2c1.2,0,2.2-1,2.2-2.2
							C1352-75.3,1351-76.3,1349.8-76.3"/>
						<path class="st8" d="M1347.3-73.8v-0.6c0,0,0,0,0-0.1c0.2-1.2,1.1-2.1,2.3-2.2c1.4-0.1,2.6,0.9,2.8,2.3
							c0.1,1.2-0.7,2.4-1.9,2.7c-0.1,0-0.2,0.1-0.3,0.1h-0.6c0,0,0,0-0.1,0c-1.1-0.2-1.8-0.8-2.1-1.8
							C1347.3-73.6,1347.3-73.7,1347.3-73.8z M1349.8-76.3c-1.2,0-2.2,1-2.2,2.2c0,1.2,1,2.2,2.2,2.2c1.2,0,2.2-1,2.2-2.2
							C1352-75.3,1351-76.3,1349.8-76.3z"/>
						<path id="XMLID_482_" class="st7" d="M1349.5-74.7c0-0.3,0-0.5,0-0.8c0-0.1,0.1-0.2,0.2-0.2c0.1,0,0.2,0.1,0.2,0.2
							c0,0.4,0,0.9,0.1,1.3c0,0.1,0,0.1,0.1,0.2c0.3,0.3,0.5,0.6,0.8,0.9c0.1,0.1,0.1,0.2,0,0.2c0,0.1-0.1,0.1-0.2,0.1
							c0,0-0.1,0-0.1-0.1c-0.3-0.3-0.7-0.6-1-0.9c-0.1-0.1-0.1-0.2-0.1-0.3C1349.5-74.3,1349.5-74.5,1349.5-74.7
							C1349.5-74.7,1349.5-74.7,1349.5-74.7"/>
						<path id="XMLID_481_" class="st8" d="M1349.5-74.7c0-0.3,0-0.5,0-0.8c0-0.1,0.1-0.2,0.2-0.2c0.1,0,0.2,0.1,0.2,0.2
							c0,0.4,0,0.9,0.1,1.3c0,0.1,0,0.1,0.1,0.2c0.3,0.3,0.5,0.6,0.8,0.9c0.1,0.1,0.1,0.2,0,0.2c0,0.1-0.1,0.1-0.2,0.1
							c0,0-0.1,0-0.1-0.1c-0.3-0.3-0.7-0.6-1-0.9c-0.1-0.1-0.1-0.2-0.1-0.3C1349.5-74.3,1349.5-74.5,1349.5-74.7
							C1349.5-74.7,1349.5-74.7,1349.5-74.7z"/>
					</g>
					<g id="XMLID_479_" class="st1">
						
							<text transform="matrix(1 0 0 1 1354.0321 -71.8164)" style="fill:#FFFFFF; font-family:'RobotoCondensed-Bold'; font-size:6.2728px;">1h 15m</text>
					</g>
					<g class="st1">
						<defs>
							<rect id="XMLID_477_" x="1229" y="-152.3" width="657" height="338.5"/>
						</defs>
						<clipPath id="XMLID_517_">
							<use xlink:href="#XMLID_477_"  style="overflow:visible;"/>
						</clipPath>
						<path id="XMLID_478_" class="st9" d="M1374,18.8h-126.5c-2.5,0-4.6-2-4.6-4.6v-38.8c0-2.5,2-4.6,4.6-4.6H1374
							c2.5,0,4.6,2,4.6,4.6v38.8C1378.5,16.8,1376.5,18.8,1374,18.8"/>
					</g>
					<g id="XMLID_476_" class="st1">
						
							<text transform="matrix(1 0 0 1 1268.3641 -1.7661)" style="fill:#FFFFFF; font-family:'Roboto-Medium'; font-size:11.5042px;">Implement thing</text>
					</g>
					<g class="st1">
						<defs>
							<rect id="XMLID_469_" x="1229" y="-152.3" width="657" height="338.5"/>
						</defs>
						<clipPath id="XMLID_518_">
							<use xlink:href="#XMLID_469_"  style="overflow:visible;"/>
						</clipPath>
						<path class="st10" d="M1347.3-23.7v-0.6c0,0,0,0,0-0.1c0.2-1.2,1.1-2.1,2.3-2.2c1.4-0.1,2.6,0.9,2.8,2.3
							c0.1,1.2-0.7,2.4-1.9,2.7c-0.1,0-0.2,0.1-0.3,0.1h-0.6c0,0,0,0-0.1,0c-1.1-0.2-1.8-0.8-2.1-1.8
							C1347.3-23.4,1347.3-23.5,1347.3-23.7 M1349.8-26.1c-1.2,0-2.2,1-2.2,2.2c0,1.2,1,2.2,2.2,2.2c1.2,0,2.2-1,2.2-2.2
							C1352-25.1,1351-26.1,1349.8-26.1"/>
						<path class="st11" d="M1347.3-23.7v-0.6c0,0,0,0,0-0.1c0.2-1.2,1.1-2.1,2.3-2.2c1.4-0.1,2.6,0.9,2.8,2.3
							c0.1,1.2-0.7,2.4-1.9,2.7c-0.1,0-0.2,0.1-0.3,0.1h-0.6c0,0,0,0-0.1,0c-1.1-0.2-1.8-0.8-2.1-1.8
							C1347.3-23.4,1347.3-23.5,1347.3-23.7z M1349.8-26.1c-1.2,0-2.2,1-2.2,2.2c0,1.2,1,2.2,2.2,2.2c1.2,0,2.2-1,2.2-2.2
							C1352-25.1,1351-26.1,1349.8-26.1z"/>
						<path id="XMLID_471_" class="st10" d="M1349.5-24.6c0-0.3,0-0.5,0-0.8c0-0.1,0.1-0.2,0.2-0.2c0.1,0,0.2,0.1,0.2,0.2
							c0,0.4,0,0.9,0.1,1.3c0,0.1,0,0.1,0.1,0.2c0.3,0.3,0.5,0.6,0.8,0.9c0.1,0.1,0.1,0.2,0,0.2c0,0.1-0.1,0.1-0.2,0.1
							c0,0-0.1,0-0.1-0.1c-0.3-0.3-0.7-0.6-1-0.9c-0.1-0.1-0.1-0.2-0.1-0.3C1349.5-24.1,1349.5-24.3,1349.5-24.6
							C1349.5-24.6,1349.5-24.6,1349.5-24.6"/>
						<path id="XMLID_470_" class="st11" d="M1349.5-24.6c0-0.3,0-0.5,0-0.8c0-0.1,0.1-0.2,0.2-0.2c0.1,0,0.2,0.1,0.2,0.2
							c0,0.4,0,0.9,0.1,1.3c0,0.1,0,0.1,0.1,0.2c0.3,0.3,0.5,0.6,0.8,0.9c0.1,0.1,0.1,0.2,0,0.2c0,0.1-0.1,0.1-0.2,0.1
							c0,0-0.1,0-0.1-0.1c-0.3-0.3-0.7-0.6-1-0.9c-0.1-0.1-0.1-0.2-0.1-0.3C1349.5-24.1,1349.5-24.3,1349.5-24.6
							C1349.5-24.6,1349.5-24.6,1349.5-24.6z"/>
					</g>
					<g id="XMLID_468_" class="st1">
						
							<text transform="matrix(1 0 0 1 1354.0321 -21.6289)" style="fill:#FFFFFF; font-family:'RobotoCondensed-Bold'; font-size:6.2728px;">1h 15m</text>
					</g>
					<g class="st1">
						<defs>
							<rect id="XMLID_466_" x="1229" y="-152.3" width="657" height="338.5"/>
						</defs>
						<clipPath id="XMLID_519_">
							<use xlink:href="#XMLID_466_"  style="overflow:visible;"/>
						</clipPath>
						<path id="XMLID_467_" class="st12" d="M1374,69h-126.5c-2.5,0-4.6-2-4.6-4.6V25.7c0-2.5,2-4.6,4.6-4.6H1374
							c2.5,0,4.6,2,4.6,4.6v38.8C1378.5,67,1376.5,69,1374,69"/>
					</g>
					<g id="XMLID_465_" class="st1">
						
							<text transform="matrix(1 0 0 1 1289.6874 48.4214)" style="fill:#FFFFFF; font-family:'Roboto-Medium'; font-size:11.5042px;">Meeting</text>
					</g>
					<g class="st1">
						<defs>
							<rect id="XMLID_458_" x="1229" y="-152.3" width="657" height="338.5"/>
						</defs>
						<clipPath id="XMLID_520_">
							<use xlink:href="#XMLID_458_"  style="overflow:visible;"/>
						</clipPath>
						<path class="st13" d="M1347.3,26.5V26c0,0,0,0,0-0.1c0.2-1.2,1.1-2.1,2.3-2.2c1.4-0.1,2.6,0.9,2.8,2.3
							c0.1,1.2-0.7,2.4-1.9,2.7c-0.1,0-0.2,0.1-0.3,0.1h-0.6c0,0,0,0-0.1,0c-1.1-0.2-1.8-0.8-2.1-1.8
							C1347.3,26.8,1347.3,26.7,1347.3,26.5 M1349.8,24.1c-1.2,0-2.2,1-2.2,2.2c0,1.2,1,2.2,2.2,2.2c1.2,0,2.2-1,2.2-2.2
							C1352,25.1,1351,24.1,1349.8,24.1"/>
						<path class="st14" d="M1347.3,26.5V26c0,0,0,0,0-0.1c0.2-1.2,1.1-2.1,2.3-2.2c1.4-0.1,2.6,0.9,2.8,2.3
							c0.1,1.2-0.7,2.4-1.9,2.7c-0.1,0-0.2,0.1-0.3,0.1h-0.6c0,0,0,0-0.1,0c-1.1-0.2-1.8-0.8-2.1-1.8
							C1347.3,26.8,1347.3,26.7,1347.3,26.5z M1349.8,24.1c-1.2,0-2.2,1-2.2,2.2c0,1.2,1,2.2,2.2,2.2c1.2,0,2.2-1,2.2-2.2
							C1352,25.1,1351,24.1,1349.8,24.1z"/>
						<path id="XMLID_460_" class="st13" d="M1349.5,25.6c0-0.3,0-0.5,0-0.8c0-0.1,0.1-0.2,0.2-0.2c0.1,0,0.2,0.1,0.2,0.2
							c0,0.4,0,0.9,0.1,1.3c0,0.1,0,0.1,0.1,0.2c0.3,0.3,0.5,0.6,0.8,0.9c0.1,0.1,0.1,0.2,0,0.2c0,0.1-0.1,0.1-0.2,0.1
							c0,0-0.1,0-0.1-0.1c-0.3-0.3-0.7-0.6-1-0.9c-0.1-0.1-0.1-0.2-0.1-0.3C1349.5,26.1,1349.5,25.9,1349.5,25.6
							C1349.5,25.6,1349.5,25.6,1349.5,25.6"/>
						<path id="XMLID_459_" class="st14" d="M1349.5,25.6c0-0.3,0-0.5,0-0.8c0-0.1,0.1-0.2,0.2-0.2c0.1,0,0.2,0.1,0.2,0.2
							c0,0.4,0,0.9,0.1,1.3c0,0.1,0,0.1,0.1,0.2c0.3,0.3,0.5,0.6,0.8,0.9c0.1,0.1,0.1,0.2,0,0.2c0,0.1-0.1,0.1-0.2,0.1
							c0,0-0.1,0-0.1-0.1c-0.3-0.3-0.7-0.6-1-0.9c-0.1-0.1-0.1-0.2-0.1-0.3C1349.5,26.1,1349.5,25.9,1349.5,25.6
							C1349.5,25.6,1349.5,25.6,1349.5,25.6z"/>
					</g>
					<g id="XMLID_457_" class="st1">
						
							<text transform="matrix(1 0 0 1 1357.8856 28.5586)" style="fill:#FFFFFF; font-family:'RobotoCondensed-Bold'; font-size:6.2728px;">45m</text>
					</g>
					<g class="st1">
						<defs>
							<rect id="XMLID_455_" x="1229" y="-152.3" width="657" height="338.5"/>
						</defs>
						<clipPath id="XMLID_521_">
							<use xlink:href="#XMLID_455_"  style="overflow:visible;"/>
						</clipPath>
						<path id="XMLID_456_" class="st15" d="M1374,119.2h-126.5c-2.5,0-4.6-2-4.6-4.6V75.9c0-2.5,2-4.6,4.6-4.6H1374
							c2.5,0,4.6,2,4.6,4.6v38.8C1378.5,117.2,1376.5,119.2,1374,119.2"/>
					</g>
					<g id="XMLID_454_" class="st1">
						<text transform="matrix(1 0 0 1 1294.785 98.6094)"><tspan x="0" y="0" style="fill:#FFFFFF; font-family:'Roboto-Medium'; font-size:11.5042px;">L</tspan><tspan x="6.3" y="0" style="fill:#FFFFFF; font-family:'Roboto-Medium'; font-size:11.5042px;">unch</tspan></text>
					</g>
					<g class="st1">
						<defs>
							<rect id="XMLID_447_" x="1229" y="-152.3" width="657" height="338.5"/>
						</defs>
						<clipPath id="XMLID_522_">
							<use xlink:href="#XMLID_447_"  style="overflow:visible;"/>
						</clipPath>
						<path class="st16" d="M1347.3,76.7v-0.6c0,0,0,0,0-0.1c0.2-1.2,1.1-2.1,2.3-2.2c1.4-0.1,2.6,0.9,2.8,2.3
							c0.1,1.2-0.7,2.4-1.9,2.7c-0.1,0-0.2,0.1-0.3,0.1h-0.6c0,0,0,0-0.1,0c-1.1-0.2-1.8-0.8-2.1-1.8
							C1347.3,77,1347.3,76.9,1347.3,76.7 M1349.8,74.3c-1.2,0-2.2,1-2.2,2.2c0,1.2,1,2.2,2.2,2.2c1.2,0,2.2-1,2.2-2.2
							C1352,75.2,1351,74.3,1349.8,74.3"/>
						<path class="st17" d="M1347.3,76.7v-0.6c0,0,0,0,0-0.1c0.2-1.2,1.1-2.1,2.3-2.2c1.4-0.1,2.6,0.9,2.8,2.3
							c0.1,1.2-0.7,2.4-1.9,2.7c-0.1,0-0.2,0.1-0.3,0.1h-0.6c0,0,0,0-0.1,0c-1.1-0.2-1.8-0.8-2.1-1.8
							C1347.3,77,1347.3,76.9,1347.3,76.7z M1349.8,74.3c-1.2,0-2.2,1-2.2,2.2c0,1.2,1,2.2,2.2,2.2c1.2,0,2.2-1,2.2-2.2
							C1352,75.2,1351,74.3,1349.8,74.3z"/>
						<path id="XMLID_449_" class="st16" d="M1349.5,75.8c0-0.3,0-0.5,0-0.8c0-0.1,0.1-0.2,0.2-0.2c0.1,0,0.2,0.1,0.2,0.2
							c0,0.4,0,0.9,0.1,1.3c0,0.1,0,0.1,0.1,0.2c0.3,0.3,0.5,0.6,0.8,0.9c0.1,0.1,0.1,0.2,0,0.2c0,0.1-0.1,0.1-0.2,0.1
							c0,0-0.1,0-0.1-0.1c-0.3-0.3-0.7-0.6-1-0.9c-0.1-0.1-0.1-0.2-0.1-0.3C1349.5,76.3,1349.5,76.1,1349.5,75.8
							C1349.5,75.8,1349.5,75.8,1349.5,75.8"/>
						<path id="XMLID_448_" class="st17" d="M1349.5,75.8c0-0.3,0-0.5,0-0.8c0-0.1,0.1-0.2,0.2-0.2c0.1,0,0.2,0.1,0.2,0.2
							c0,0.4,0,0.9,0.1,1.3c0,0.1,0,0.1,0.1,0.2c0.3,0.3,0.5,0.6,0.8,0.9c0.1,0.1,0.1,0.2,0,0.2c0,0.1-0.1,0.1-0.2,0.1
							c0,0-0.1,0-0.1-0.1c-0.3-0.3-0.7-0.6-1-0.9c-0.1-0.1-0.1-0.2-0.1-0.3C1349.5,76.3,1349.5,76.1,1349.5,75.8
							C1349.5,75.8,1349.5,75.8,1349.5,75.8z"/>
					</g>
					<g id="XMLID_446_" class="st1">
						
							<text transform="matrix(1 0 0 1 1357.8856 78.7461)" style="fill:#FFFFFF; font-family:'RobotoCondensed-Bold'; font-size:6.2728px;">30m</text>
					</g>
					<g class="st1">
						<defs>
							<rect id="XMLID_444_" x="1229" y="-152.3" width="657" height="338.5"/>
						</defs>
						<clipPath id="XMLID_523_">
							<use xlink:href="#XMLID_444_"  style="overflow:visible;"/>
						</clipPath>
						<path id="XMLID_445_" class="st18" d="M1374,169.4h-126.5c-2.5,0-4.6-2-4.6-4.6V126c0-2.5,2-4.6,4.6-4.6H1374
							c2.5,0,4.6,2,4.6,4.6v38.8C1378.5,167.3,1376.5,169.4,1374,169.4"/>
					</g>
					<g id="XMLID_443_" class="st1">
						<text transform="matrix(1 0 0 1 1266.0575 148.7969)"><tspan x="0" y="0" style="fill:#FFFFFF; font-family:'Roboto-Medium'; font-size:11.5042px;">Memes B</tspan><tspan x="48.2" y="0" style="fill:#FFFFFF; font-family:'Roboto-Medium'; font-size:11.5042px;">r</tspan><tspan x="52.2" y="0" style="fill:#FFFFFF; font-family:'Roboto-Medium'; font-size:11.5042px;">owsing</tspan></text>
					</g>
					<g class="st1">
						<defs>
							<rect id="XMLID_436_" x="1229" y="-152.3" width="657" height="338.5"/>
						</defs>
						<clipPath id="XMLID_524_">
							<use xlink:href="#XMLID_436_"  style="overflow:visible;"/>
						</clipPath>
						<path class="st19" d="M1347.3,126.9v-0.6c0,0,0,0,0-0.1c0.2-1.2,1.1-2.1,2.3-2.2c1.4-0.1,2.6,0.9,2.8,2.3
							c0.1,1.2-0.7,2.4-1.9,2.7c-0.1,0-0.2,0.1-0.3,0.1h-0.6c0,0,0,0-0.1,0c-1.1-0.2-1.8-0.8-2.1-1.8
							C1347.3,127.2,1347.3,127.1,1347.3,126.9 M1349.8,124.5c-1.2,0-2.2,1-2.2,2.2c0,1.2,1,2.2,2.2,2.2c1.2,0,2.2-1,2.2-2.2
							C1352,125.4,1351,124.5,1349.8,124.5"/>
						<path class="st20" d="M1347.3,126.9v-0.6c0,0,0,0,0-0.1c0.2-1.2,1.1-2.1,2.3-2.2c1.4-0.1,2.6,0.9,2.8,2.3
							c0.1,1.2-0.7,2.4-1.9,2.7c-0.1,0-0.2,0.1-0.3,0.1h-0.6c0,0,0,0-0.1,0c-1.1-0.2-1.8-0.8-2.1-1.8
							C1347.3,127.2,1347.3,127.1,1347.3,126.9z M1349.8,124.5c-1.2,0-2.2,1-2.2,2.2c0,1.2,1,2.2,2.2,2.2c1.2,0,2.2-1,2.2-2.2
							C1352,125.4,1351,124.5,1349.8,124.5z"/>
						<path id="XMLID_438_" class="st19" d="M1349.5,126c0-0.3,0-0.5,0-0.8c0-0.1,0.1-0.2,0.2-0.2c0.1,0,0.2,0.1,0.2,0.2
							c0,0.4,0,0.9,0.1,1.3c0,0.1,0,0.1,0.1,0.2c0.3,0.3,0.5,0.6,0.8,0.9c0.1,0.1,0.1,0.2,0,0.2c0,0.1-0.1,0.1-0.2,0.1
							c0,0-0.1,0-0.1-0.1c-0.3-0.3-0.7-0.6-1-0.9c-0.1-0.1-0.1-0.2-0.1-0.3C1349.5,126.5,1349.5,126.2,1349.5,126
							C1349.5,126,1349.5,126,1349.5,126"/>
						<path id="XMLID_437_" class="st20" d="M1349.5,126c0-0.3,0-0.5,0-0.8c0-0.1,0.1-0.2,0.2-0.2c0.1,0,0.2,0.1,0.2,0.2
							c0,0.4,0,0.9,0.1,1.3c0,0.1,0,0.1,0.1,0.2c0.3,0.3,0.5,0.6,0.8,0.9c0.1,0.1,0.1,0.2,0,0.2c0,0.1-0.1,0.1-0.2,0.1
							c0,0-0.1,0-0.1-0.1c-0.3-0.3-0.7-0.6-1-0.9c-0.1-0.1-0.1-0.2-0.1-0.3C1349.5,126.5,1349.5,126.2,1349.5,126
							C1349.5,126,1349.5,126,1349.5,126z"/>
					</g>
					<g id="XMLID_435_" class="st1">
						
							<text transform="matrix(1 0 0 1 1354.0321 128.9336)" style="fill:#FFFFFF; font-family:'RobotoCondensed-Bold'; font-size:6.2728px;">1h 45m</text>
					</g>
					<g class="st1">
						<defs>
							<rect id="XMLID_428_" x="1229" y="-152.3" width="657" height="338.5"/>
						</defs>
						<clipPath id="XMLID_525_">
							<use xlink:href="#XMLID_428_"  style="overflow:visible;"/>
						</clipPath>
						<path class="st21" d="M1370.1-41.4h1.9c0.2,0.2,0.4,0.4,0.5,0.6c0,0.1,0.1,0.1,0.1,0.2c0.1,0.3,0.2,0.3,0.5,0.3
							c0.3,0,0.6,0,0.9,0c0.2,0,0.3,0.1,0.3,0.3c0,0.2-0.1,0.3-0.3,0.3c-0.1,0-0.2,0-0.3,0v0.3c0,1.3,0,2.6,0,3.9
							c0,0.5-0.1,0.8-0.6,1h-4.2c-0.4-0.2-0.6-0.6-0.6-1c0-1.3,0-2.6,0-4v-0.3c-0.1,0-0.2,0-0.3,0c-0.2,0-0.3-0.1-0.3-0.3
							c0-0.2,0.1-0.3,0.3-0.3c0.3,0,0.7,0,1,0c0.2,0,0.4-0.1,0.4-0.3C1369.6-40.8,1369.7-41.2,1370.1-41.4 M1368.9-39.6
							c0,1.5,0,2.9,0,4.4c0,0.2,0.1,0.3,0.3,0.3c1.1,0,2.2,0,3.3,0c0.5,0,0.5,0,0.5-0.5c0-1.3,0-2.6,0-4c0-0.1,0-0.2,0-0.2H1368.9z
							 M1372-40.2c-0.1-0.5-0.1-0.6-0.6-0.6c-0.2,0-0.5,0-0.7,0c-0.5,0-0.6,0-0.6,0.6H1372z"/>
						<path id="XMLID_431_" class="st21" d="M1370.1-37.2c0,0.4,0,0.8,0,1.2c0,0.2-0.1,0.3-0.3,0.3c-0.2,0-0.3,0-0.3-0.2
							c0-0.8,0-1.6,0-2.4c0-0.2,0.1-0.3,0.3-0.3c0.2,0,0.3,0.1,0.3,0.3C1370.1-38,1370.1-37.6,1370.1-37.2"/>
						<path id="XMLID_430_" class="st21" d="M1371.9-37.3c0-0.4,0-0.8,0-1.2c0-0.2,0-0.3,0.3-0.3c0.2,0,0.3,0,0.3,0.3
							c0,0.8,0,1.6,0,2.4c0,0.2-0.1,0.3-0.3,0.3c-0.2,0-0.3-0.1-0.3-0.3C1371.9-36.5,1371.9-36.9,1371.9-37.3"/>
						<path id="XMLID_429_" class="st21" d="M1370.7-37.3c0-0.4,0-0.8,0-1.2c0-0.2,0.1-0.3,0.3-0.3c0.2,0,0.3,0.1,0.3,0.3
							c0,0.8,0,1.6,0,2.4c0,0.2-0.1,0.3-0.3,0.3c-0.2,0-0.3-0.1-0.3-0.3C1370.7-36.5,1370.7-36.9,1370.7-37.3"/>
					</g>
					<g id="XMLID_427_" class="st1">
						
							<text transform="matrix(1 0 0 1 1258.7255 -34.3965)" style="fill:#FFFFFF; font-family:'RobotoCondensed-Bold'; font-size:8.3341px;">...</text>
					</g>
					<g class="st1">
						<defs>
							<rect id="XMLID_423_" x="1229" y="-152.3" width="657" height="338.5"/>
						</defs>
						<clipPath id="XMLID_526_">
							<use xlink:href="#XMLID_423_"  style="overflow:visible;"/>
						</clipPath>
						<path id="XMLID_426_" class="st22" d="M1253-33.7h-3.4c-1,0-1.8-0.8-1.8-1.8v-3.4c0-1,0.8-1.8,1.8-1.8h3.4
							c1,0,1.8,0.8,1.8,1.8v3.4C1254.8-34.5,1254-33.7,1253-33.7"/>
						<rect id="XMLID_425_" x="1248.9" y="-38.1" class="st23" width="4.9" height="3.4"/>
						<polygon id="XMLID_424_" class="st24" points="1250.2,-38.8 1252.4,-38.8 1251.3,-40.3 						"/>
					</g>
					<rect id="XMLID_422_" x="1430.3" y="-131.2" class="st3" width="151.7" height="46.8"/>
					<path class="st25" d="M1581.9-84.5h-151.5v-46.5h151.5V-84.5z M1582.2-131.3h-151.9v47h151.9V-131.3z"/>
					<line id="XMLID_419_" class="st26" x1="1430.2" y1="-107.8" x2="1582.2" y2="-107.8"/>
					<rect id="XMLID_418_" x="1582.3" y="-131.2" class="st3" width="151.7" height="46.8"/>
					<path class="st25" d="M1733.9-84.5h-151.5v-46.5h151.5V-84.5z M1734.1-131.3h-151.9v47h151.9V-131.3z"/>
					<line id="XMLID_415_" class="st26" x1="1582.2" y1="-107.8" x2="1734.1" y2="-107.8"/>
					<rect id="XMLID_414_" x="1734.2" y="-131.2" class="st3" width="151.7" height="46.8"/>
					<path class="st25" d="M1734.3-131.1h151.5v46.5h-151.5V-131.1z M1734.1-84.3H1886v-47h-151.9V-84.3z"/>
					<g class="st1">
						<defs>
							<rect id="XMLID_410_" x="1229" y="-152.3" width="657" height="338.5"/>
						</defs>
						<clipPath id="XMLID_527_">
							<use xlink:href="#XMLID_410_"  style="overflow:visible;"/>
						</clipPath>
						<line id="XMLID_411_" class="st27" x1="1734.1" y1="-107.8" x2="1886" y2="-107.8"/>
					</g>
					<rect id="XMLID_409_" x="1430.3" y="-84.4" class="st3" width="151.7" height="47"/>
					<path class="st25" d="M1581.9-37.5h-151.5v-46.7h151.5V-37.5z M1582.2-84.5h-151.9v47.2h151.9V-84.5z"/>
					<line id="XMLID_406_" class="st26" x1="1430.2" y1="-60.9" x2="1582.2" y2="-60.9"/>
					<rect id="XMLID_405_" x="1582.3" y="-84.4" class="st3" width="151.7" height="47"/>
					<path class="st25" d="M1733.9-37.5h-151.5v-46.7h151.5V-37.5z M1734.1-84.5h-151.9v47.2h151.9V-84.5z"/>
					<line id="XMLID_402_" class="st26" x1="1582.2" y1="-60.9" x2="1734.1" y2="-60.9"/>
					<rect id="XMLID_401_" x="1734.2" y="-84.4" class="st3" width="151.7" height="47"/>
					<path class="st25" d="M1734.3-84.3h151.5v46.7h-151.5V-84.3z M1734.1-37.3H1886v-47.2h-151.9V-37.3z"/>
					<g class="st1">
						<defs>
							<rect id="XMLID_397_" x="1229" y="-152.3" width="657" height="338.5"/>
						</defs>
						<clipPath id="XMLID_528_">
							<use xlink:href="#XMLID_397_"  style="overflow:visible;"/>
						</clipPath>
						<line id="XMLID_398_" class="st28" x1="1734.1" y1="-60.9" x2="1886" y2="-60.9"/>
					</g>
					<rect id="XMLID_396_" x="1430.3" y="-37.2" class="st3" width="151.7" height="46.8"/>
					<path class="st25" d="M1581.9,9.5h-151.5v-46.5h151.5V9.5z M1582.2-37.3h-151.9v47h151.9V-37.3z"/>
					<line id="XMLID_393_" class="st26" x1="1430.2" y1="-13.8" x2="1582.2" y2="-13.8"/>
					<rect id="XMLID_392_" x="1582.3" y="-37.2" class="st3" width="151.7" height="46.8"/>
					<path class="st25" d="M1733.9,9.5h-151.5v-46.5h151.5V9.5z M1734.1-37.3h-151.9v47h151.9V-37.3z"/>
					<line id="XMLID_389_" class="st26" x1="1582.2" y1="-13.8" x2="1734.1" y2="-13.8"/>
					<rect id="XMLID_388_" x="1734.2" y="-37.2" class="st3" width="151.7" height="46.8"/>
					<path class="st25" d="M1734.3-37.1h151.5V9.5h-151.5V-37.1z M1734.1,9.7H1886v-47h-151.9V9.7z"/>
					<g class="st1">
						<defs>
							<rect id="XMLID_384_" x="1229" y="-152.3" width="657" height="338.5"/>
						</defs>
						<clipPath id="XMLID_529_">
							<use xlink:href="#XMLID_384_"  style="overflow:visible;"/>
						</clipPath>
						<line id="XMLID_385_" class="st29" x1="1734.1" y1="-13.8" x2="1886" y2="-13.8"/>
					</g>
					<rect id="XMLID_383_" x="1430.3" y="9.8" class="st3" width="151.7" height="46.8"/>
					<path class="st25" d="M1581.9,56.4h-151.5V9.9h151.5V56.4z M1582.2,9.7h-151.9v47h151.9V9.7z"/>
					<line id="XMLID_380_" class="st26" x1="1430.2" y1="33.2" x2="1582.2" y2="33.2"/>
					<rect id="XMLID_379_" x="1582.3" y="9.8" class="st3" width="151.7" height="46.8"/>
					<path class="st25" d="M1733.9,56.4h-151.5V9.9h151.5V56.4z M1734.1,9.7h-151.9v47h151.9V9.7z"/>
					<line id="XMLID_376_" class="st26" x1="1582.2" y1="33.2" x2="1734.1" y2="33.2"/>
					<rect id="XMLID_375_" x="1734.2" y="9.8" class="st3" width="151.7" height="46.8"/>
					<path class="st25" d="M1734.3,9.9h151.5v46.5h-151.5V9.9z M1734.1,56.7H1886v-47h-151.9V56.7z"/>
					<g class="st1">
						<defs>
							<rect id="XMLID_371_" x="1229" y="-152.3" width="657" height="338.5"/>
						</defs>
						<clipPath id="XMLID_530_">
							<use xlink:href="#XMLID_371_"  style="overflow:visible;"/>
						</clipPath>
						<line id="XMLID_372_" class="st30" x1="1734.1" y1="33.2" x2="1886" y2="33.2"/>
					</g>
					<rect id="XMLID_370_" x="1430.3" y="56.8" class="st3" width="151.7" height="46.8"/>
					<path class="st25" d="M1581.9,103.5h-151.5V56.9h151.5V103.5z M1582.2,56.7h-151.9v47h151.9V56.7z"/>
					<line id="XMLID_367_" class="st26" x1="1430.2" y1="80.2" x2="1582.2" y2="80.2"/>
					<rect id="XMLID_366_" x="1582.3" y="56.8" class="st3" width="151.7" height="46.8"/>
					<path class="st25" d="M1733.9,103.5h-151.5V56.9h151.5V103.5z M1734.1,56.7h-151.9v47h151.9V56.7z"/>
					<line id="XMLID_363_" class="st26" x1="1582.2" y1="80.2" x2="1734.1" y2="80.2"/>
					<rect id="XMLID_362_" x="1734.2" y="56.8" class="st3" width="151.7" height="46.8"/>
					<path class="st25" d="M1734.3,56.9h151.5v46.5h-151.5V56.9z M1734.1,103.7H1886v-47h-151.9V103.7z"/>
					<g class="st1">
						<defs>
							<rect id="XMLID_358_" x="1229" y="-152.3" width="657" height="338.5"/>
						</defs>
						<clipPath id="XMLID_531_">
							<use xlink:href="#XMLID_358_"  style="overflow:visible;"/>
						</clipPath>
						<line id="XMLID_359_" class="st31" x1="1734.1" y1="80.2" x2="1886" y2="80.2"/>
					</g>
					<rect id="XMLID_357_" x="1430.3" y="103.8" class="st3" width="151.7" height="46.8"/>
					<path class="st25" d="M1581.9,150.5h-151.5v-46.5h151.5V150.5z M1582.2,103.7h-151.9v47h151.9V103.7z"/>
					<line id="XMLID_354_" class="st26" x1="1430.2" y1="127.2" x2="1582.2" y2="127.2"/>
					<rect id="XMLID_353_" x="1582.3" y="103.8" class="st3" width="151.7" height="46.8"/>
					<path class="st25" d="M1733.9,150.5h-151.5v-46.5h151.5V150.5z M1734.1,103.7h-151.9v47h151.9V103.7z"/>
					<line id="XMLID_350_" class="st26" x1="1582.2" y1="127.2" x2="1734.1" y2="127.2"/>
					<rect id="XMLID_349_" x="1734.2" y="103.8" class="st3" width="151.7" height="46.8"/>
					<path class="st25" d="M1734.3,103.9h151.5v46.5h-151.5V103.9z M1734.1,150.7H1886v-47h-151.9V150.7z"/>
					<g class="st1">
						<defs>
							<rect id="XMLID_345_" x="1229" y="-152.3" width="657" height="338.5"/>
						</defs>
						<clipPath id="XMLID_532_">
							<use xlink:href="#XMLID_345_"  style="overflow:visible;"/>
						</clipPath>
						<line id="XMLID_346_" class="st32" x1="1734.1" y1="127.2" x2="1886" y2="127.2"/>
					</g>
					<rect id="XMLID_344_" x="1430.3" y="150.7" class="st3" width="151.7" height="35.4"/>
					<path class="st25" d="M1430.5,150.9h151.5V186h-151.5V150.9z M1430.2,186.3h151.9v-35.6h-151.9V186.3z"/>
					<line id="XMLID_341_" class="st26" x1="1430.2" y1="174.1" x2="1582.2" y2="174.1"/>
					<rect id="XMLID_340_" x="1582.3" y="150.7" class="st3" width="151.7" height="35.4"/>
					<path class="st25" d="M1582.4,150.9h151.5V186h-151.5V150.9z M1582.2,186.3h151.9v-35.6h-151.9V186.3z"/>
					<line id="XMLID_337_" class="st26" x1="1582.2" y1="174.1" x2="1734.1" y2="174.1"/>
					<rect id="XMLID_336_" x="1734.2" y="150.7" class="st3" width="151.7" height="35.4"/>
					<path class="st25" d="M1734.3,150.9h151.5V186h-151.5V150.9z M1734.1,186.3H1886v-35.6h-151.9V186.3z"/>
					<g class="st1">
						<defs>
							<rect id="XMLID_332_" x="1229" y="-152.3" width="657" height="338.5"/>
						</defs>
						<clipPath id="XMLID_533_">
							<use xlink:href="#XMLID_332_"  style="overflow:visible;"/>
						</clipPath>
						<line id="XMLID_333_" class="st33" x1="1734.1" y1="174.1" x2="1886" y2="174.1"/>
					</g>
					<g class="st1">
						<defs>
							<rect id="XMLID_330_" x="1229" y="-152.3" width="657" height="338.5"/>
						</defs>
						<clipPath id="XMLID_534_">
							<use xlink:href="#XMLID_330_"  style="overflow:visible;"/>
						</clipPath>
						<path id="XMLID_331_" class="st34" d="M1569.5-39.4h-126.5c-2.5,0-4.6-2-4.6-4.6v-34.2c0-2.5,2-4.6,4.6-4.6h126.5
							c2.5,0,4.6,2,4.6,4.6V-44C1574-41.5,1572-39.4,1569.5-39.4"/>
					</g>
					<g id="XMLID_329_" class="st1">
						
							<text transform="matrix(1.1053 0 0 1 1463.8671 -58.0527)" style="fill:#FFFFFF; font-family:'Roboto-Medium'; font-size:10.4086px;">Implement thing</text>
					</g>
					<g class="st1">
						<defs>
							<rect id="XMLID_322_" x="1229" y="-152.3" width="657" height="338.5"/>
						</defs>
						<clipPath id="XMLID_535_">
							<use xlink:href="#XMLID_322_"  style="overflow:visible;"/>
						</clipPath>
						<path class="st35" d="M1542.8-77.9v-0.5c0,0,0,0,0-0.1c0.2-1.1,1.1-1.9,2.3-2c1.4-0.1,2.6,0.8,2.8,2.1
							c0.1,1.1-0.7,2.2-1.9,2.4c-0.1,0-0.2,0-0.3,0.1h-0.6c0,0,0,0-0.1,0c-1.1-0.2-1.8-0.7-2.1-1.6
							C1542.8-77.6,1542.8-77.7,1542.8-77.9 M1545.3-80.1c-1.2,0-2.2,0.9-2.2,2c0,1.1,1,2,2.2,2c1.2,0,2.2-0.9,2.2-2
							C1547.5-79.2,1546.5-80.1,1545.3-80.1"/>
						<path class="st36" d="M1542.8-77.9v-0.5c0,0,0,0,0-0.1c0.2-1.1,1.1-1.9,2.3-2c1.4-0.1,2.6,0.8,2.8,2.1
							c0.1,1.1-0.7,2.2-1.9,2.4c-0.1,0-0.2,0-0.3,0.1h-0.6c0,0,0,0-0.1,0c-1.1-0.2-1.8-0.7-2.1-1.6
							C1542.8-77.6,1542.8-77.7,1542.8-77.9z M1545.3-80.1c-1.2,0-2.2,0.9-2.2,2c0,1.1,1,2,2.2,2c1.2,0,2.2-0.9,2.2-2
							C1547.5-79.2,1546.5-80.1,1545.3-80.1z"/>
						<path id="XMLID_324_" class="st35" d="M1545-78.7c0-0.2,0-0.5,0-0.7c0-0.1,0.1-0.2,0.2-0.2c0.1,0,0.2,0.1,0.2,0.2
							c0,0.4,0,0.8,0.1,1.2c0,0.1,0,0.1,0.1,0.2c0.3,0.3,0.5,0.6,0.8,0.8c0.1,0.1,0.1,0.1,0,0.2c0,0.1-0.1,0.1-0.2,0.1
							c0,0-0.1,0-0.1,0c-0.3-0.3-0.7-0.5-1-0.8c-0.1-0.1-0.1-0.2-0.1-0.3C1545-78.2,1545-78.5,1545-78.7
							C1545-78.7,1545-78.7,1545-78.7"/>
						<path id="XMLID_323_" class="st36" d="M1545-78.7c0-0.2,0-0.5,0-0.7c0-0.1,0.1-0.2,0.2-0.2c0.1,0,0.2,0.1,0.2,0.2
							c0,0.4,0,0.8,0.1,1.2c0,0.1,0,0.1,0.1,0.2c0.3,0.3,0.5,0.6,0.8,0.8c0.1,0.1,0.1,0.1,0,0.2c0,0.1-0.1,0.1-0.2,0.1
							c0,0-0.1,0-0.1,0c-0.3-0.3-0.7-0.5-1-0.8c-0.1-0.1-0.1-0.2-0.1-0.3C1545-78.2,1545-78.5,1545-78.7
							C1545-78.7,1545-78.7,1545-78.7z"/>
					</g>
					<g id="XMLID_321_" class="st1">
						
							<text transform="matrix(1.1053 0 0 1 1549.535 -76.0244)" style="fill:#FFFFFF; font-family:'RobotoCondensed-Bold'; font-size:5.6753px;">1h 15m</text>
					</g>
					<g class="st1">
						<defs>
							<rect id="XMLID_319_" x="1229" y="-152.3" width="657" height="338.5"/>
						</defs>
						<clipPath id="XMLID_536_">
							<use xlink:href="#XMLID_319_"  style="overflow:visible;"/>
						</clipPath>
						<path id="XMLID_320_" class="st37" d="M1569.5-26.4h-126.5c-2.5,0-4.6-2-4.6-4.6c0-2.5,2-4.6,4.6-4.6h126.5
							c2.5,0,4.6,2,4.6,4.6C1574-28.4,1572-26.4,1569.5-26.4"/>
					</g>
					<g id="XMLID_318_" class="st1">
						
							<text transform="matrix(1.1053 0 0 1 1471.4247 -28.5254)" style="fill:#FFFFFF; font-family:'Roboto-Medium'; font-size:6.4467px;">Implement thing wh...</text>
					</g>
					<g class="st1">
						<defs>
							<rect id="XMLID_311_" x="1229" y="-152.3" width="657" height="338.5"/>
						</defs>
						<clipPath id="XMLID_537_">
							<use xlink:href="#XMLID_311_"  style="overflow:visible;"/>
						</clipPath>
						<path class="st38" d="M1547.8-30.6v-0.5c0,0,0,0,0-0.1c0.2-1.1,1.1-1.9,2.3-2c1.4-0.1,2.6,0.8,2.8,2.1
							c0.1,1.1-0.7,2.2-1.9,2.4c-0.1,0-0.2,0-0.3,0.1h-0.6c0,0,0,0-0.1,0c-1.1-0.2-1.8-0.7-2.1-1.6
							C1547.8-30.3,1547.8-30.4,1547.8-30.6 M1550.3-32.8c-1.2,0-2.2,0.9-2.2,2c0,1.1,1,2,2.2,2c1.2,0,2.2-0.9,2.2-2
							C1552.5-31.9,1551.5-32.8,1550.3-32.8"/>
						<path class="st39" d="M1547.8-30.6v-0.5c0,0,0,0,0-0.1c0.2-1.1,1.1-1.9,2.3-2c1.4-0.1,2.6,0.8,2.8,2.1
							c0.1,1.1-0.7,2.2-1.9,2.4c-0.1,0-0.2,0-0.3,0.1h-0.6c0,0,0,0-0.1,0c-1.1-0.2-1.8-0.7-2.1-1.6
							C1547.8-30.3,1547.8-30.4,1547.8-30.6z M1550.3-32.8c-1.2,0-2.2,0.9-2.2,2c0,1.1,1,2,2.2,2c1.2,0,2.2-0.9,2.2-2
							C1552.5-31.9,1551.5-32.8,1550.3-32.8z"/>
						<path id="XMLID_313_" class="st38" d="M1550-31.4c0-0.2,0-0.5,0-0.7c0-0.1,0.1-0.2,0.2-0.2c0.1,0,0.2,0.1,0.2,0.2
							c0,0.4,0,0.8,0.1,1.2c0,0.1,0,0.1,0.1,0.2c0.3,0.3,0.5,0.6,0.8,0.8c0.1,0.1,0.1,0.1,0,0.2c0,0.1-0.1,0.1-0.2,0.1
							c0,0-0.1,0-0.1,0c-0.3-0.3-0.7-0.5-1-0.8c-0.1-0.1-0.1-0.2-0.1-0.3C1550-31,1550-31.2,1550-31.4L1550-31.4z"/>
						<path id="XMLID_312_" class="st39" d="M1550-31.4c0-0.2,0-0.5,0-0.7c0-0.1,0.1-0.2,0.2-0.2c0.1,0,0.2,0.1,0.2,0.2
							c0,0.4,0,0.8,0.1,1.2c0,0.1,0,0.1,0.1,0.2c0.3,0.3,0.5,0.6,0.8,0.8c0.1,0.1,0.1,0.1,0,0.2c0,0.1-0.1,0.1-0.2,0.1
							c0,0-0.1,0-0.1,0c-0.3-0.3-0.7-0.5-1-0.8c-0.1-0.1-0.1-0.2-0.1-0.3C1550-31,1550-31.2,1550-31.4L1550-31.4z"/>
					</g>
					<g id="XMLID_310_" class="st1">
						
							<text transform="matrix(1.1053 0 0 1 1553.3885 -28.7451)" style="fill:#FFFFFF; font-family:'RobotoCondensed-Bold'; font-size:5.6753px;">15m</text>
					</g>
					<g id="XMLID_309_" class="st1">
						
							<text transform="matrix(1 0 0 1 1460.2762 -28.0752)" style="fill:#FFFFFF; font-family:'RobotoCondensed-Bold'; font-size:8.3341px;">...</text>
					</g>
					<g class="st1">
						<defs>
							<rect id="XMLID_298_" x="1229" y="-152.3" width="657" height="338.5"/>
						</defs>
						<clipPath id="XMLID_538_">
							<use xlink:href="#XMLID_298_"  style="overflow:visible;"/>
						</clipPath>
						<path id="XMLID_308_" class="st40" d="M1454.6-27.4h-3.4c-1,0-1.8-0.8-1.8-1.8v-3.4c0-1,0.8-1.8,1.8-1.8h3.4
							c1,0,1.8,0.8,1.8,1.8v3.4C1456.4-28.2,1455.6-27.4,1454.6-27.4"/>
						<rect id="XMLID_307_" x="1450.4" y="-31.7" class="st41" width="4.9" height="3.4"/>
						<polygon id="XMLID_306_" class="st42" points="1451.8,-32.5 1454,-32.5 1452.8,-34 						"/>
						<path class="st40" d="M1567.7-34.8h1.9c0.2,0.2,0.4,0.4,0.5,0.6c0,0.1,0.1,0.1,0.1,0.2c0.1,0.3,0.2,0.3,0.5,0.3
							c0.3,0,0.6,0,0.9,0c0.2,0,0.3,0.1,0.3,0.3c0,0.2-0.1,0.3-0.3,0.3c-0.1,0-0.2,0-0.3,0v0.3c0,1.3,0,2.6,0,3.9
							c0,0.5-0.1,0.8-0.6,1h-4.2c-0.4-0.2-0.6-0.6-0.6-1c0-1.3,0-2.6,0-4v-0.3c-0.1,0-0.2,0-0.3,0c-0.2,0-0.3-0.1-0.3-0.3
							c0-0.2,0.1-0.3,0.3-0.3c0.3,0,0.7,0,1,0c0.2,0,0.4-0.1,0.4-0.3C1567.2-34.3,1567.4-34.7,1567.7-34.8 M1566.6-33.1
							c0,1.5,0,2.9,0,4.4c0,0.2,0.1,0.3,0.3,0.3c1.1,0,2.2,0,3.3,0c0.5,0,0.5,0,0.5-0.5c0-1.3,0-2.6,0-4c0-0.1,0-0.2,0-0.2H1566.6z
							 M1569.6-33.7c-0.1-0.5-0.1-0.6-0.6-0.6c-0.2,0-0.5,0-0.7,0c-0.5,0-0.6,0-0.6,0.6H1569.6z"/>
						<path id="XMLID_302_" class="st40" d="M1567.8-30.7c0,0.4,0,0.8,0,1.2c0,0.2-0.1,0.3-0.3,0.3c-0.2,0-0.3,0-0.3-0.2
							c0-0.8,0-1.6,0-2.4c0-0.2,0.1-0.3,0.3-0.3c0.2,0,0.3,0.1,0.3,0.3C1567.8-31.5,1567.8-31.1,1567.8-30.7"/>
						<path id="XMLID_301_" class="st40" d="M1569.6-30.8c0-0.4,0-0.8,0-1.2c0-0.2,0-0.3,0.3-0.3c0.2,0,0.3,0,0.3,0.3
							c0,0.8,0,1.6,0,2.4c0,0.2-0.1,0.3-0.3,0.3c-0.2,0-0.3-0.1-0.3-0.3C1569.6-29.9,1569.6-30.4,1569.6-30.8"/>
						<path id="XMLID_300_" class="st40" d="M1568.4-30.8c0-0.4,0-0.8,0-1.2c0-0.2,0.1-0.3,0.3-0.3c0.2,0,0.3,0.1,0.3,0.3
							c0,0.8,0,1.6,0,2.4c0,0.2-0.1,0.3-0.3,0.3c-0.2,0-0.3-0.1-0.3-0.3C1568.4-30,1568.4-30.4,1568.4-30.8"/>
						<path id="XMLID_299_" class="st43" d="M1569.5-86.1h-126.5c-2.5,0-4.6-2-4.6-4.6v-11.2c0-2.5,2-4.6,4.6-4.6h126.5
							c2.5,0,4.6,2,4.6,4.6v11.2C1574-88.2,1572-86.1,1569.5-86.1"/>
					</g>
					<g id="XMLID_297_" class="st1">
						
							<text transform="matrix(1.1053 0 0 1 1472.1854 -93.542)" style="fill:#FFFFFF; font-family:'Roboto-Medium'; font-size:8.3628px;">Implement thing</text>
					</g>
					<g class="st1">
						<defs>
							<rect id="XMLID_290_" x="1229" y="-152.3" width="657" height="338.5"/>
						</defs>
						<clipPath id="XMLID_539_">
							<use xlink:href="#XMLID_290_"  style="overflow:visible;"/>
						</clipPath>
						<path class="st44" d="M1542.8-102.6v-0.5c0,0,0,0,0-0.1c0.2-1.1,1.1-1.9,2.3-2c1.4-0.1,2.6,0.8,2.8,2.1
							c0.1,1.1-0.7,2.2-1.9,2.4c-0.1,0-0.2,0-0.3,0.1h-0.6c0,0,0,0-0.1,0c-1.1-0.2-1.8-0.7-2.1-1.6
							C1542.8-102.4,1542.8-102.5,1542.8-102.6 M1545.3-104.9c-1.2,0-2.2,0.9-2.2,2c0,1.1,1,2,2.2,2c1.2,0,2.2-0.9,2.2-2
							C1547.5-104,1546.5-104.9,1545.3-104.9"/>
						<path class="st45" d="M1542.8-102.6v-0.5c0,0,0,0,0-0.1c0.2-1.1,1.1-1.9,2.3-2c1.4-0.1,2.6,0.8,2.8,2.1
							c0.1,1.1-0.7,2.2-1.9,2.4c-0.1,0-0.2,0-0.3,0.1h-0.6c0,0,0,0-0.1,0c-1.1-0.2-1.8-0.7-2.1-1.6
							C1542.8-102.4,1542.8-102.5,1542.8-102.6z M1545.3-104.9c-1.2,0-2.2,0.9-2.2,2c0,1.1,1,2,2.2,2c1.2,0,2.2-0.9,2.2-2
							C1547.5-104,1546.5-104.9,1545.3-104.9z"/>
						<path id="XMLID_292_" class="st44" d="M1545-103.5c0-0.2,0-0.5,0-0.7c0-0.1,0.1-0.2,0.2-0.2c0.1,0,0.2,0.1,0.2,0.2
							c0,0.4,0,0.8,0.1,1.2c0,0.1,0,0.1,0.1,0.2c0.3,0.3,0.5,0.6,0.8,0.8c0.1,0.1,0.1,0.1,0,0.2c0,0.1-0.1,0.1-0.2,0.1
							c0,0-0.1,0-0.1,0c-0.3-0.3-0.7-0.5-1-0.8c-0.1-0.1-0.1-0.2-0.1-0.3C1545-103,1545-103.2,1545-103.5
							C1545-103.5,1545-103.5,1545-103.5"/>
						<path id="XMLID_291_" class="st45" d="M1545-103.5c0-0.2,0-0.5,0-0.7c0-0.1,0.1-0.2,0.2-0.2c0.1,0,0.2,0.1,0.2,0.2
							c0,0.4,0,0.8,0.1,1.2c0,0.1,0,0.1,0.1,0.2c0.3,0.3,0.5,0.6,0.8,0.8c0.1,0.1,0.1,0.1,0,0.2c0,0.1-0.1,0.1-0.2,0.1
							c0,0-0.1,0-0.1,0c-0.3-0.3-0.7-0.5-1-0.8c-0.1-0.1-0.1-0.2-0.1-0.3C1545-103,1545-103.2,1545-103.5
							C1545-103.5,1545-103.5,1545-103.5z"/>
					</g>
					<g id="XMLID_289_" class="st1">
						
							<text transform="matrix(1.1053 0 0 1 1549.535 -100.8134)" style="fill:#FFFFFF; font-family:'RobotoCondensed-Bold'; font-size:5.6753px;">1h 15m</text>
					</g>
					<g class="st1">
						<defs>
							<rect id="XMLID_287_" x="1229" y="-152.3" width="657" height="338.5"/>
						</defs>
						<clipPath id="XMLID_540_">
							<use xlink:href="#XMLID_287_"  style="overflow:visible;"/>
						</clipPath>
						<path id="XMLID_288_" class="st46" d="M1569.5-109.6h-126.5c-2.5,0-4.6-2-4.6-4.6V-146c0-2.5,2-4.6,4.6-4.6h126.5
							c2.5,0,4.6,2,4.6,4.6v31.9C1574-111.7,1572-109.6,1569.5-109.6"/>
					</g>
					<g id="XMLID_286_" class="st1">
						
							<text transform="matrix(1.1053 0 0 1 1463.8671 -128.2392)" style="fill:#FFFFFF; font-family:'Roboto-Medium'; font-size:10.4086px;">Implement thing</text>
					</g>
					<g class="st1">
						<defs>
							<rect id="XMLID_263_" x="1229" y="-152.3" width="657" height="338.5"/>
						</defs>
						<clipPath id="XMLID_541_">
							<use xlink:href="#XMLID_263_"  style="overflow:visible;"/>
						</clipPath>
						<path class="st47" d="M1542.8-148v-0.5c0,0,0,0,0-0.1c0.2-1.1,1.1-1.9,2.3-2c1.4-0.1,2.6,0.8,2.8,2.1c0.1,1.1-0.7,2.2-1.9,2.4
							c-0.1,0-0.2,0-0.3,0.1h-0.6c0,0,0,0-0.1,0c-1.1-0.2-1.8-0.7-2.1-1.6C1542.8-147.8,1542.8-147.9,1542.8-148 M1545.3-150.3
							c-1.2,0-2.2,0.9-2.2,2c0,1.1,1,2,2.2,2c1.2,0,2.2-0.9,2.2-2C1547.5-149.4,1546.5-150.3,1545.3-150.3"/>
						<path class="st48" d="M1542.8-148v-0.5c0,0,0,0,0-0.1c0.2-1.1,1.1-1.9,2.3-2c1.4-0.1,2.6,0.8,2.8,2.1c0.1,1.1-0.7,2.2-1.9,2.4
							c-0.1,0-0.2,0-0.3,0.1h-0.6c0,0,0,0-0.1,0c-1.1-0.2-1.8-0.7-2.1-1.6C1542.8-147.8,1542.8-147.9,1542.8-148z M1545.3-150.3
							c-1.2,0-2.2,0.9-2.2,2c0,1.1,1,2,2.2,2c1.2,0,2.2-0.9,2.2-2C1547.5-149.4,1546.5-150.3,1545.3-150.3z"/>
						<path id="XMLID_281_" class="st47" d="M1545-148.9c0-0.2,0-0.5,0-0.7c0-0.1,0.1-0.2,0.2-0.2c0.1,0,0.2,0.1,0.2,0.2
							c0,0.4,0,0.8,0.1,1.2c0,0.1,0,0.1,0.1,0.2c0.3,0.3,0.5,0.6,0.8,0.8c0.1,0.1,0.1,0.1,0,0.2c0,0.1-0.1,0.1-0.2,0.1
							c0,0-0.1,0-0.1,0c-0.3-0.3-0.7-0.5-1-0.8c-0.1-0.1-0.1-0.2-0.1-0.3C1545-148.4,1545-148.6,1545-148.9
							C1545-148.9,1545-148.9,1545-148.9"/>
						<path id="XMLID_280_" class="st48" d="M1545-148.9c0-0.2,0-0.5,0-0.7c0-0.1,0.1-0.2,0.2-0.2c0.1,0,0.2,0.1,0.2,0.2
							c0,0.4,0,0.8,0.1,1.2c0,0.1,0,0.1,0.1,0.2c0.3,0.3,0.5,0.6,0.8,0.8c0.1,0.1,0.1,0.1,0,0.2c0,0.1-0.1,0.1-0.2,0.1
							c0,0-0.1,0-0.1,0c-0.3-0.3-0.7-0.5-1-0.8c-0.1-0.1-0.1-0.2-0.1-0.3C1545-148.4,1545-148.6,1545-148.9
							C1545-148.9,1545-148.9,1545-148.9z"/>
						<g id="XMLID_279_" style="clip-path:url(#XMLID_541_);">
							
								<text transform="matrix(1.1053 0 0 1 1549.535 -146.2109)" style="fill:#FFFFFF; font-family:'RobotoCondensed-Bold'; font-size:5.6753px;">1h 15m</text>
						</g>
						<path id="XMLID_278_" class="st49" d="M1446.4-30.9c0,1.8-1.4,3.2-3.2,3.2c-1.8,0-3.2-1.4-3.2-3.2c0-1.8,1.4-3.2,3.2-3.2
							C1445-34.1,1446.4-32.7,1446.4-30.9"/>
						<circle id="XMLID_277_" class="st50" cx="1443.2" cy="-30.9" r="3.2"/>
						<path id="XMLID_276_" class="st47" d="M1445.2-32.5c-0.2-0.2-0.6-0.2-0.8,0l-2,2L1442-31c-0.2-0.2-0.6-0.2-0.8,0
							c-0.2,0.2-0.2,0.6,0,0.8l0.9,0.9c0.2,0.2,0.6,0.2,0.8,0l2.3-2.4C1445.5-31.9,1445.5-32.3,1445.2-32.5"/>
						<path id="XMLID_275_" class="st49" d="M1446.4-101.7c0,1.8-1.4,3.2-3.2,3.2c-1.8,0-3.2-1.4-3.2-3.2c0-1.8,1.4-3.2,3.2-3.2
							C1445-104.9,1446.4-103.4,1446.4-101.7"/>
						<circle id="XMLID_274_" class="st50" cx="1443.2" cy="-101.7" r="3.2"/>
						<path id="XMLID_273_" class="st47" d="M1445.2-103.3c-0.2-0.2-0.6-0.2-0.8,0l-2,2l-0.5-0.5c-0.2-0.2-0.6-0.2-0.8,0
							c-0.2,0.2-0.2,0.6,0,0.8l0.9,0.9c0.2,0.2,0.6,0.2,0.8,0l2.3-2.4C1445.5-102.7,1445.5-103,1445.2-103.3"/>
						<rect id="XMLID_272_" x="1392.4" y="-152.3" class="st47" width="493.7" height="21"/>
						<rect id="XMLID_271_" x="1848.1" y="-152.3" class="st49" width="37.9" height="21"/>
						<path id="XMLID_270_" class="st47" d="M1861.3-148.7h0.4c0.3,0.1,0.5,0.2,0.7,0.4c2.2,2.2,4.3,4.3,6.5,6.5
							c0,0,0.1,0.1,0.1,0.1c-0.1,0-0.1,0.1-0.1,0.1c-2.1,2.1-4.2,4.2-6.3,6.3c-0.2,0.2-0.5,0.5-0.8,0.5h-0.3c-0.1,0-0.1,0-0.2,0
							c-0.4-0.1-0.6-0.4-0.8-0.8c-0.1-0.5,0-0.8,0.3-1.2c1.6-1.6,3.2-3.2,4.8-4.8c0,0,0.1-0.1,0.1-0.1c-0.1,0-0.1-0.1-0.1-0.1
							c-1.6-1.6-3.2-3.2-4.8-4.8c-0.1-0.1-0.1-0.1-0.2-0.2c-0.4-0.5-0.3-1.2,0.2-1.5C1860.9-148.6,1861.1-148.6,1861.3-148.7"/>
						<path id="XMLID_269_" class="st47" d="M1866.5-148.7c0.4,0.1,0.6,0.3,0.8,0.6c2.1,2.1,4.2,4.2,6.3,6.3c0,0,0.1,0.1,0.2,0.1
							c-0.1,0.1-0.1,0.1-0.2,0.1c-2.1,2.1-4.2,4.2-6.3,6.3c-0.2,0.2-0.5,0.5-0.8,0.6h-0.4c0,0-0.1,0-0.1,0c-0.5-0.1-0.8-0.6-0.8-1.1
							c0-0.4,0.1-0.6,0.4-0.9c1.6-1.6,3.2-3.2,4.8-4.8c0,0,0.1-0.1,0.1-0.1c-0.1-0.1-0.1-0.1-0.1-0.1c-0.7-0.7-1.5-1.5-2.2-2.2
							c-0.9-0.9-1.8-1.8-2.6-2.6c-0.5-0.5-0.5-1.1-0.1-1.6c0.2-0.2,0.4-0.3,0.7-0.4H1866.5z"/>
						<rect id="XMLID_268_" x="1392.4" y="-152.3" class="st49" width="37.9" height="21"/>
						<path id="XMLID_267_" class="st47" d="M1417.1-134.8h-0.4c-0.3-0.1-0.5-0.2-0.7-0.4c-2.2-2.2-4.3-4.3-6.5-6.5
							c0,0-0.1-0.1-0.1-0.1c0.1,0,0.1-0.1,0.1-0.1c2.1-2.1,4.2-4.2,6.3-6.3c0.2-0.2,0.5-0.5,0.8-0.5h0.3c0.1,0,0.1,0,0.2,0
							c0.4,0.1,0.6,0.4,0.8,0.8c0.1,0.5,0,0.8-0.3,1.2c-1.6,1.6-3.2,3.2-4.8,4.8c0,0-0.1,0.1-0.1,0.1c0.1,0,0.1,0.1,0.1,0.1
							c1.6,1.6,3.2,3.2,4.8,4.8c0.1,0.1,0.1,0.1,0.2,0.2c0.4,0.5,0.3,1.2-0.2,1.5C1417.5-135,1417.3-134.9,1417.1-134.8"/>
						<path id="XMLID_266_" class="st47" d="M1411.8-134.8c-0.4-0.1-0.6-0.3-0.8-0.6c-2.1-2.1-4.2-4.2-6.3-6.3c0,0-0.1-0.1-0.2-0.1
							c0.1-0.1,0.1-0.1,0.2-0.1c2.1-2.1,4.2-4.2,6.3-6.3c0.2-0.2,0.5-0.5,0.8-0.6h0.4c0,0,0.1,0,0.1,0c0.5,0.1,0.8,0.6,0.8,1.1
							c0,0.4-0.1,0.6-0.4,0.9c-1.6,1.6-3.2,3.2-4.8,4.8c0,0-0.1,0.1-0.1,0.1c0.1,0.1,0.1,0.1,0.1,0.1c0.7,0.7,1.5,1.5,2.2,2.2
							c0.9,0.9,1.8,1.8,2.6,2.6c0.5,0.5,0.5,1.1,0.1,1.6c-0.2,0.2-0.4,0.3-0.7,0.4H1411.8z"/>
						<line id="XMLID_265_" class="st51" x1="1582.2" y1="-152.3" x2="1582.2" y2="-131.3"/>
						<line id="XMLID_264_" class="st51" x1="1430.2" y1="-131.3" x2="1430.2" y2="-152.3"/>
					</g>
					<g id="XMLID_262_" class="st1">
						
							<text transform="matrix(1 0 0 1 1476.3319 -137.7285)" style="fill:#808285; font-family:'Roboto-Medium'; font-size:11.5042px;">MON 10/17</text>
					</g>
					<g class="st1">
						<defs>
							<rect id="XMLID_259_" x="1229" y="-152.3" width="657" height="338.5"/>
						</defs>
						<clipPath id="XMLID_542_">
							<use xlink:href="#XMLID_259_"  style="overflow:visible;"/>
						</clipPath>
						<line id="XMLID_261_" class="st52" x1="1734.1" y1="-152.3" x2="1734.1" y2="-131.3"/>
						<line id="XMLID_260_" class="st52" x1="1582.2" y1="-131.3" x2="1582.2" y2="-152.3"/>
					</g>
					<g id="XMLID_258_" class="st1">
						
							<text transform="matrix(1 0 0 1 1630.7743 -137.7285)" style="fill:#808285; font-family:'Roboto-Medium'; font-size:11.5042px;">TUE 10/17</text>
					</g>
					<g class="st1">
						<defs>
							<rect id="XMLID_255_" x="1229" y="-152.3" width="657" height="338.5"/>
						</defs>
						<clipPath id="XMLID_543_">
							<use xlink:href="#XMLID_255_"  style="overflow:visible;"/>
						</clipPath>
						<line id="XMLID_257_" class="st53" x1="1886" y1="-152.3" x2="1886" y2="-131.3"/>
						<line id="XMLID_256_" class="st53" x1="1734.1" y1="-131.3" x2="1734.1" y2="-152.3"/>
					</g>
					<g id="XMLID_254_" class="st1">
						
							<text transform="matrix(1 0 0 1 1781.1464 -137.7285)" style="fill:#808285; font-family:'Roboto-Medium'; font-size:11.5042px;">WED 10/17</text>
					</g>
					<g class="st1">
						<defs>
							<rect id="XMLID_252_" x="1229" y="-152.3" width="657" height="338.5"/>
						</defs>
						<clipPath id="XMLID_544_">
							<use xlink:href="#XMLID_252_"  style="overflow:visible;"/>
						</clipPath>
						<rect id="XMLID_253_" x="1392.4" y="-131.3" class="st54" width="37.9" height="317.5"/>
					</g>
					<g id="XMLID_251_" class="st1">
						
							<text transform="matrix(1 0 0 1 1405.8505 -82.7666)" style="fill:#808285; font-family:'Roboto-Medium'; font-size:4.6862px;">5 AM</text>
					</g>
					<g class="st1">
						<defs>
							<rect id="XMLID_248_" x="1229" y="-152.3" width="657" height="338.5"/>
						</defs>
						<clipPath id="XMLID_545_">
							<use xlink:href="#XMLID_248_"  style="overflow:visible;"/>
						</clipPath>
						<line id="XMLID_250_" class="st55" x1="1430.2" y1="-84.3" x2="1418.8" y2="-84.3"/>
						<line id="XMLID_249_" class="st55" x1="1403.8" y1="-84.3" x2="1392.4" y2="-84.3"/>
					</g>
					<g id="XMLID_247_" class="st1">
						
							<text transform="matrix(1 0 0 1 1405.8505 -35.7729)" style="fill:#808285; font-family:'Roboto-Medium'; font-size:4.6862px;">6 AM</text>
					</g>
					<g class="st1">
						<defs>
							<rect id="XMLID_244_" x="1229" y="-152.3" width="657" height="338.5"/>
						</defs>
						<clipPath id="XMLID_546_">
							<use xlink:href="#XMLID_244_"  style="overflow:visible;"/>
						</clipPath>
						<line id="XMLID_246_" class="st56" x1="1430.2" y1="-37.3" x2="1418.8" y2="-37.3"/>
						<line id="XMLID_245_" class="st56" x1="1403.8" y1="-37.3" x2="1392.4" y2="-37.3"/>
					</g>
					<g id="XMLID_243_" class="st1">
						
							<text transform="matrix(1 0 0 1 1405.8505 11.2207)" style="fill:#808285; font-family:'Roboto-Medium'; font-size:4.6862px;">7 AM</text>
					</g>
					<g class="st1">
						<defs>
							<rect id="XMLID_240_" x="1229" y="-152.3" width="657" height="338.5"/>
						</defs>
						<clipPath id="XMLID_547_">
							<use xlink:href="#XMLID_240_"  style="overflow:visible;"/>
						</clipPath>
						<line id="XMLID_242_" class="st57" x1="1430.2" y1="9.7" x2="1418.8" y2="9.7"/>
						<line id="XMLID_241_" class="st57" x1="1403.8" y1="9.7" x2="1392.4" y2="9.7"/>
					</g>
					<g id="XMLID_239_" class="st1">
						
							<text transform="matrix(1 0 0 1 1405.8505 58.2149)" style="fill:#808285; font-family:'Roboto-Medium'; font-size:4.6862px;">8 AM</text>
					</g>
					<g class="st1">
						<defs>
							<rect id="XMLID_236_" x="1229" y="-152.3" width="657" height="338.5"/>
						</defs>
						<clipPath id="XMLID_548_">
							<use xlink:href="#XMLID_236_"  style="overflow:visible;"/>
						</clipPath>
						<line id="XMLID_238_" class="st58" x1="1430.2" y1="56.7" x2="1418.8" y2="56.7"/>
						<line id="XMLID_237_" class="st58" x1="1403.8" y1="56.7" x2="1392.4" y2="56.7"/>
					</g>
					<g id="XMLID_235_" class="st1">
						
							<text transform="matrix(1 0 0 1 1405.8505 105.208)" style="fill:#808285; font-family:'Roboto-Medium'; font-size:4.6862px;">9 AM</text>
					</g>
					<g class="st1">
						<defs>
							<rect id="XMLID_232_" x="1229" y="-152.3" width="657" height="338.5"/>
						</defs>
						<clipPath id="XMLID_549_">
							<use xlink:href="#XMLID_232_"  style="overflow:visible;"/>
						</clipPath>
						<line id="XMLID_234_" class="st59" x1="1430.2" y1="103.7" x2="1418.8" y2="103.7"/>
						<line id="XMLID_233_" class="st59" x1="1403.8" y1="103.7" x2="1392.4" y2="103.7"/>
					</g>
					<g id="XMLID_231_" class="st1">
						
							<text transform="matrix(1 0 0 1 1404.5184 152.2022)" style="fill:#808285; font-family:'Roboto-Medium'; font-size:4.6862px;">10 AM</text>
					</g>
					<g class="st1">
						<defs>
							<rect id="XMLID_228_" x="1229" y="-152.3" width="657" height="338.5"/>
						</defs>
						<clipPath id="XMLID_550_">
							<use xlink:href="#XMLID_228_"  style="overflow:visible;"/>
						</clipPath>
						<line id="XMLID_230_" class="st60" x1="1430.2" y1="150.7" x2="1418.8" y2="150.7"/>
						<line id="XMLID_229_" class="st60" x1="1403.8" y1="150.7" x2="1392.4" y2="150.7"/>
					</g>
				</g>
			</g>
		</g>
	</g>
</g>
<g id="Layer_2">
	<g id="XMLID_2_">
		<circle id="XMLID_3_" class="st61" cx="884" cy="286" r="5"/>
		<circle id="XMLID_4_" class="st62" cx="913" cy="286" r="5"/>
		<circle id="XMLID_5_" class="st62" cx="942" cy="286" r="5"/>
		<circle id="XMLID_6_" class="st62" cx="971" cy="286" r="5"/>
	</g>
	
		<text id="XMLID_47_" transform="matrix(1 0 0 1 720.0747 -54.2947)" class="st61" style="font-family:'Kanit-Bold'; font-size:60.4736px;">draggr</text>
	<g id="XMLID_7_">
		<circle id="XMLID_8_" class="st63" cx="1364.5" cy="78" r="18"/>
		<path id="XMLID_11_" class="st64" d="M1359.4,68.2c-0.3,0.3-0.3,0.7,0,1l8.7,8.7l-8.7,8.7c-0.3,0.3-0.3,0.7,0,1
			c0.3,0.3,0.7,0.3,1,0l9.2-9.2c0.3-0.3,0.3-0.7,0-1l-9.2-9.2C1360.1,68,1359.7,68,1359.4,68.2z"/>
	</g>
	<g id="XMLID_9_">
		<circle id="XMLID_12_" class="st63" cx="490.5" cy="78" r="18"/>
		<path id="XMLID_10_" class="st64" d="M495.7,87.8c0.3-0.3,0.3-0.7,0-1l-8.7-8.7l8.7-8.7c0.3-0.3,0.3-0.7,0-1c-0.3-0.3-0.7-0.3-1,0
			l-9.2,9.2c-0.3,0.3-0.3,0.7,0,1l9.2,9.2C494.9,88,495.4,88,495.7,87.8z"/>
	</g>
	<rect id="XMLID_15_" x="564.3" y="34" style="fill:none;" width="499.5" height="257"/>
	<text id="XMLID_14_" transform="matrix(1 0 0 1 564.2689 44.0796)"><tspan x="0" y="0" class="st61" style="font-family:'HelvLight-Normal'; font-size:14px;">     draggr is a drag-and-drop personal scheduling tool app built in Angular. </tspan><tspan x="0" y="16.8" class="st61" style="font-family:'HelvLight-Normal'; font-size:14px;">Unlike other scheduling tools, the tasks on your calendar are completely mal</tspan><tspan x="477.7" y="16.8" class="st61" style="font-family:'HelvLight-Normal'; font-size:14px;">-</tspan><tspan x="0" y="33.6" class="st61" style="font-family:'HelvLight-Normal'; font-size:14px;">leable: resizable, moveable, with tasks moving themselves automagically when </tspan><tspan x="0" y="50.4" class="st61" style="font-family:'HelvLight-Normal'; font-size:14px;">needed. Rescheduling one task doesnt mean rescheduling the whole day!</tspan><tspan x="0" y="84" class="st61" style="font-family:'HelvLight-Normal'; font-size:14px;">    I focused on creating a smooth UI that, with further development, will lend </tspan><tspan x="0" y="100.8" class="st61" style="font-family:'HelvLight-Normal'; font-size:14px;">itself to gamification of users productivity.</tspan><tspan x="0" y="134.4" class="st61" style="font-family:'HelvLight-Normal'; font-size:14px;">     Currently, I consider it in an early-alpha stage. Ive made it open-source, </tspan><tspan x="0" y="151.2" class="st61" style="font-family:'HelvLight-Normal'; font-size:14px;">and plan on developing a whole array of features in the future. Very much </tspan><tspan x="0" y="168" class="st61" style="font-family:'HelvLight-Normal'; font-size:14px;">aiming towards something I would find useful for daily use myself.</tspan></text>
	<g id="XMLID_16_">
		
			<text id="XMLID_17_" transform="matrix(1 0 0 1 740.6473 0)" style="fill:#43554A; font-family:'Helvetica-Bold'; font-size:21px;">LINK</text>
		
			<text id="XMLID_18_" transform="matrix(1 0 0 1 806.8973 0)" style="fill:#43554A; font-family:'Helvetica-Bold'; font-size:21px;">GITHUB</text>
	</g>
	<g id="XMLID_69_">
		<path id="XMLID_97_" class="st61" d="M3.5,38C1.2,35.8,0,32.2,0,27.3c0-3.4,0.6-6.3,1.8-8.6c1.2-2.4,2.9-4.2,5-5.4
			c2.1-1.2,4.4-1.8,6.9-1.8c1.3,0,2.7,0.1,4,0.4c1.3,0.3,2.4,0.7,3.4,1.2V0h11.4v40.8h-9.9l-0.5-2.2c-1.2,0.9-2.5,1.6-3.9,2.1
			c-1.4,0.5-3,0.7-4.8,0.7C9.1,41.4,5.8,40.3,3.5,38z M21.1,31.4V21.2c-1.1-1-2.6-1.5-4.5-1.5c-1.5,0-2.8,0.7-3.7,2
			c-0.9,1.4-1.4,3.2-1.4,5.7c0,1.6,0.2,2.8,0.5,3.6c0.3,0.8,0.9,1.4,1.6,1.7c0.7,0.3,1.7,0.5,2.9,0.5C18.4,33.1,19.9,32.6,21.1,31.4
			z"/>
		<path id="XMLID_100_" class="st61" d="M37.9,12.1h10.9l0.3,2.3c1.2-0.7,2.8-1.4,4.6-1.9c1.8-0.5,3.6-0.9,5.4-1V20
			c-1.7,0.1-3.5,0.4-5.4,0.8c-1.9,0.4-3.4,0.9-4.5,1.4v18.6H37.9V12.1z"/>
		<path id="XMLID_102_" class="st61" d="M60.2,39c-1.9-1.6-2.9-3.8-2.9-6.9c0-3.1,1-5.4,3.1-7.1c2-1.7,5.1-2.5,9.1-2.5h7.4v-0.5
			c0-1.1-0.5-2-1.4-2.5c-0.9-0.5-2.6-0.8-4.9-0.8c-3.3,0-6.6,0.5-9.8,1.5v-6.8c1.5-0.6,3.3-1.1,5.5-1.5c2.2-0.4,4.4-0.5,6.6-0.5
			c4.7,0,8.3,1,10.9,2.9c2.6,1.9,3.9,4.8,3.9,8.7v17.7h-9.9l-0.5-2.3c-2.2,1.9-5.4,2.9-9.8,2.9C64.5,41.4,62.1,40.6,60.2,39z
			 M76.9,32.4v-3.6h-5.5c-1.3,0-2.2,0.2-2.8,0.7c-0.6,0.5-0.9,1.2-0.9,2.2c0,1.9,1.2,2.9,3.7,2.9C73.7,34.7,75.5,33.9,76.9,32.4z"/>
		<path id="XMLID_105_" class="st61" d="M98.3,51c-2.5-0.3-4.4-0.6-5.7-1.1v-7.3c1.5,0.5,3.4,0.9,5.7,1.2c2.3,0.3,4.5,0.4,6.5,0.4
			c2.3,0,4-0.1,5.1-0.3c1.2-0.2,1.8-0.6,1.8-1.2c0-0.5-0.2-0.8-0.6-0.9c-0.4-0.1-1.2-0.2-2.3-0.2h-7.6c-3,0-5.3-0.5-6.8-1.4
			c-1.6-0.9-2.4-2.4-2.4-4.3c0-1.3,0.4-2.4,1.1-3.4c0.7-0.9,1.8-1.7,3.3-2.2c-1.7-0.8-2.9-1.9-3.6-3.2c-0.8-1.3-1.1-2.9-1.1-4.9
			c0-7.2,4.9-10.8,14.7-10.8c0.9,0,2,0.1,3.3,0.2c1.2,0.1,2.2,0.3,2.8,0.4h11.2l-0.2,6.9h-3.8c0.7,0.9,1.1,2.1,1.1,3.4
			c0,3-0.9,5.4-2.7,7c-1.8,1.7-4.4,2.5-8,2.5c-0.9,0-2-0.1-3.4-0.2c-2.2,0.2-3.3,0.8-3.3,1.7c0,0.4,0.2,0.7,0.5,0.8
			c0.3,0.1,0.8,0.2,1.6,0.2h6.6c3,0,5.3,0.7,7,2.1c1.7,1.4,2.5,3.4,2.5,6c0,2.9-1.3,5.1-4,6.6c-2.7,1.5-6.7,2.3-12.1,2.3
			C103.1,51.4,100.7,51.3,98.3,51z M110.1,24.8c0.7-0.6,1-1.6,1-3.1c0-1.5-0.4-2.5-1.1-3.1c-0.7-0.6-1.9-0.9-3.7-0.9
			c-1.7,0-2.9,0.3-3.6,0.9c-0.7,0.6-1.1,1.7-1.1,3.1c0,1.4,0.4,2.4,1.1,3c0.7,0.6,1.9,0.9,3.7,0.9C108.2,25.7,109.4,25.4,110.1,24.8
			z"/>
		<path id="XMLID_108_" class="st61" d="M129.7,51c-2.5-0.3-4.4-0.6-5.7-1.1v-7.3c1.5,0.5,3.4,0.9,5.7,1.2c2.3,0.3,4.5,0.4,6.5,0.4
			c2.3,0,4-0.1,5.1-0.3c1.2-0.2,1.8-0.6,1.8-1.2c0-0.5-0.2-0.8-0.6-0.9c-0.4-0.1-1.2-0.2-2.3-0.2h-7.6c-3,0-5.3-0.5-6.8-1.4
			c-1.6-0.9-2.4-2.4-2.4-4.3c0-1.3,0.4-2.4,1.1-3.4c0.7-0.9,1.8-1.7,3.3-2.2c-1.7-0.8-2.9-1.9-3.6-3.2c-0.8-1.3-1.1-2.9-1.1-4.9
			c0-7.2,4.9-10.8,14.7-10.8c0.9,0,2,0.1,3.3,0.2c1.2,0.1,2.2,0.3,2.8,0.4h11.2l-0.2,6.9h-3.8c0.7,0.9,1.1,2.1,1.1,3.4
			c0,3-0.9,5.4-2.7,7c-1.8,1.7-4.4,2.5-8,2.5c-0.9,0-2-0.1-3.4-0.2c-2.2,0.2-3.3,0.8-3.3,1.7c0,0.4,0.2,0.7,0.5,0.8
			c0.3,0.1,0.8,0.2,1.6,0.2h6.6c3,0,5.3,0.7,7,2.1c1.7,1.4,2.5,3.4,2.5,6c0,2.9-1.3,5.1-4,6.6c-2.7,1.5-6.7,2.3-12.1,2.3
			C134.6,51.4,132.2,51.3,129.7,51z M141.6,24.8c0.7-0.6,1-1.6,1-3.1c0-1.5-0.4-2.5-1.1-3.1c-0.7-0.6-1.9-0.9-3.7-0.9
			c-1.7,0-2.9,0.3-3.6,0.9c-0.7,0.6-1.1,1.7-1.1,3.1c0,1.4,0.4,2.4,1.1,3c0.7,0.6,1.9,0.9,3.7,0.9C139.7,25.7,140.9,25.4,141.6,24.8
			z"/>
		<path id="XMLID_111_" class="st61" d="M155.2,12.1h10.9l0.3,2.3c1.2-0.7,2.8-1.4,4.6-1.9c1.8-0.5,3.6-0.9,5.4-1V20
			c-1.7,0.1-3.5,0.4-5.4,0.8c-1.9,0.4-3.4,0.9-4.5,1.4v18.6h-11.4V12.1z"/>
	</g>
</g>
</svg>
