<?xml version="1.0" encoding="utf-8"?>
<!-- Generator: Adobe Illustrator 19.0.0, SVG Export Plug-In . SVG Version: 6.00 Build 0)  -->
<svg version="1.1" id="Layer_1" xmlns="http://www.w3.org/2000/svg" xmlns:xlink="http://www.w3.org/1999/xlink" x="0px" y="0px"
	 viewBox="-413 215 132 132" style="enable-background:new -413 215 132 132;" xml:space="preserve">
<style type="text/css">
	.st0{opacity:0.32;fill:none;stroke:#231F20;stroke-width:4;stroke-miterlimit:10;enable-background:new    ;}
	.st1{opacity:0.39;fill:#838383;enable-background:new    ;}
	.st2{fill:none;}
	.st3{fill:#FDFDFD;}
	.st4{fill:#FFFFFF;}
	.st5{fill:#333333;}
	.st6{fill:#735347;}
</style>
<g id="PAGES">
	<rect id="XMLID_6_" x="-2057.6" y="-1202.6" class="st0" width="960" height="492.1"/>
	<rect id="XMLID_8_" x="-2057.6" y="-710.5" class="st0" width="960" height="492.1"/>
	<rect id="XMLID_14_" x="-2057.6" y="-218.4" class="st0" width="960" height="492.1"/>
	<rect id="XMLID_44_" x="-2057.6" y="273.8" class="st0" width="960" height="492.1"/>
</g>
<g id="Layer_1_1_">
	<text transform="matrix(1 0 0 1 -1891.6127 -973.0331)" style="font-family:'SpaceMono-Regular'; font-size:52.0327px;">artem</text>
	<text transform="matrix(1 0 0 1 -1891.6127 -910.6331)" style="font-family:'SpaceMono-Regular'; font-size:52.0327px;">druzhkov.</text>
	
		<text id="XMLID_2_" transform="matrix(1 0 0 1 -1483.109 -1148.0034)" style="font-family:'Inconsolata-Regular'; font-size:13.9143px;">PORTFOLIO          ABOUT          CONTACT</text>
	
		<text id="XMLID_3_" transform="matrix(1 0 0 1 -1891.6127 -875.0571)" style="fill:#838383; font-family:'Roboto-Thin'; font-size:12px;">FRONT-END / BACK-END / BRAND DESIGN</text>
	<g id="XMLID_5_">
		
			<text id="XMLID_190_" transform="matrix(1 0 0 1 -1638.929 -638.7224)" style="font-family:'SpaceMono-Regular'; font-size:22.2658px;">PORTFOLIO</text>
	</g>
	<g id="XMLID_10_">
		
			<text id="XMLID_191_" transform="matrix(1 0 0 1 -1611.6755 -146.6191)" style="font-family:'SpaceMono-Regular'; font-size:22.2658px;">ABOUT</text>
	</g>
	<g id="XMLID_41_">
		<text transform="matrix(1 0 0 1 -1625.3025 345.4843)" style="font-family:'SpaceMono-Regular'; font-size:22.2658px;">CONTACT</text>
		<text transform="matrix(1 0 0 1 -1857.0024 372.1843)" style="font-family:'SpaceMono-Regular'; font-size:22.2658px;">(currently searching for </text>
		<text transform="matrix(1 0 0 1 -1516.3025 372.1843)" style="font-family:'SpaceMono-Bold'; font-size:22.2658px;">front-end work!</text>
		<text transform="matrix(1 0 0 1 -1311.9025 372.1843)" style="font-family:'SpaceMono-Regular'; font-size:22.2658px;">)</text>
	</g>
	<rect id="XMLID_4_" x="-1680.8" y="-581.7" class="st1" width="206.3" height="277.2"/>
	<g id="XMLID_15_">
		<rect id="XMLID_207_" x="-1659.3" y="-110.9" class="st2" width="206.3" height="277.2"/>
		
			<text transform="matrix(1 0 0 1 -1659.2913 -101.6303)" style="font-family:'Inconsolata-Regular'; font-size:13.9143px; letter-spacing:33;"> </text>
		<text transform="matrix(1 0 0 1 -1617.5913 -101.6303)" style="font-family:'Inconsolata-Regular'; font-size:13.9143px;">A front-end developer </text>
		<text transform="matrix(1 0 0 1 -1659.2913 -84.9303)" style="font-family:'Inconsolata-Regular'; font-size:13.9143px;">with several years of practi</text>
		<text transform="matrix(1 0 0 1 -1464.4912 -84.9303)" style="font-family:'Inconsolata-Regular'; font-size:13.9143px;">-</text>
		<text transform="matrix(1 0 0 1 -1659.2913 -68.2303)" style="font-family:'Inconsolata-Regular'; font-size:13.9143px;">cal experience in marketing, </text>
		<text transform="matrix(1 0 0 1 -1659.2913 -51.5303)" style="font-family:'Inconsolata-Regular'; font-size:13.9143px;">creative design, and brand</text>
		<text transform="matrix(1 0 0 1 -1478.3912 -51.5303)" style="font-family:'Inconsolata-Regular'; font-size:13.9143px;">-</text>
		<text transform="matrix(1 0 0 1 -1659.2913 -34.8303)" style="font-family:'Inconsolata-Regular'; font-size:13.9143px;">ing.</text>
		
			<text transform="matrix(1 0 0 1 -1659.2913 -1.4303)" style="font-family:'Inconsolata-Regular'; font-size:13.9143px; letter-spacing:33;"> </text>
		<text transform="matrix(1 0 0 1 -1617.5913 -1.4303)" style="font-family:'Inconsolata-Regular'; font-size:13.9143px;">To achieve a wide range </text>
		<text transform="matrix(1 0 0 1 -1659.2913 15.2697)" style="font-family:'Inconsolata-Regular'; font-size:13.9143px;">of marketing goals, Artem </text>
		<text transform="matrix(1 0 0 1 -1659.2913 31.9697)" style="font-family:'Inconsolata-Regular'; font-size:13.9143px;">combines his business educa</text>
		<text transform="matrix(1 0 0 1 -1471.4912 31.9697)" style="font-family:'Inconsolata-Regular'; font-size:13.9143px;">-</text>
		<text transform="matrix(1 0 0 1 -1659.2913 48.6697)" style="font-family:'Inconsolata-Regular'; font-size:13.9143px;">tion with a wide range of </text>
		<text transform="matrix(1 0 0 1 -1659.2913 65.3697)" style="font-family:'Inconsolata-Regular'; font-size:13.9143px;">creative and technical skills </text>
		<text transform="matrix(1 0 0 1 -1659.2913 82.0697)" style="font-family:'Inconsolata-Regular'; font-size:13.9143px;">to produce high-quality web</text>
		<text transform="matrix(1 0 0 1 -1471.4912 82.0697)" style="font-family:'Inconsolata-Regular'; font-size:13.9143px;">-</text>
		<text transform="matrix(1 0 0 1 -1659.2913 98.7697)" style="font-family:'Inconsolata-Regular'; font-size:13.9143px;">sites, exceptional user expe</text>
		<text transform="matrix(1 0 0 1 -1464.4912 98.7697)" style="font-family:'Inconsolata-Regular'; font-size:13.9143px;">-</text>
		<text transform="matrix(1 0 0 1 -1659.2913 115.4697)" style="font-family:'Inconsolata-Regular'; font-size:13.9143px;">riences, and a telling brand </text>
		<text transform="matrix(1 0 0 1 -1659.2913 132.1697)" style="font-family:'Inconsolata-Regular'; font-size:13.9143px;">story.</text>
	</g>
	<g id="XMLID_28_">
		<rect id="XMLID_212_" x="-1409.3" y="-110.9" class="st2" width="206.3" height="277.2"/>
		
			<text transform="matrix(1 0 0 1 -1409.2913 -101.6303)" style="font-family:'Inconsolata-Regular'; font-size:13.9143px; letter-spacing:33;"> </text>
		<text transform="matrix(1 0 0 1 -1367.5912 -101.6303)" style="font-family:'Inconsolata-Regular'; font-size:13.9143px;">Ambitious in many </text>
		<text transform="matrix(1 0 0 1 -1409.2913 -84.9303)" style="font-family:'Inconsolata-Regular'; font-size:13.9143px;">arenas, Artem brings a unique </text>
		<text transform="matrix(1 0 0 1 -1409.2913 -68.2303)" style="font-family:'Inconsolata-Regular'; font-size:13.9143px;">view and to the team, and an </text>
		<text transform="matrix(1 0 0 1 -1409.2913 -51.5303)" style="font-family:'Inconsolata-Regular'; font-size:13.9143px;">exceptional drive to the </text>
		<text transform="matrix(1 0 0 1 -1409.2913 -34.8303)" style="font-family:'Inconsolata-Regular'; font-size:13.9143px;">table.</text>
		
			<text transform="matrix(1 0 0 1 -1409.2913 -18.1303)" style="font-family:'Inconsolata-Regular'; font-size:13.9143px; letter-spacing:33;"> </text>
		
			<text transform="matrix(1 0 0 1 -1409.2913 -1.4303)" style="font-family:'Inconsolata-Regular'; font-size:13.9143px; letter-spacing:33;"> </text>
		<text transform="matrix(1 0 0 1 -1367.5912 -1.4303)" style="font-family:'Inconsolata-Regular'; font-size:13.9143px;">Of course, that’s not </text>
		<text transform="matrix(1 0 0 1 -1409.2913 15.2697)" style="font-family:'Inconsolata-Regular'; font-size:13.9143px;">the reason why he’s into mo</text>
		<text transform="matrix(1 0 0 1 -1221.4912 15.2697)" style="font-family:'Inconsolata-Regular'; font-size:13.9143px;">-</text>
		<text transform="matrix(1 0 0 1 -1409.2913 31.9697)" style="font-family:'Inconsolata-Regular'; font-size:13.9143px;">torsports, jiu-jitsu, making </text>
		<text transform="matrix(1 0 0 1 -1409.2913 48.6697)" style="font-family:'Inconsolata-Regular'; font-size:13.9143px;">video games, or programming. </text>
		<text transform="matrix(1 0 0 1 -1409.2913 65.3697)" style="font-family:'Inconsolata-Regular'; font-size:13.9143px;">He’s just a curious fellow </text>
		<text transform="matrix(1 0 0 1 -1409.2913 82.0697)" style="font-family:'Inconsolata-Regular'; font-size:13.9143px;">like that.</text>
	</g>
	<rect id="XMLID_9_" x="-1932" y="-581.7" class="st1" width="206.3" height="277.2"/>
	<rect id="XMLID_12_" x="-1429.6" y="-581.7" class="st1" width="206.3" height="277.2"/>
	
		<image style="overflow:visible;enable-background:new    ;" width="2759" height="2751" id="XMLID_7_" xlink:href="../../../../pics of me/circle.png"  transform="matrix(7.385288e-002 0 0 7.385288e-002 -1941.7025 -73.8834)">
	</image>
	<g id="XMLID_13_">
		<path id="XMLID_100_" d="M-1241.1,517.3c3,0.3,5.7-0.5,8.1-2.3c-1.2-0.1-2.3-0.4-3.2-1.1c-0.9-0.7-1.6-1.6-2-2.7
			c0.8,0.1,1.6,0.1,2.5-0.1c-1.3-0.3-2.4-0.9-3.2-2c-0.8-1-1.2-2.2-1.2-3.5c0.4,0.2,0.8,0.3,1.2,0.4s0.8,0.2,1.2,0.2
			c-1.3-1-2.1-2.3-2.3-4c-0.1-1.2,0.1-2.3,0.7-3.4c3,3.5,6.8,5.4,11.4,5.8c0-0.4-0.1-0.7-0.1-1c-0.1-1.2,0.2-2.4,1-3.4
			c1-1.5,2.5-2.3,4.3-2.4c1.6-0.1,2.9,0.4,4.1,1.5c0.2,0.2,0.4,0.2,0.6,0.2c1-0.2,2-0.6,2.9-1.1c0.1,0,0.1-0.1,0.3-0.1
			c-0.4,1.3-1.2,2.3-2.3,3c1-0.1,2-0.4,3-0.8c-0.1,0.1-0.2,0.3-0.3,0.4c-0.1,0.1-0.2,0.3-0.3,0.4c-0.6,0.7-1.2,1.3-2,1.9
			c-0.1,0.1-0.2,0.2-0.2,0.4c0.1,3-0.6,5.7-2.1,8.3c-1,1.9-2.4,3.5-4.1,4.8c-1.7,1.3-3.7,2.2-5.8,2.7c-1.9,0.4-3.9,0.5-5.8,0.3
			c-2.3-0.3-4.4-1.1-6.3-2.3C-1241,517.4-1241,517.4-1241.1,517.3z"/>
	</g>
	<g id="XMLID_194_">
		<path id="XMLID_195_" d="M-49.5,322.7c14.8,1.3,27.9-2.3,39.9-11.3c-6-0.3-11.2-2-15.8-5.4c-4.5-3.4-7.7-7.8-9.6-13.4
			c4.1,0.7,8,0.6,12.1-0.5c-6.5-1.5-11.6-4.7-15.6-9.6c-4-5-6-10.7-6-17.2c2,0.8,3.8,1.6,5.8,2.2c1.9,0.5,4,0.8,6.1,1
			c-6.6-5-10.5-11.4-11.5-19.5c-0.7-5.8,0.5-11.4,3.5-16.6c14.7,17.3,33.3,26.8,55.9,28.4c-0.2-1.7-0.4-3.3-0.5-5
			c-0.4-6.1,1.2-11.7,4.7-16.6c5.1-7.2,12.1-11.2,20.9-11.8c7.7-0.5,14.4,2,20,7.3c1,0.9,1.8,1.2,3.1,0.8c4.9-1.2,9.7-3,14.1-5.5
			c0.3-0.2,0.7-0.4,1.3-0.7c-2.1,6.4-6,11.1-11.3,14.7c5.1-0.5,9.9-1.9,14.7-3.7c-0.5,0.6-0.9,1.3-1.4,1.9c-0.5,0.7-1,1.4-1.5,2
			c-2.8,3.4-6,6.5-9.6,9.1c-0.6,0.5-0.8,0.9-0.8,1.7c0.4,14.6-3.2,28.3-10.2,41c-5.1,9.1-11.7,17-20,23.4c-8.5,6.6-18,11-28.4,13.4
			c-9.4,2.2-19,2.6-28.6,1.4c-11.1-1.4-21.4-5.2-30.9-11.1C-49.1,323-49.2,323-49.5,322.7z"/>
	</g>
	<g id="XMLID_76_">
		<path id="XMLID_112_" d="M-1698.4,518.9c0-5.8,0-11.5,0-17.3c0.1,0,0.2,0,0.2,0c1.8,0,3.5,0,5.3,0c0.2,0,0.3,0.1,0.3,0.3
			c0,0.7,0,1.4,0,2.1c0.2-0.3,0.4-0.5,0.6-0.7c1-1.2,2.2-1.9,3.8-2c1.4-0.1,2.7,0,3.9,0.6c1.1,0.5,1.9,1.4,2.5,2.4
			c0.8,1.4,1,3,1,4.7c0,3.3,0,6.5,0,9.8c0,0.1,0,0.1,0,0.2c-1.9,0-3.8,0-5.8,0c0-0.1,0-0.2,0-0.3c0-2.9,0-5.9,0-8.8
			c0-0.8-0.1-1.5-0.3-2.3c-0.4-1.2-1.5-1.9-2.8-1.8c-1.4,0.1-2.3,0.9-2.8,2.3c-0.1,0.4-0.1,0.9-0.1,1.4c0,3.1,0,6.1,0,9.2
			c0,0.3,0,0.3-0.3,0.3c-1.7,0-3.5,0-5.2,0C-1698.2,518.9-1698.3,518.9-1698.4,518.9z"/>
		<path id="XMLID_111_" d="M-1701.6,518.9c-0.1,0-0.2,0-0.2,0c-1.8,0-3.5,0-5.3,0c-0.2,0-0.3-0.1-0.3-0.3c0-5.6,0-11.2,0-16.8
			c0-0.2,0-0.3,0.3-0.3c1.8,0,3.5,0,5.3,0c0.1,0,0.1,0,0.2,0C-1701.6,507.4-1701.6,513.1-1701.6,518.9z"/>
		<path id="XMLID_110_" d="M-1704.5,499.2c-1.1,0-2.1-0.4-2.7-1.4c-1-1.5-0.5-3.8,1.6-4.4c1.1-0.3,2.2-0.3,3.2,0.4
			c1,0.7,1.3,1.7,1.2,2.8c-0.1,1.1-0.8,1.9-1.9,2.3C-1703.6,499.1-1704,499.2-1704.5,499.2C-1704.5,499.3-1704.5,499.3-1704.5,499.2
			z"/>
	</g>
	<g id="XMLID_186_">
		<path id="XMLID_189_" d="M-748.7,341.2c0-28.4,0-56.7,0-85.1c0.4,0,0.7-0.1,1.1-0.1c8.6,0,17.2,0,25.9,0c1.1,0,1.3,0.3,1.3,1.3
			c-0.1,3.4,0,6.8,0,10.6c1-1.3,1.8-2.5,2.7-3.6c4.8-5.9,10.9-9.2,18.5-10c6.7-0.7,13.2,0.1,19.4,3c5.4,2.6,9.4,6.7,12.3,11.9
			c3.9,7.1,5.1,14.9,5.1,22.9c0.1,16,0,32.1,0,48.1c0,0.2,0,0.5,0,0.8c-9.4,0-18.7,0-28.3,0c0-0.5,0-0.9,0-1.4c0-14.5,0-28.9,0-43.4
			c0-3.8-0.3-7.6-1.6-11.2c-2.2-6.1-7.3-9.2-13.8-8.7c-7.1,0.6-11.5,4.7-13.7,11.1c-0.7,2.1-0.7,4.5-0.7,6.8
			c-0.1,15.1,0,30.2,0,45.3c0,1.4,0,1.4-1.4,1.4c-8.5,0-17,0-25.5,0C-747.9,341.2-748.3,341.2-748.7,341.2z"/>
		<path id="XMLID_188_" d="M-764.6,341.2c-0.4,0-0.7,0-1.1,0c-8.6,0-17.2,0-25.8,0c-1,0-1.3-0.3-1.3-1.3c0-27.5,0-55.1,0-82.6
			c0-1,0.2-1.3,1.2-1.3c8.6,0,17.2,0,25.8,0c0.4,0,0.7,0,1.1,0.1C-764.6,284.5-764.6,312.8-764.6,341.2z"/>
		<path id="XMLID_187_" d="M-778.7,244.5c-5.6-0.1-10.3-1.9-13.5-6.8c-4.7-7.3-2.2-18.7,8-21.8c5.4-1.6,10.8-1.3,15.5,2
			c4.8,3.4,6.6,8.2,5.8,13.9c-0.7,5.6-4,9.5-9.3,11.4c-2.1,0.7-4.3,1-6.5,1.4C-778.6,244.7-778.7,244.6-778.7,244.5z"/>
	</g>
	<g id="XMLID_67_">
		<path id="XMLID_119_" d="M-1447.5,505.6c0,0.5,0,1,0,1.5c-0.1,0.5-0.1,0.9-0.2,1.4c-0.4,2.6-1.5,4.8-3.2,6.8
			c-2.2,2.4-4.9,3.9-8.1,4.4c-0.4,0.1-0.8,0.1-1.2,0.2c-0.5,0-1,0-1.5,0c-0.1,0-0.2,0-0.2,0c-1-0.1-2-0.2-3-0.5
			c-5.1-1.7-8.2-5.2-9.3-10.5c-0.1-0.5-0.1-1-0.2-1.5c0-0.5,0-1,0-1.6c0-0.1,0-0.2,0-0.2c0.2-2.1,0.8-4.1,1.9-5.9
			c2.2-3.6,5.4-5.7,9.5-6.4c0.4-0.1,0.8-0.1,1.2-0.2c0.5,0,1,0,1.6,0c0.4,0.1,0.9,0.1,1.3,0.2c2.8,0.5,5.3,1.7,7.3,3.7
			c2.1,2.1,3.4,4.7,3.8,7.6C-1447.6,504.8-1447.6,505.2-1447.5,505.6z M-1463.9,514.9c-0.2,0-0.3,0.1-0.5,0.1s-0.3,0-0.5,0
			c-1.4,0.1-2.6-0.5-3.1-1.9c-0.2-0.7-0.7-1.2-1.3-1.6c-0.2-0.1-0.4-0.4-0.4-0.5c0.1-0.2,0.4-0.2,0.6-0.2c0.8,0.1,1.3,0.5,1.7,1.2
			c0.8,1.3,2,1.5,3.3,1c0.1,0,0.2-0.1,0.2-0.2c0.1-0.5,0.3-1,0.7-1.5c-0.6-0.1-1.1-0.2-1.7-0.4c-1.4-0.4-2.5-1.1-3.1-2.4
			c-0.4-0.8-0.6-1.7-0.6-2.7c-0.1-1.3,0.2-2.4,1.1-3.4c0-0.1,0.1-0.2,0-0.3c-0.2-0.8-0.2-1.6,0-2.4c0.2-0.6,0.2-0.6,0.9-0.5
			c0.9,0.2,1.6,0.6,2.3,1c0.1,0.1,0.3,0.1,0.4,0.1c1.9-0.5,3.7-0.5,5.6,0c0.1,0,0.3,0,0.4-0.1c0.5-0.3,1.1-0.6,1.6-0.8
			c0.4-0.2,0.8-0.2,1.2-0.2c0.1,0,0.2,0.1,0.2,0.2c0.3,0.9,0.4,1.8,0.2,2.7c-0.1,0.2,0,0.3,0.1,0.4c0.5,0.6,0.8,1.2,0.9,1.9
			c0.2,1.3,0.1,2.5-0.4,3.7c-0.4,1-1,1.8-2,2.2c-0.5,0.3-1.1,0.4-1.7,0.6c-0.4,0.1-0.8,0.2-1.2,0.2c0.6,0.6,0.8,1.4,0.8,2.2
			c0,1,0,2,0,3c0,0.7,0.4,0.9,1,0.7c5.5-1.9,8.8-7.7,7.7-13.4c-1.3-6.6-8-10.8-14.5-9.1c-5.6,1.5-9.3,6.8-8.7,12.5
			c0.4,3.8,2.3,6.8,5.5,8.8c0.7,0.5,1.6,0.8,2.4,1.1c0.4,0.2,0.9-0.1,0.9-0.5C-1463.8,516.3-1463.9,515.6-1463.9,514.9z"/>
	</g>
	<g id="XMLID_56_">
		<path id="XMLID_126_" d="M-1941,518.3c0-6.3,0-12.6,0-18.9c0.1,0,0.1-0.1,0.1-0.2c0.2-0.7,0.7-1.1,1.4-1.2c0.3,0,0.6,0,0.9,0
			c0.1,0.1,0.3,0.2,0.4,0.3c3.8,2.8,7.6,5.5,11.4,8.3c0.2,0.1,0.3,0.1,0.5,0c3.1-2.2,6.1-4.5,9.2-6.7c0.9-0.6,1.7-1.2,2.6-1.9
			c1.5-0.1,1.9,0.2,2.5,1.5c0,6.3,0,12.6,0,18.9c-0.1,0.1-0.1,0.2-0.1,0.2c-0.3,0.8-0.9,1.1-1.7,1.1c-0.6,0-1.2,0-1.8,0v-0.1
			c0-5.3,0-10.6,0-15.8c0-0.1,0-0.2,0-0.4c-0.1,0.1-0.2,0.1-0.3,0.2c-3.4,2.4-6.8,4.9-10.2,7.3c-0.3,0.2-0.4,0.2-0.7,0
			c-3.4-2.5-6.8-4.9-10.3-7.3c-0.1,0-0.1-0.1-0.3-0.1c0,0.3,0,0.7,0,1c0,4.9,0,9.9,0,14.8c0,0.1,0,0.3,0,0.4c-0.6,0-1.2,0-1.8,0
			c-0.5,0-0.9-0.2-1.2-0.5C-1940.7,519-1940.8,518.6-1941,518.3z"/>
		<g id="XMLID_117_">
			<path id="XMLID_155_" class="st3" d="M-1935.5,499h17.9l-2.1,1.5c-2.3,1.7-4.6,3.3-6.9,5C-1928.8,503.8-1935.5,499-1935.5,499z"
				/>
			<path id="XMLID_152_" d="M-1924.2,500h3.6c-2,1.4-3.9,2.9-5.9,4.3c-2-1.4-3.9-2.9-5.9-4.3H-1924.2 M-1924.2,498
				c-4.6,0-9.2,0-13.8,0c-0.2,0-0.3,0-0.5,0c0.1,0.1,0.3,0.2,0.4,0.3c3.8,2.8,7.6,5.5,11.4,8.3c0.1,0.1,0.2,0.1,0.3,0.1
				c0.1,0,0.2,0,0.3-0.1c3.1-2.2,6.1-4.5,9.2-6.7c0.9-0.6,1.7-1.2,2.6-1.9c-0.2,0-0.3,0-0.5,0C-1918,498-1921.1,498-1924.2,498
				L-1924.2,498z"/>
		</g>
		<g id="XMLID_34_">
			<path id="XMLID_150_" class="st3" d="M-1936.3,518.7v-13.4l0.3,0.2c2.9,2.1,5.8,4.1,8.6,6.2c0.3,0.2,0.6,0.3,0.9,0.3
				c0.4,0,0.7-0.2,0.9-0.3c2.8-2,5.7-4.1,8.5-6.1l0.4-0.3v13.4h-12.9L-1936.3,518.7z"/>
			<path id="XMLID_147_" d="M-1917.6,507.2v10.5l0,0h-4.5h-5h-8.1h-0.1v-10.5c2.5,1.8,4.9,3.5,7.3,5.3c0.5,0.3,1,0.5,1.5,0.5
				c0.8,0,1.3-0.4,1.5-0.5C-1922.5,510.7-1920.1,509-1917.6,507.2 M-1915.6,503.4c-0.1,0.1-0.2,0.1-0.3,0.2
				c-3.4,2.4-6.8,4.9-10.2,7.3c-0.1,0.1-0.2,0.2-0.4,0.2c-0.1,0-0.2,0-0.3-0.1c-3.4-2.5-6.8-4.9-10.3-7.3c-0.1,0-0.1-0.1-0.2-0.1
				l0,0c0,0.3,0,0.7,0,1c0,4.9,0,9.9,0,14.8c0,0.1,0,0.3,0,0.4c0.2,0,0.3,0,0.5,0c3.2,0,6.5,0,9.7,0c1.7,0,3.4,0,5,0
				c2.2,0,4.4,0,6.5,0v-0.1c0-5.3,0-10.6,0-15.8C-1915.6,503.6-1915.6,503.5-1915.6,503.4L-1915.6,503.4z"/>
		</g>
	</g>
	<g id="XMLID_208_">
		<path id="XMLID_221_" d="M387.5,327.7c0-31,0-62.1,0-93.1c0.4-0.2,0.4-0.6,0.5-0.9c1.2-3.3,3.6-5.3,7-5.9c1.5-0.2,3-0.1,4.5-0.1
			c0.5,0.7,1.2,0.9,1.9,1.4c18.6,13.6,37.3,27.1,55.9,40.7c1,0.7,1.5,0.7,2.5,0c15.1-11,30.2-22,45.3-32.9c4.2-3,8.4-6.1,12.5-9.2
			c7.3-0.3,9.1,0.8,12.1,7.1c0,30.9,0,61.9,0,92.8c-0.5,0.2-0.5,0.8-0.6,1.2c-1.6,3.7-4.4,5.5-8.4,5.5c-2.9,0-5.8,0-8.7,0
			c0-0.2-0.1-0.4-0.1-0.5c0-25.9,0-51.9,0-77.8c0-0.6,0-1.2,0-2c-0.6,0.4-1,0.7-1.4,0.9c-16.8,12-33.5,24-50.2,36
			c-1.3,0.9-2.1,1-3.4,0.1c-16.8-12.1-33.6-24.1-50.4-36.1c-0.3-0.2-0.6-0.6-1.2-0.5c0,1.7,0,3.4,0,5.1c0,24.3,0,48.6,0,72.9
			c0,0.6,0,1.3,0,1.9c-3,0-6,0-9,0c-2.4,0-4.4-0.9-6.1-2.5C388.9,330.7,388.4,329.1,387.5,327.7z"/>
		<g id="XMLID_215_">
			<path id="XMLID_240_" class="st3" d="M458.7,269.3c-0.1,0-0.4-0.1-0.7-0.3c-11.8-8.6-23.6-17.2-35.5-25.8
				c-6.7-4.8-13.3-9.7-20-14.5h112.2l-1.6,1.2c-2.8,2.1-5.7,4.1-8.5,6.2l-11.3,8.2c-11.3,8.2-22.6,16.4-33.9,24.7
				C459,269.2,458.8,269.3,458.7,269.3z"/>
			<path id="XMLID_237_" d="M468.9,229.6h42.8c-2.6,1.9-5.1,3.7-7.7,5.6l-11.4,8.2c-11.1,8.1-22.6,16.4-33.9,24.7c0,0,0,0-0.1,0
				c0,0,0,0-0.1-0.1c-11.8-8.6-23.7-17.2-35.5-25.8c-5.8-4.2-11.6-8.4-17.4-12.7C426.7,229.6,447.8,229.6,468.9,229.6 M468.9,227.6
				c-22.3,0-44.7,0-67,0c-0.7,0-1.5,0-2.2,0.1c0.5,0.7,1.2,0.9,1.9,1.4c18.6,13.6,37.3,27.1,55.9,40.7c0.5,0.3,0.9,0.5,1.3,0.5
				c0.4,0,0.8-0.2,1.2-0.5c15.1-11,30.2-22,45.3-32.9c4.2-3,8.4-6.1,12.5-9.2c-0.7,0-1.5-0.1-2.2-0.1
				C500,227.6,484.4,227.6,468.9,227.6L468.9,227.6z"/>
		</g>
		<g id="XMLID_209_">
			<path id="XMLID_244_" class="st3" d="M407.6,333.4c-0.4,0-0.9,0-1.3,0c0-0.3,0-0.6,0-1v-76.5l7.2,5.1
				c14.1,10.1,28.6,20.5,42.9,30.7c0.8,0.6,1.5,0.9,2.3,0.9c0.9,0,1.7-0.5,2.3-0.9c13.8-9.9,27.8-20,41.4-29.7l8.6-6.2v77.4h-7.9
				c-7.7,0-15.4,0-23.2,0h-26L407.6,333.4z"/>
			<path id="XMLID_241_" d="M510,257.9c0,24.8,0,49.7,0,74.5h-8c-7.3,0-14.7,0-22,0h-25.3h-38.1h-9c-0.1,0-0.2,0-0.3,0
				c0-21.8,0-43.6,0-65.3v-7.6v-1.6l5.5,3.9c14.1,10.1,28.7,20.5,43,30.8c0.6,0.5,1.6,1.1,2.8,1.1s2.2-0.6,2.9-1.1
				c13.7-9.9,27.7-19.9,41.3-29.6L510,257.9 M512,254c-0.6,0.4-1,0.7-1.4,0.9c-16.8,12-33.5,24-50.2,36c-0.7,0.5-1.2,0.7-1.8,0.7
				c-0.5,0-1-0.2-1.7-0.7c-16.8-12.1-33.6-24.1-50.4-36.1c-0.3-0.2-0.5-0.5-1-0.5c-0.1,0-0.1,0-0.2,0c0,1.7,0,3.4,0,5.1
				c0,24.3,0,48.6,0,72.9c0,0.6,0,1.3,0,1.9c0.8,0,1.6,0,2.4,0c15.7,0,31.4,0,47,0c8.4,0,16.9,0,25.3,0c10.7,0,21.4,0,32.1,0
				c0-0.2-0.1-0.4-0.1-0.5c0-25.9,0-51.9,0-77.8C512,255.4,512,254.8,512,254L512,254z"/>
		</g>
	</g>
	
		<text id="XMLID_11_" transform="matrix(1 0 0 1 -1989.1038 545.3294)" style="font-family:'Inconsolata-Regular'; font-size:13.9143px;">artemdr1@gmail.com</text>
	
		<text id="XMLID_16_" transform="matrix(1 0 0 1 -1757.512 545.3292)" style="font-family:'Inconsolata-Regular'; font-size:13.9143px;">/in/artemdruzhkov</text>
	
		<text id="XMLID_17_" transform="matrix(1 0 0 1 -1527.0551 545.3294)" style="font-family:'Inconsolata-Regular'; font-size:13.9143px;">github.com/artemdru</text>
	
		<text id="XMLID_18_" transform="matrix(1 0 0 1 -1262.4674 545.3294)" style="font-family:'Inconsolata-Regular'; font-size:13.9143px;">/artem_dru</text>
	<g id="XMLID_21_">
		<rect id="XMLID_216_" x="-1932" y="-581.7" class="st2" width="206.3" height="277.2"/>
		<text transform="matrix(1 0 0 1 -1931.9987 -572.4729)" style="font-family:'Inconsolata-Regular'; font-size:13.9143px;">Fish District</text>
		<text transform="matrix(1 0 0 1 -1931.9987 -422.1729)" style="font-family:'Inconsolata-Regular'; font-size:13.9143px;">A restaurant website built </text>
		<text transform="matrix(1 0 0 1 -1931.9987 -405.4729)" style="font-family:'Inconsolata-Regular'; font-size:13.9143px;">primarily with Bootstrap and </text>
		<text transform="matrix(1 0 0 1 -1931.9987 -388.7729)" style="font-family:'Inconsolata-Regular'; font-size:13.9143px;">jQuery, fishdistrict.com is </text>
		<text transform="matrix(1 0 0 1 -1931.9987 -372.0729)" style="font-family:'Inconsolata-Regular'; font-size:13.9143px;">also SEO-optimized and fea</text>
		<text transform="matrix(1 0 0 1 -1751.0986 -372.0729)" style="font-family:'Inconsolata-Regular'; font-size:13.9143px;">-</text>
		<text transform="matrix(1 0 0 1 -1931.9987 -355.3729)" style="font-family:'Inconsolata-Regular'; font-size:13.9143px;">tures a fully functional </text>
		<text transform="matrix(1 0 0 1 -1931.9987 -338.6729)" style="font-family:'Inconsolata-Regular'; font-size:13.9143px;">blog.</text>
	</g>
	<g id="XMLID_43_">
		<rect id="XMLID_218_" x="-1680.8" y="-581.7" class="st2" width="206.3" height="277.2"/>
		<text transform="matrix(1 0 0 1 -1680.7776 -572.4729)" style="font-family:'Inconsolata-Regular'; font-size:13.9143px;">Haikuthon</text>
		<text transform="matrix(1 0 0 1 -1680.7776 -505.6729)" style="font-family:'Inconsolata-Regular'; font-size:13.9143px;">&lt;placeholder&gt;</text>
		<text transform="matrix(1 0 0 1 -1680.7776 -422.1729)" style="font-family:'Inconsolata-Regular'; font-size:13.9143px;">A web app built to streamline </text>
		<text transform="matrix(1 0 0 1 -1680.7776 -405.4729)" style="font-family:'Inconsolata-Regular'; font-size:13.9143px;">efficiency of watching videos </text>
		<text transform="matrix(1 0 0 1 -1680.7776 -388.7729)" style="font-family:'Inconsolata-Regular'; font-size:13.9143px;">on r/youtubehaiku, utilizing </text>
		<text transform="matrix(1 0 0 1 -1680.7776 -372.0729)" style="font-family:'Inconsolata-Regular'; font-size:13.9143px;">Reddit and YouTube API.</text>
	</g>
	<g id="XMLID_45_">
		<rect id="XMLID_223_" x="-1429.6" y="-581.7" class="st2" width="206.3" height="277.2"/>
		<text transform="matrix(1 0 0 1 -1429.5566 -572.4729)" style="font-family:'Inconsolata-Regular'; font-size:13.9143px;">Get Caitlyn Home!</text>
		<text transform="matrix(1 0 0 1 -1429.5566 -388.7729)" style="font-family:'Inconsolata-Regular'; font-size:13.9143px;">A platformer sharing what </text>
		<text transform="matrix(1 0 0 1 -1429.5566 -372.0729)" style="font-family:'Inconsolata-Regular'; font-size:13.9143px;">goes through our minds when </text>
		<text transform="matrix(1 0 0 1 -1429.5566 -355.3729)" style="font-family:'Inconsolata-Regular'; font-size:13.9143px;">we fall out of a chair, built </text>
		<text transform="matrix(1 0 0 1 -1429.5566 -338.6729)" style="font-family:'Inconsolata-Regular'; font-size:13.9143px;">in Unity using C#.</text>
	</g>
	<g id="XMLID_54_">
		<polygon id="XMLID_404_" points="-1031.7,-568.4 -965.5,-700.8 -899.2,-568.4 		"/>
		<path id="XMLID_401_" class="st4" d="M-965.5-697.5l63.8,127.6h-127.6L-965.5-697.5 M-965.5-704.2l-68.6,137.3h137.3L-965.5-704.2
			L-965.5-704.2z"/>
	</g>
	<path id="XMLID_316_" class="st5" d="M-281.8,271.6c-2.2-14.6-8.5-27-18.9-37.4c-10-9.9-22-15.9-35.8-18.2
		c-2.2-0.4-4.4-0.6-6.6-0.9c-0.1,0-0.2,0-0.3,0c-1.6-0.1-4.6-0.3-7.4,0l0,0c-0.1,0-0.2,0-0.3,0s-0.3,0-0.4,0l0,0
		c-1.7,0.2-3.4,0.4-5,0.7c-20.4,3.3-36,13.7-46.9,31.2c-5.5,8.8-8.5,18.6-9.3,29c0,0.4-0.2,0.7-0.2,1.1c0,2.6,0,5.2,0,7.7
		c0.3,2.5,0.5,4.9,1,7.4c5.3,26,20.6,43.2,45.7,51.8c4.7,1.6,9.5,2.4,14.5,2.7c0.4,0,0.7,0.1,1.1,0.2c2.4,0,4.8,0,7.2,0
		c2-0.2,4-0.5,6-0.8c15.8-2.4,29-9.6,39.6-21.4c8.5-9.5,13.8-20.7,15.8-33.3c0.4-2.3,0.6-4.6,0.9-6.9c0-2.4,0-4.8,0-7.2
		C-281.3,275.5-281.5,273.6-281.8,271.6z M-328,335.6c-3.1,1.1-4.8-0.2-4.8-3.4c0-4.9,0-9.9,0-14.8c0-4-0.7-7.8-3.7-10.9
		c2.1-0.4,4.2-0.6,6.1-1.2c2.8-0.9,5.7-1.7,8.3-3c4.6-2.3,7.9-6.1,9.7-10.9c2.2-5.9,2.9-12,1.8-18.2c-0.6-3.6-2.2-6.8-4.5-9.5
		c-0.6-0.7-0.7-1.3-0.4-2.2c1.3-4.5,0.8-8.9-0.8-13.2c-0.1-0.4-0.8-0.8-1.2-0.8c-1.9,0.3-4,0.5-5.7,1.2c-2.8,1.1-5.3,2.7-8,4.1
		c-0.6,0.3-1.3,0.5-1.9,0.3c-9.1-2.4-18.2-2.4-27.3,0c-0.6,0.1-1.3-0.1-1.9-0.4c-3.6-2.2-7.3-4.2-11.4-5.1c-3.1-0.6-3.4-0.5-4.2,2.5
		c-1.1,3.9-1.3,7.8-0.1,11.8c0.1,0.4,0,1-0.2,1.3c-4.1,4.8-5.6,10.5-5.3,16.7c0.2,4.5,0.9,9,2.9,13.1c3.1,6.4,8.5,10,15.3,11.8
		c2.6,0.7,5.3,1.2,8.1,1.7c-1.9,2.1-2.9,4.5-3.5,7.2c-0.1,0.3-0.5,0.7-0.8,0.8c-6.3,2.4-12.4,1.5-16.2-5.1c-1.8-3.1-4.4-5.2-8.1-5.7
		c-1.1-0.2-2.6-0.4-3.1,0.8c-0.2,0.5,1,1.8,1.8,2.3c3,1.9,5.1,4.5,6.3,7.8c2.3,6.4,8.2,9.5,15.1,9.1c0.8,0,1.6-0.1,2.4-0.2
		c0.8-0.1,1.5-0.2,2.4-0.4c0,3.5,0.1,6.8,0,10.2c-0.1,2.1-2.3,3.3-4.4,2.4c-4-1.7-8.1-3.3-11.7-5.6c-16.2-10.1-25.4-24.7-27.3-43.4
		c-3-28.3,15.3-54.4,42.8-61.5c32-8.3,64.6,12,71.1,44.5C-284.8,297.8-300.9,326-328,335.6z"/>
	
		<image style="overflow:visible;enable-background:new    ;" width="784" height="587" id="XMLID_411_" xlink:href="C:\Users\Arten\Desktop\Career stuff\Portfolio website\portfolio\game.jpg"  transform="matrix(0.75 0 0 0.75 -720.1091 -956.7238)">
	</image>
	
		<text id="XMLID_415_" transform="matrix(1 0 0 1 -709.5417 -1973.3259)" style="font-family:'SpaceMono-Italic'; font-size:71.25px;">&lt;PLACEHOLDER&gt;</text>
	<g id="XMLID_409_">
		<path id="XMLID_527_" class="st6" d="M-514-1303.1v6.7h-5.9c-0.8,0-1.4,0.1-1.7,0.4c-0.3,0.2-0.5,0.6-0.5,1.2s0.2,1.1,0.5,1.3
			c0.3,0.2,1,0.3,2.1,0.3h6.1v8.7h-7.1c-3.3,0-5.9-0.8-7.6-2.4c-1.8-1.6-2.6-3.9-2.6-6.9v-11.9c0-2.9,0.8-5.2,2.5-6.8
			c1.7-1.6,4-2.4,7-2.4h7.8v8.7h-5.8c-1.6,0-2.3,0.5-2.3,1.5c0,0.6,0.2,1,0.5,1.2c0.4,0.2,1,0.4,2,0.4L-514-1303.1L-514-1303.1z
			 M-483.6-1299.8v8h-2.6v7.2h-9v-19.3c0-3.7,1-6.6,3.1-8.7c2-2.1,4.9-3.1,8.6-3.1c3.6,0,6.2,0.9,7.9,2.8c1.7,1.9,2.6,4.8,2.6,8.7
			v19.6h-9v-19c0-1.2-0.1-2-0.4-2.5c-0.3-0.5-0.8-0.7-1.5-0.7c-1.4,0-2.1,1.1-2.1,3.2v3.8H-483.6L-483.6-1299.8z M-440.8-1306.2
			v21.6h-9v-21.6h-6.9v-8.7h22.8v8.7H-440.8z M-400.8-1303.1v6.7h-5.9c-0.8,0-1.4,0.1-1.7,0.4c-0.3,0.2-0.5,0.6-0.5,1.2
			s0.2,1.1,0.5,1.3c0.3,0.2,1,0.3,2.1,0.3h6.1v8.7h-7.1c-3.3,0-5.9-0.8-7.6-2.4c-1.8-1.6-2.6-3.9-2.6-6.9v-11.9
			c0-2.9,0.8-5.2,2.5-6.8c1.7-1.6,4-2.4,7-2.4h7.8v8.7h-5.7c-1.6,0-2.3,0.5-2.3,1.5c0,0.6,0.2,1,0.6,1.2s1,0.4,2,0.4L-400.8-1303.1
			L-400.8-1303.1z M-372.3-1306.8v22.2h-9v-30.3h11.6c3.5,0,6.2,0.9,8.2,2.6c2.2,2,3.2,4.4,3.2,7.4c0,3.1-1.3,5.6-4,7.7l5.2,12.5
			h-9.5l-4.4-9.8v-7.8h0.7c1.9,0,2.8-0.8,2.8-2.4c0-1.4-1.1-2.1-3.3-2.1L-372.3-1306.8L-372.3-1306.8z M-319.1-1314.9l-8.6,13.5
			v16.8h-9v-16.8l-8.6-13.5h9.1l3.9,6.2l4.2-6.2H-319.1L-319.1-1314.9z"/>
		<path id="XMLID_512_" class="st6" d="M-699.5-1344.3v-3.4h11.8v-120.6h-11.8v-3.4l48.6-0.3c7.2,0,14,1.8,20.6,5.4
			s12.4,8.3,17.4,14.2c5,5.9,9.1,12.7,12.3,20.5c3.1,7.9,4.6,15.9,4.6,24c0,10.6-2.4,20.8-7.2,30.7c-4.9,9.9-11.6,17.8-20,24
			c-8.4,6-17.6,9-27.6,9L-699.5-1344.3L-699.5-1344.3z M-665.6-1347.7h15.8c21.2,0,31.8-20,31.8-60c0-16.1-2.6-30.2-7.8-42.5
			s-13.4-18.5-24.8-18.5h-15V-1347.7z M-586-1458v-3.4h11.8v-120.7H-586v-3.4h72.7v-3.1h3.5v39.5h-3.5v-12.7
			c0-8.3-2.7-13.7-8.1-16.3c-5.5-2.6-12.4-3.9-20.7-3.9h-9.9v71.2h8.4c1.3,0,2.2,0.1,2.8,0.3c4.5-0.2,7.9-1,10.1-2.5
			c2.4-1.3,3.6-4.4,3.6-9.3v-7.4h3.2v41h-3.5v-7.7c0-4.5-1.2-7.5-3.7-9c-2.5-1.4-5.9-2.2-10.3-2.2h-2.5h-8.1v46.3h10.2v3.4H-586
			V-1458z M-575.5-1344.3v-2.2h7.5v-77.6h-7.5v-2.2h29.3v2.2h-7.6v77.6h7.6v2.2H-575.5z M-532.6-1403.7c0.1-6.3,2.2-11.6,6.1-16.1
			c3.9-4.3,9.3-6.5,16.3-6.5c2.8,0,5.3,0.3,7.6,0.9c2.3,0.6,4.6,1.3,7.1,2.2v-5.1h2.3v25.4h-2.3v-9.4c-1-3.3-2.9-6.1-5.6-8.3
			c-2.7-2.2-5.7-3.3-8.8-3.3c-4.8,0-8.4,0.9-10.8,2.8c-2.5,1.9-3.9,4.5-4,7.6c0.2,3.5,1.7,7.1,4.6,10.9c2.9,3.9,7,7.4,12.5,10.7
			c11.7,6.9,17.5,15.2,17.5,25c0,3.9-1,7.5-3.1,11c-2.1,3.5-4.7,6.3-7.9,8.4c-3.2,2.1-6.5,3.2-9.8,3.2c-3.3,0-6.5-0.3-9.5-1
			s-6.2-2-9.6-3.8v6.7h-2.3v-25.6h2.3v9.5c1.6,3.4,4.2,6.2,7.6,8.5c3.5,2.3,7,3.4,10.6,3.5c3.3-0.4,6-1.5,8.2-3.2
			c2.2-1.7,3.2-4.1,3.2-7.2s-1.2-6.3-3.4-9.6c-3.4-5.1-9.7-10.9-18.8-17.6c-3.1-2.3-5.5-5.1-7.1-8.6
			C-531.5-1396.2-532.4-1399.8-532.6-1403.7z M-494.4-1458v-3.4h11.7v-120.7h-11.7v-3.4h45.5v3.4h-11.8v120.7h11.8v3.4H-494.4
			L-494.4-1458z M-478-1402.9v-25.4h2.3v2h46.3v-2h2v25.4h-2v-8.2c0-4.1-1.2-7.3-3.5-9.6c-2.3-2.3-5.4-3.4-9.3-3.4h-3.4v77.6h7.6
			v2.2h-29.4v-2.2h7.6v-77.6h-3.2c-4,0-7.1,1.2-9.4,3.6c-2.3,2.4-3.4,5.5-3.4,9.4v8.2H-478L-478-1402.9z M-435.6-1550.4
			c0.2-9.7,3.4-18.1,9.5-25c6-6.7,14.5-10.1,25.3-10.1c4.4,0,8.3,0.5,11.8,1.4s7.2,2.1,11,3.5v-8h3.5v39.5h-3.5v-14.6
			c-1.6-5.2-4.5-9.5-8.8-12.9c-4.3-3.4-8.8-5.1-13.7-5.1c-7.5,0-13.1,1.5-16.9,4.3c-3.9,3-6,6.9-6.2,11.8c0.3,5.4,2.7,11,7.2,16.9
			c4.5,6,11,11.6,19.5,16.6c18.2,10.8,27.3,23.7,27.3,38.8c0,6-1.6,11.7-4.9,17.1c-3.2,5.5-7.3,9.9-12.4,13.1c-5,3.3-10.1,5-15.3,5
			c-5.2,0-10.1-0.5-14.8-1.6c-4.7-1-9.7-3-15-6v10.4h-3.5v-39.8h3.5v14.8c2.5,5.3,6.5,9.7,11.9,13.2s10.9,5.4,16.5,5.5
			c5.1-0.7,9.3-2.4,12.8-5.1c3.4-2.6,5-6.4,5-11.2c0-4.9-1.8-9.8-5.3-14.9c-5.3-7.9-15.1-17-29.3-27.4c-4.8-3.5-8.5-8-11.1-13.4
			C-434-1538.7-435.4-1544.4-435.6-1550.4z M-414.8-1344.3v-2.2h7.6v-77.6h-7.6v-2.2h28.3c4.8,0,9.2,1,13.2,3c4,2.1,7.3,4.9,9.9,8.4
			c2.5,3.5,4,7.6,4.3,12.2c0,0.7,0,1.4,0,2.1c0,10.3-3.4,16.8-10.2,19.5l-4.9,1.9l2.1,0.6c3.6,0.7,6.6,2,9,3.8
			c2.8,2.1,4.2,6.7,4.2,13.8c0.2,4.8,0.4,7.8,0.6,9c0.1,1.3,0.8,2.3,1.9,2.8c0.1,0,0.2,0,0.3,0v0.2c0.7-0.1,1.4-0.4,2.2-1
			c0.8-0.7,1.4-1.3,1.8-1.8l2-2.2l1.7,1.4l-2.1,2.4c-3.1,3.7-6.9,5.6-11.2,5.8c-1.3-0.3-2.3-0.5-2.8-0.6c-3.7-1.2-5.8-3.1-6.5-5.6
			c-0.6-2.5-1.1-6.7-1.5-12.5c-0.4-5.7-1.6-9.5-3.5-11.4c-0.9-1-2.5-1.4-4.6-1.4h-3h-9.4v29.2h7.6v2.4L-414.8-1344.3L-414.8-1344.3
			L-414.8-1344.3z M-393-1378.1h2c10.8,0,16.1-7.8,16.1-23.3c0-0.5,0-1,0-1.5c-0.4-14.1-5.6-21.2-15.6-21.2h-2.5V-1378.1
			L-393-1378.1z M-356.8-1458v-3.4h11.8v-120.7h-11.8v-3.4h44.2v3.4h-10.3v71.8h32v-71.8h-12.2v-3.4h44.2v3.4h-10v120.7h10v3.4
			h-44.2v-3.4h12.2v-45.4h-32v45.4h10.3v3.4H-356.8L-356.8-1458z M-334-1344.3v-2.2h7.5v-77.6h-7.5v-2.2h29.3v2.2h-7.6v77.6h7.6v2.2
			H-334z M-290.7-1385.2c0-6.9,1.6-13.5,4.9-19.8c3.3-6.4,7.7-11.5,13.2-15.4c5.4-3.9,11.1-5.8,16.9-5.8c2.7,0,5.2,0.3,7.3,0.8
			c2.2,0.5,4.6,1.3,7.3,2.4v-5.1h2.2v25.4h-2.2v-14.6c-4-3.9-8.8-6-14.2-6.4c-0.4,0-0.8,0-1.2,0c-3.1,0-5.8,0.9-8.3,2.7
			c-2.8,2.1-5,5-6.7,8.6c-1.7,3.6-2.9,7.4-3.7,11.5s-1.2,8.6-1.3,13.5c0.1,0.5,0.2,1.3,0.2,2.4c0.1,7.4,0.7,13.6,1.7,18.7
			c0.9,5.2,2.9,9.6,5.9,13.4c2.9,3.7,7.2,5.8,12.8,6.2c0.9,0,1.6,0,2.2,0.1c0.6,0.1,1.2,0.1,1.9,0.2c6.2-0.1,11.8-2.1,16.8-6.1v3.6
			c-5.9,3.1-11.9,4.6-18,4.6c-5.3,0-10.2-1.1-14.9-3.4c-4.7-2.2-8.7-5.3-12-9.1c-3.3-3.7-6-8.1-7.9-13.1
			C-289.7-1374.9-290.7-1380-290.7-1385.2z M-220.2-1435.4v-39.5h3.5v3.1h72.1v-3.1h3.1v39.5h-3.1v-12.8c0-6.4-1.8-11.4-5.5-14.9
			c-3.6-3.5-8.5-5.3-14.5-5.3h-5.2v120.6h11.8v3.4h-45.8v-3.4h11.9v-120.6h-5c-6.2,0-11.1,1.9-14.6,5.6s-5.3,8.6-5.3,14.6v12.8
			L-220.2-1435.4L-220.2-1435.4z"/>
		<path id="XMLID_511_" class="st6" d="M-308.4-1305.3c3.3,0,6,2.7,6,6s-2.7,6-6,6c-3.3,0-6-2.7-6-6
			C-314.4-1302.6-311.7-1305.3-308.4-1305.3z"/>
		<path id="XMLID_510_" class="st6" d="M-543.8-1305.3c3.3,0,6,2.7,6,6s-2.7,6-6,6s-6-2.7-6-6
			C-549.9-1302.6-547.2-1305.3-543.8-1305.3z"/>
		<g id="XMLID_507_">
			<rect id="XMLID_509_" x="-293.8" y="-1304" class="st6" width="159.6" height="2.7"/>
			<rect id="XMLID_508_" x="-293.8" y="-1297.4" class="st6" width="159.6" height="2.7"/>
		</g>
		<g id="XMLID_410_">
			<rect id="XMLID_506_" x="-718" y="-1304" class="st6" width="159.6" height="2.7"/>
			<rect id="XMLID_505_" x="-718" y="-1297.4" class="st6" width="159.6" height="2.7"/>
		</g>
	</g>
	<g id="XMLID_96_">
		<path id="XMLID_172_" d="M787.6,215.2c0,12.4,0,24.3,0,36.2c0,9,1.8,10.7,10.7,10.7c10.3,0,20.7,0,31,0c1.7,0,3.4,0.1,5.3,0.2
			c0.1,1.9,0.2,3.4,0.2,5c0,23.2,0,46.4,0,69.5c0,8.2-1.8,10.1-9.9,10.1c-31.2,0-62.3,0-93.5,0c-7.6,0-9.6-1.9-9.6-9.4
			c0-37.8,0-75.5,0-113.3c0-7.3,2-9.3,9.2-9.3c17.4,0,34.8,0,52.2,0C784.4,215,785.7,215.1,787.6,215.2z M778.1,300.2
			c8,0,16-0.1,23.9,0c3.6,0.1,5-1.2,5-4.9c0-3.5-1-5.2-4.8-5.2c-16,0.1-31.9,0.1-47.9,0c-3.8,0-4.8,1.7-4.8,5.2c0,3.7,1.3,5,5,4.9
			C762.5,300.1,770.3,300.2,778.1,300.2z M778.4,271.3c-7.8,0-15.6,0.1-23.4,0c-3.8-0.1-5.3,1.3-5.3,5.2c0,3.7,1.6,4.9,5.1,4.9
			c15.8-0.1,31.6-0.1,47.4,0c3.5,0,5-1.2,5-5c0-4-1.6-5.2-5.3-5.2C794,271.4,786.2,271.3,778.4,271.3z M778.4,309.3
			c-8,0-15.9,0.1-23.9-0.1c-3.7-0.1-4.9,1.4-4.9,5c0,3.7,1.5,4.9,5,4.8c15.8-0.1,31.6-0.1,47.3,0c3.5,0,5-1,5.1-4.8
			c0.1-4-1.5-5.2-5.3-5.1C794,309.5,786.2,309.3,778.4,309.3z"/>
		<path id="XMLID_171_" d="M797.7,251.9c0-11.1,0-22,0-31.8c10.5,10.3,21.5,21.2,32.3,31.8C820.1,251.9,809.2,251.9,797.7,251.9z"/>
	</g>
</g>
</svg>
