<?xml version="1.0" encoding="utf-8"?>
<!-- Generator: Adobe Illustrator 19.0.0, SVG Export Plug-In . SVG Version: 6.00 Build 0)  -->
<svg version="1.1" id="Layer_1" xmlns="http://www.w3.org/2000/svg" xmlns:xlink="http://www.w3.org/1999/xlink" x="0px" y="0px"
	 viewBox="-413 212.5 132 136.5" style="enable-background:new -413 212.5 132 136.5;" xml:space="preserve">
<style type="text/css">
	.st0{opacity:0.32;fill:none;stroke:#231F20;stroke-width:4;stroke-miterlimit:10;enable-background:new    ;}
	.st1{opacity:0.39;fill:#838383;enable-background:new    ;}
	.st2{fill:none;}
	.st3{fill:#333333;}
	.st4{fill:#FDFDFD;}
	.st5{fill:#FFFFFF;}
	.st6{fill:#735347;}
</style>
<g id="PAGES">
	<rect id="XMLID_6_" x="-1676.1" y="-1205.1" class="st0" width="960" height="492.1"/>
	<rect id="XMLID_8_" x="-1676.1" y="-713" class="st0" width="960" height="492.1"/>
	<rect id="XMLID_14_" x="-1676.1" y="-220.9" class="st0" width="960" height="492.1"/>
	<rect id="XMLID_44_" x="-1676.1" y="271.3" class="st0" width="960" height="492.1"/>
</g>
<g id="Layer_1_1_">
	<text transform="matrix(1 0 0 1 -1510.1448 -975.5331)" style="font-family:'SpaceMono-Regular'; font-size:52.0327px;">artem</text>
	<text transform="matrix(1 0 0 1 -1510.1448 -913.1331)" style="font-family:'SpaceMono-Regular'; font-size:52.0327px;">druzhkov.</text>
	
		<text id="XMLID_2_" transform="matrix(1 0 0 1 -1101.6411 -1150.5034)" style="font-family:'Inconsolata-Regular'; font-size:13.9143px;">PORTFOLIO          ABOUT          CONTACT</text>
	
		<text id="XMLID_3_" transform="matrix(1 0 0 1 -1510.1448 -877.5571)" style="fill:#838383; font-family:'Roboto-Thin'; font-size:12px;">FRONT-END / BACK-END / BRAND DESIGN</text>
	<g id="XMLID_5_">
		
			<text id="XMLID_128_" transform="matrix(1 0 0 1 -1257.4612 -641.2224)" style="font-family:'SpaceMono-Regular'; font-size:22.2658px;">PORTFOLIO</text>
	</g>
	<g id="XMLID_10_">
		
			<text id="XMLID_129_" transform="matrix(1 0 0 1 -1230.2078 -149.1191)" style="font-family:'SpaceMono-Regular'; font-size:22.2658px;">ABOUT</text>
	</g>
	<g id="XMLID_41_">
		<text transform="matrix(1 0 0 1 -1243.8347 342.9843)" style="font-family:'SpaceMono-Regular'; font-size:22.2658px;">CONTACT</text>
		<text transform="matrix(1 0 0 1 -1475.5347 369.6843)" style="font-family:'SpaceMono-Regular'; font-size:22.2658px;">(currently searching for </text>
		<text transform="matrix(1 0 0 1 -1134.8347 369.6843)" style="font-family:'SpaceMono-Bold'; font-size:22.2658px;">front-end work!</text>
		<text transform="matrix(1 0 0 1 -930.4347 369.6843)" style="font-family:'SpaceMono-Regular'; font-size:22.2658px;">)</text>
	</g>
	<rect id="XMLID_4_" x="-1299.3" y="-584.2" class="st1" width="206.3" height="277.2"/>
	<g id="XMLID_15_">
		<rect id="XMLID_196_" x="-1277.8" y="-113.4" class="st2" width="206.3" height="277.2"/>
		
			<text transform="matrix(1 0 0 1 -1277.8232 -104.1303)" style="font-family:'Inconsolata-Regular'; font-size:13.9143px; letter-spacing:33;"> </text>
		<text transform="matrix(1 0 0 1 -1236.1233 -104.1303)" style="font-family:'Inconsolata-Regular'; font-size:13.9143px;">A front-end developer </text>
		<text transform="matrix(1 0 0 1 -1277.8232 -87.4303)" style="font-family:'Inconsolata-Regular'; font-size:13.9143px;">with several years of practi</text>
		<text transform="matrix(1 0 0 1 -1083.0233 -87.4303)" style="font-family:'Inconsolata-Regular'; font-size:13.9143px;">-</text>
		<text transform="matrix(1 0 0 1 -1277.8232 -70.7303)" style="font-family:'Inconsolata-Regular'; font-size:13.9143px;">cal experience in marketing, </text>
		<text transform="matrix(1 0 0 1 -1277.8232 -54.0303)" style="font-family:'Inconsolata-Regular'; font-size:13.9143px;">creative design, and brand</text>
		<text transform="matrix(1 0 0 1 -1096.9233 -54.0303)" style="font-family:'Inconsolata-Regular'; font-size:13.9143px;">-</text>
		<text transform="matrix(1 0 0 1 -1277.8232 -37.3303)" style="font-family:'Inconsolata-Regular'; font-size:13.9143px;">ing.</text>
		
			<text transform="matrix(1 0 0 1 -1277.8232 -3.9303)" style="font-family:'Inconsolata-Regular'; font-size:13.9143px; letter-spacing:33;"> </text>
		<text transform="matrix(1 0 0 1 -1236.1233 -3.9303)" style="font-family:'Inconsolata-Regular'; font-size:13.9143px;">To achieve a wide range </text>
		<text transform="matrix(1 0 0 1 -1277.8232 12.7697)" style="font-family:'Inconsolata-Regular'; font-size:13.9143px;">of marketing goals, Artem </text>
		<text transform="matrix(1 0 0 1 -1277.8232 29.4697)" style="font-family:'Inconsolata-Regular'; font-size:13.9143px;">combines his business educa</text>
		<text transform="matrix(1 0 0 1 -1090.0233 29.4697)" style="font-family:'Inconsolata-Regular'; font-size:13.9143px;">-</text>
		<text transform="matrix(1 0 0 1 -1277.8232 46.1697)" style="font-family:'Inconsolata-Regular'; font-size:13.9143px;">tion with a wide range of </text>
		<text transform="matrix(1 0 0 1 -1277.8232 62.8697)" style="font-family:'Inconsolata-Regular'; font-size:13.9143px;">creative and technical skills </text>
		<text transform="matrix(1 0 0 1 -1277.8232 79.5697)" style="font-family:'Inconsolata-Regular'; font-size:13.9143px;">to produce high-quality web</text>
		<text transform="matrix(1 0 0 1 -1090.0233 79.5697)" style="font-family:'Inconsolata-Regular'; font-size:13.9143px;">-</text>
		<text transform="matrix(1 0 0 1 -1277.8232 96.2697)" style="font-family:'Inconsolata-Regular'; font-size:13.9143px;">sites, exceptional user expe</text>
		<text transform="matrix(1 0 0 1 -1083.0233 96.2697)" style="font-family:'Inconsolata-Regular'; font-size:13.9143px;">-</text>
		<text transform="matrix(1 0 0 1 -1277.8232 112.9697)" style="font-family:'Inconsolata-Regular'; font-size:13.9143px;">riences, and a telling brand </text>
		<text transform="matrix(1 0 0 1 -1277.8232 129.6697)" style="font-family:'Inconsolata-Regular'; font-size:13.9143px;">story.</text>
	</g>
	<g id="XMLID_28_">
		<rect id="XMLID_198_" x="-1027.8" y="-113.4" class="st2" width="206.3" height="277.2"/>
		
			<text transform="matrix(1 0 0 1 -1027.8232 -104.1303)" style="font-family:'Inconsolata-Regular'; font-size:13.9143px; letter-spacing:33;"> </text>
		<text transform="matrix(1 0 0 1 -986.1233 -104.1303)" style="font-family:'Inconsolata-Regular'; font-size:13.9143px;">Ambitious in many </text>
		<text transform="matrix(1 0 0 1 -1027.8232 -87.4303)" style="font-family:'Inconsolata-Regular'; font-size:13.9143px;">arenas, Artem brings a unique </text>
		<text transform="matrix(1 0 0 1 -1027.8232 -70.7303)" style="font-family:'Inconsolata-Regular'; font-size:13.9143px;">view and to the team, and an </text>
		<text transform="matrix(1 0 0 1 -1027.8232 -54.0303)" style="font-family:'Inconsolata-Regular'; font-size:13.9143px;">exceptional drive to the </text>
		<text transform="matrix(1 0 0 1 -1027.8232 -37.3303)" style="font-family:'Inconsolata-Regular'; font-size:13.9143px;">table.</text>
		
			<text transform="matrix(1 0 0 1 -1027.8232 -20.6303)" style="font-family:'Inconsolata-Regular'; font-size:13.9143px; letter-spacing:33;"> </text>
		
			<text transform="matrix(1 0 0 1 -1027.8232 -3.9303)" style="font-family:'Inconsolata-Regular'; font-size:13.9143px; letter-spacing:33;"> </text>
		<text transform="matrix(1 0 0 1 -986.1233 -3.9303)" style="font-family:'Inconsolata-Regular'; font-size:13.9143px;">Of course, that’s not </text>
		<text transform="matrix(1 0 0 1 -1027.8232 12.7697)" style="font-family:'Inconsolata-Regular'; font-size:13.9143px;">the reason why he’s into mo</text>
		<text transform="matrix(1 0 0 1 -840.0233 12.7697)" style="font-family:'Inconsolata-Regular'; font-size:13.9143px;">-</text>
		<text transform="matrix(1 0 0 1 -1027.8232 29.4697)" style="font-family:'Inconsolata-Regular'; font-size:13.9143px;">torsports, jiu-jitsu, making </text>
		<text transform="matrix(1 0 0 1 -1027.8232 46.1697)" style="font-family:'Inconsolata-Regular'; font-size:13.9143px;">video games, or programming. </text>
		<text transform="matrix(1 0 0 1 -1027.8232 62.8697)" style="font-family:'Inconsolata-Regular'; font-size:13.9143px;">He’s just a curious fellow </text>
		<text transform="matrix(1 0 0 1 -1027.8232 79.5697)" style="font-family:'Inconsolata-Regular'; font-size:13.9143px;">like that.</text>
	</g>
	<rect id="XMLID_9_" x="-1550.5" y="-584.2" class="st1" width="206.3" height="277.2"/>
	<rect id="XMLID_12_" x="-1048.1" y="-584.2" class="st1" width="206.3" height="277.2"/>
	
		<image style="overflow:visible;enable-background:new    ;" width="2759" height="2751" id="XMLID_7_" xlink:href="../../../../pics of me/circle.png"  transform="matrix(7.385288e-002 0 0 7.385288e-002 -1560.2346 -76.3834)">
	</image>
	<g id="XMLID_13_">
		<path id="XMLID_100_" d="M-859.6,514.8c3,0.3,5.7-0.5,8.1-2.3c-1.2-0.1-2.3-0.4-3.2-1.1c-0.9-0.7-1.6-1.6-2-2.7
			c0.8,0.1,1.6,0.1,2.5-0.1c-1.3-0.3-2.4-0.9-3.2-2c-0.8-1-1.2-2.2-1.2-3.5c0.4,0.2,0.8,0.3,1.2,0.4s0.8,0.2,1.2,0.2
			c-1.3-1-2.1-2.3-2.3-4c-0.1-1.2,0.1-2.3,0.7-3.4c3,3.5,6.8,5.4,11.4,5.8c0-0.4-0.1-0.7-0.1-1c-0.1-1.2,0.2-2.4,1-3.4
			c1-1.5,2.5-2.3,4.3-2.4c1.6-0.1,2.9,0.4,4.1,1.5c0.2,0.2,0.4,0.2,0.6,0.2c1-0.2,2-0.6,2.9-1.1c0.1,0,0.1-0.1,0.3-0.1
			c-0.4,1.3-1.2,2.3-2.3,3c1-0.1,2-0.4,3-0.8c-0.1,0.1-0.2,0.3-0.3,0.4s-0.2,0.3-0.3,0.4c-0.6,0.7-1.2,1.3-2,1.9
			c-0.1,0.1-0.2,0.2-0.2,0.4c0.1,3-0.6,5.7-2.1,8.3c-1,1.9-2.4,3.5-4.1,4.8c-1.7,1.3-3.7,2.2-5.8,2.7c-1.9,0.4-3.9,0.5-5.8,0.3
			C-855.5,516.9-857.6,516.1-859.6,514.8C-859.6,514.9-859.6,514.9-859.6,514.8z"/>
	</g>
	<g id="XMLID_194_">
		<path id="XMLID_195_" d="M331.9,320.2c14.8,1.3,27.9-2.3,39.9-11.3c-6-0.3-11.2-2-15.8-5.4c-4.5-3.4-7.7-7.8-9.6-13.4
			c4.1,0.7,8,0.6,12.1-0.5c-6.5-1.5-11.6-4.7-15.6-9.6c-4-5-6-10.7-6-17.2c2,0.8,3.8,1.6,5.8,2.2c1.9,0.5,4,0.8,6.1,1
			c-6.6-5-10.5-11.4-11.5-19.5c-0.7-5.8,0.5-11.4,3.5-16.6c14.7,17.3,33.3,26.8,55.9,28.4c-0.2-1.7-0.4-3.3-0.5-5
			c-0.4-6.1,1.2-11.7,4.7-16.6c5.1-7.2,12.1-11.2,20.9-11.8c7.7-0.5,14.4,2,20,7.3c1,0.9,1.8,1.2,3.1,0.8c5-1.2,9.7-3,14.1-5.5
			c0.3-0.2,0.7-0.4,1.3-0.7c-2.1,6.4-6,11.1-11.3,14.7c5.1-0.5,9.9-1.9,14.7-3.7c-0.5,0.6-0.9,1.3-1.4,1.9c-0.5,0.7-1,1.4-1.5,2
			c-2.8,3.4-6,6.5-9.6,9.1c-0.6,0.5-0.8,0.9-0.8,1.7c0.4,14.6-3.2,28.3-10.2,41c-5.1,9.1-11.7,17-20,23.4c-8.5,6.6-18,11-28.4,13.4
			c-9.4,2.2-19,2.6-28.6,1.4c-11.1-1.4-21.4-5.2-30.9-11.1C332.3,320.5,332.3,320.5,331.9,320.2z"/>
	</g>
	<g id="XMLID_76_">
		<path id="XMLID_112_" d="M-1316.9,516.4c0-5.8,0-11.5,0-17.3c0.1,0,0.2,0,0.2,0c1.8,0,3.5,0,5.3,0c0.2,0,0.3,0.1,0.3,0.3
			c0,0.7,0,1.4,0,2.1c0.2-0.3,0.4-0.5,0.6-0.7c1-1.2,2.2-1.9,3.8-2c1.4-0.1,2.7,0,3.9,0.6c1.1,0.5,1.9,1.4,2.5,2.4
			c0.8,1.4,1,3,1,4.7c0,3.3,0,6.5,0,9.8c0,0.1,0,0.1,0,0.2c-1.9,0-3.8,0-5.8,0c0-0.1,0-0.2,0-0.3c0-2.9,0-5.9,0-8.8
			c0-0.8-0.1-1.5-0.3-2.3c-0.4-1.2-1.5-1.9-2.8-1.8c-1.4,0.1-2.3,0.9-2.8,2.3c-0.1,0.4-0.1,0.9-0.1,1.4c0,3.1,0,6.1,0,9.2
			c0,0.3,0,0.3-0.3,0.3c-1.7,0-3.5,0-5.2,0C-1316.7,516.4-1316.8,516.4-1316.9,516.4z"/>
		<path id="XMLID_111_" d="M-1320.1,516.4c-0.1,0-0.2,0-0.2,0c-1.8,0-3.5,0-5.3,0c-0.2,0-0.3-0.1-0.3-0.3c0-5.6,0-11.2,0-16.8
			c0-0.2,0-0.3,0.3-0.3c1.8,0,3.5,0,5.3,0c0.1,0,0.1,0,0.2,0C-1320.1,504.9-1320.1,510.6-1320.1,516.4z"/>
		<path id="XMLID_110_" d="M-1323,496.7c-1.1,0-2.1-0.4-2.7-1.4c-1-1.5-0.5-3.8,1.6-4.4c1.1-0.3,2.2-0.3,3.2,0.4
			c1,0.7,1.3,1.7,1.2,2.8c-0.1,1.1-0.8,1.9-1.9,2.3C-1322.1,496.6-1322.5,496.7-1323,496.7C-1323,496.8-1323,496.8-1323,496.7z"/>
	</g>
	<g id="XMLID_186_">
		<path id="XMLID_189_" class="st3" d="M-367.3,338.7c0-28.4,0-56.7,0-85.1c0.4,0,0.7-0.1,1.1-0.1c8.6,0,17.2,0,25.9,0
			c1.1,0,1.3,0.3,1.3,1.3c-0.1,3.4,0,6.8,0,10.6c1-1.3,1.8-2.5,2.7-3.6c4.8-5.9,10.9-9.2,18.5-10c6.7-0.7,13.2,0.1,19.4,3
			c5.4,2.6,9.4,6.7,12.3,11.9c3.9,7.1,5.1,14.9,5.1,22.9c0.1,16,0,32.1,0,48.1c0,0.2,0,0.5,0,0.8c-9.4,0-18.7,0-28.3,0
			c0-0.5,0-0.9,0-1.4c0-14.5,0-28.9,0-43.4c0-3.8-0.3-7.6-1.6-11.2c-2.2-6.1-7.3-9.2-13.8-8.7c-7.1,0.6-11.5,4.7-13.7,11.1
			c-0.6,2.3-0.6,4.8-0.6,7.1c-0.1,15.1,0,30.2,0,45.3c0,1.4,0,1.4-1.4,1.4c-8.5,0-17,0-25.5,0C-366.4,338.7-366.8,338.7-367.3,338.7
			z"/>
		<path id="XMLID_188_" class="st3" d="M-383.1,338.7c-0.4,0-0.7,0-1.1,0c-8.6,0-17.2,0-25.8,0c-1,0-1.3-0.3-1.3-1.3
			c0-27.5,0-55.1,0-82.6c0-1,0.2-1.3,1.2-1.3c8.6,0,17.2,0,25.8,0c0.4,0,0.7,0,1.1,0.1C-383.1,282-383.1,310.3-383.1,338.7z"/>
		<path id="XMLID_187_" class="st3" d="M-397.2,242c-5.6-0.1-10.3-1.9-13.5-6.8c-4.7-7.3-2.2-18.7,8-21.8c5.4-1.6,10.8-1.3,15.5,2
			c4.8,3.4,6.6,8.2,5.8,13.9c-0.7,5.6-4,9.5-9.3,11.4c-2.1,0.7-4.3,1-6.5,1.4C-397.2,242.2-397.2,242.1-397.2,242z"/>
	</g>
	<g id="XMLID_67_">
		<path id="XMLID_119_" d="M-1066.1,503.1c0,0.5,0,1,0,1.5c-0.1,0.5-0.1,0.9-0.2,1.4c-0.4,2.6-1.5,4.8-3.2,6.8
			c-2.2,2.4-4.9,3.9-8.1,4.4c-0.4,0.1-0.8,0.1-1.2,0.2c-0.5,0-1,0-1.5,0c-0.1,0-0.2,0-0.2,0c-1-0.1-2-0.2-3-0.5
			c-5.1-1.7-8.2-5.2-9.3-10.5c-0.1-0.5-0.1-1-0.2-1.5c0-0.5,0-1,0-1.6c0-0.1,0-0.2,0-0.2c0.2-2.1,0.8-4.1,1.9-5.9
			c2.2-3.6,5.4-5.7,9.5-6.4c0.4-0.1,0.8-0.1,1.2-0.2c0.5,0,1,0,1.6,0c0.4,0.1,0.9,0.1,1.3,0.2c2.8,0.5,5.3,1.7,7.3,3.7
			c2.1,2.1,3.4,4.7,3.8,7.6C-1066.2,502.3-1066.1,502.7-1066.1,503.1z M-1082.4,512.4c-0.2,0-0.3,0.1-0.5,0.1s-0.3,0-0.5,0
			c-1.4,0.1-2.6-0.5-3.1-1.9c-0.2-0.7-0.7-1.2-1.3-1.6c-0.2-0.1-0.4-0.4-0.4-0.5c0.1-0.2,0.4-0.2,0.6-0.2c0.8,0.1,1.3,0.5,1.7,1.2
			c0.8,1.3,2,1.5,3.3,1c0.1,0,0.2-0.1,0.2-0.2c0.1-0.5,0.3-1,0.7-1.5c-0.6-0.1-1.1-0.2-1.7-0.4c-1.4-0.4-2.5-1.1-3.1-2.4
			c-0.4-0.8-0.6-1.7-0.6-2.7c-0.1-1.3,0.2-2.4,1.1-3.4c0-0.1,0.1-0.2,0-0.3c-0.2-0.8-0.2-1.6,0-2.4c0.2-0.6,0.2-0.6,0.9-0.5
			c0.9,0.2,1.6,0.6,2.3,1c0.1,0.1,0.3,0.1,0.4,0.1c1.9-0.5,3.7-0.5,5.6,0c0.1,0,0.3,0,0.4-0.1c0.5-0.3,1.1-0.6,1.6-0.8
			c0.4-0.1,0.8-0.2,1.2-0.2c0.1,0,0.2,0.1,0.2,0.2c0.3,0.9,0.4,1.8,0.2,2.7c-0.1,0.2,0,0.3,0.1,0.4c0.5,0.6,0.8,1.2,0.9,1.9
			c0.2,1.3,0.1,2.5-0.4,3.7c-0.4,1-1,1.8-2,2.2c-0.5,0.3-1.1,0.4-1.7,0.6c-0.4,0.1-0.8,0.2-1.2,0.2c0.6,0.6,0.8,1.4,0.8,2.2
			c0,1,0,2,0,3c0,0.7,0.4,0.9,1,0.7c5.5-1.9,8.8-7.7,7.7-13.4c-1.3-6.6-8-10.8-14.5-9.1c-5.6,1.5-9.3,6.8-8.7,12.5
			c0.4,3.8,2.3,6.8,5.5,8.8c0.7,0.5,1.6,0.8,2.4,1.1c0.4,0.2,0.9-0.1,0.9-0.5C-1082.4,513.8-1082.4,513.1-1082.4,512.4z"/>
	</g>
	<g id="XMLID_56_">
		<path id="XMLID_126_" d="M-1559.5,515.8c0-6.3,0-12.6,0-18.9c0.1,0,0.1-0.1,0.1-0.2c0.2-0.7,0.7-1.1,1.4-1.2c0.3,0,0.6,0,0.9,0
			c0.1,0.1,0.3,0.2,0.4,0.3c3.8,2.8,7.6,5.5,11.4,8.3c0.2,0.1,0.3,0.1,0.5,0c3.1-2.2,6.1-4.5,9.2-6.7c0.9-0.6,1.7-1.2,2.6-1.9
			c1.5-0.1,1.9,0.2,2.5,1.5c0,6.3,0,12.6,0,18.9c-0.1,0.1-0.1,0.2-0.1,0.2c-0.3,0.8-0.9,1.1-1.7,1.1c-0.6,0-1.2,0-1.8,0v-0.1
			c0-5.3,0-10.6,0-15.8c0-0.1,0-0.2,0-0.4c-0.1,0.1-0.2,0.1-0.3,0.2c-3.4,2.4-6.8,4.9-10.2,7.3c-0.3,0.2-0.4,0.2-0.7,0
			c-3.4-2.5-6.8-4.9-10.3-7.3c-0.1,0-0.1-0.1-0.3-0.1c0,0.3,0,0.7,0,1c0,4.9,0,9.9,0,14.8c0,0.1,0,0.3,0,0.4c-0.6,0-1.2,0-1.8,0
			c-0.5,0-0.9-0.2-1.2-0.5C-1559.2,516.5-1559.3,516.1-1559.5,515.8z"/>
		<g id="XMLID_117_">
			<path id="XMLID_155_" class="st4" d="M-1554,496.5h17.9l-2.1,1.5c-2.3,1.7-4.6,3.3-6.9,5C-1547.4,501.3-1554,496.5-1554,496.5z"
				/>
			<path id="XMLID_152_" d="M-1542.7,497.5h3.6c-2,1.4-3.9,2.9-5.9,4.3c-2-1.4-3.9-2.9-5.9-4.3H-1542.7 M-1542.7,495.5
				c-4.6,0-9.2,0-13.8,0c-0.2,0-0.3,0-0.5,0c0.1,0.1,0.3,0.2,0.4,0.3c3.8,2.8,7.6,5.5,11.4,8.3c0.1,0.1,0.2,0.1,0.3,0.1
				c0.1,0,0.2,0,0.3-0.1c3.1-2.2,6.1-4.5,9.2-6.7c0.9-0.6,1.7-1.2,2.6-1.9c-0.2,0-0.3,0-0.5,0
				C-1536.6,495.5-1539.7,495.5-1542.7,495.5L-1542.7,495.5z"/>
		</g>
		<g id="XMLID_34_">
			<path id="XMLID_150_" class="st4" d="M-1554.9,516.2v-13.4l0.3,0.2c2.9,2.1,5.8,4.1,8.6,6.2c0.3,0.2,0.6,0.3,0.9,0.3
				c0.4,0,0.7-0.2,0.9-0.3c2.8-2,5.7-4.1,8.5-6.1l0.4-0.3v13.4h-12.9L-1554.9,516.2z"/>
			<path id="XMLID_147_" d="M-1536.2,504.7v10.5l0,0h-4.5h-5h-8.1h-0.1v-10.5c2.5,1.8,4.9,3.5,7.3,5.3c0.5,0.3,1,0.5,1.5,0.5
				c0.8,0,1.3-0.4,1.5-0.5C-1541.1,508.2-1538.6,506.5-1536.2,504.7 M-1534.2,500.9c-0.1,0.1-0.2,0.1-0.3,0.2
				c-3.4,2.4-6.8,4.9-10.2,7.3c-0.1,0.1-0.2,0.2-0.4,0.2c-0.1,0-0.2,0-0.3-0.1c-3.4-2.5-6.8-4.9-10.3-7.3c-0.1,0-0.1-0.1-0.2-0.1
				l0,0c0,0.3,0,0.7,0,1c0,4.9,0,9.9,0,14.8c0,0.1,0,0.3,0,0.4c0.2,0,0.3,0,0.5,0c3.2,0,6.5,0,9.7,0c1.7,0,3.4,0,5,0
				c2.2,0,4.4,0,6.5,0v-0.1c0-5.3,0-10.6,0-15.8C-1534.2,501.1-1534.2,501-1534.2,500.9L-1534.2,500.9z"/>
		</g>
	</g>
	<g id="XMLID_208_">
		<path id="XMLID_221_" d="M769,325.2c0-31,0-62.1,0-93.1c0.4-0.2,0.4-0.6,0.5-0.9c1.2-3.3,3.6-5.3,7-5.9c1.5-0.2,3-0.1,4.5-0.1
			c0.5,0.7,1.2,0.9,1.9,1.4c18.6,13.6,37.3,27.1,55.9,40.7c1,0.7,1.5,0.7,2.5,0c15.1-11,30.2-22,45.3-32.9c4.2-3,8.4-6.1,12.5-9.2
			c7.3-0.3,9.1,0.8,12.1,7.1c0,30.9,0,61.9,0,92.8c-0.5,0.2-0.5,0.8-0.6,1.2c-1.6,3.7-4.4,5.5-8.4,5.5c-2.9,0-5.8,0-8.7,0
			c0-0.2-0.1-0.4-0.1-0.5c0-25.9,0-51.9,0-77.8c0-0.6,0-1.2,0-2c-0.6,0.4-1,0.7-1.4,0.9c-16.8,12-33.5,24-50.2,36
			c-1.3,0.9-2.1,1-3.4,0.1c-16.8-12.1-33.6-24.1-50.4-36.1c-0.3-0.2-0.6-0.6-1.2-0.5c0,1.7,0,3.4,0,5.1c0,24.3,0,48.6,0,72.9
			c0,0.6,0,1.3,0,1.9c-3,0-6,0-9,0c-2.4,0-4.4-0.9-6.1-2.5C770.3,328.2,769.8,326.6,769,325.2z"/>
		<g id="XMLID_215_">
			<path id="XMLID_240_" class="st4" d="M840.1,266.8c-0.1,0-0.4-0.1-0.7-0.3c-11.8-8.6-23.6-17.2-35.5-25.8
				c-6.7-4.8-13.3-9.7-20-14.5h112.2l-1.6,1.2c-2.8,2.1-5.7,4.1-8.5,6.2l-11.3,8.2c-11.3,8.2-22.6,16.4-33.9,24.7
				C840.5,266.7,840.3,266.8,840.1,266.8z"/>
			<path id="XMLID_237_" d="M850.3,227.1h42.8c-2.6,1.9-5.1,3.7-7.7,5.6l-11.4,8.2c-11.1,8.1-22.6,16.4-33.9,24.7c0,0,0,0-0.1,0
				c0,0,0,0-0.1-0.1c-11.8-8.6-23.7-17.2-35.5-25.8c-5.8-4.2-11.6-8.4-17.4-12.7C808.2,227.1,829.3,227.1,850.3,227.1 M850.3,225.1
				c-22.3,0-44.7,0-67,0c-0.7,0-1.5,0-2.2,0.1c0.5,0.7,1.2,0.9,1.9,1.4c18.6,13.6,37.3,27.1,55.9,40.7c0.5,0.3,0.9,0.5,1.3,0.5
				s0.8-0.2,1.2-0.5c15.1-11,30.2-22,45.3-32.9c4.2-3,8.4-6.1,12.5-9.2c-0.7,0-1.5-0.1-2.2-0.1C881.4,225.1,865.9,225.1,850.3,225.1
				L850.3,225.1z"/>
		</g>
		<g id="XMLID_209_">
			<path id="XMLID_244_" class="st4" d="M789.1,330.9c-0.4,0-0.9,0-1.3,0c0-0.3,0-0.6,0-1v-76.5l7.2,5.1
				c14.1,10.1,28.6,20.5,42.9,30.7c0.8,0.6,1.5,0.9,2.3,0.9c0.9,0,1.7-0.5,2.3-0.9c13.8-9.9,27.8-20,41.4-29.7l8.6-6.2v77.4h-7.9
				c-7.7,0-15.4,0-23.2,0h-26L789.1,330.9z"/>
			<path id="XMLID_241_" d="M891.5,255.4c0,24.8,0,49.7,0,74.5h-8c-7.3,0-14.7,0-22,0h-25.3h-38.1h-9c-0.1,0-0.2,0-0.3,0
				c0-21.8,0-43.6,0-65.3V257v-1.6l5.5,3.9c14.1,10.1,28.7,20.5,43,30.8c0.6,0.5,1.6,1.1,2.8,1.1c1.2,0,2.2-0.6,2.9-1.1
				c13.7-9.9,27.7-19.9,41.3-29.6L891.5,255.4 M893.5,251.5c-0.6,0.4-1,0.7-1.4,0.9c-16.8,12-33.5,24-50.2,36
				c-0.7,0.5-1.2,0.7-1.8,0.7c-0.5,0-1-0.2-1.7-0.7c-16.8-12.1-33.6-24.1-50.4-36.1c-0.3-0.2-0.5-0.5-1-0.5c-0.1,0-0.1,0-0.2,0
				c0,1.7,0,3.4,0,5.1c0,24.3,0,48.6,0,72.9c0,0.6,0,1.3,0,1.9c0.8,0,1.6,0,2.4,0c15.7,0,31.4,0,47,0c8.4,0,16.9,0,25.3,0
				c10.7,0,21.4,0,32.1,0c0-0.2-0.1-0.4-0.1-0.5c0-25.9,0-51.9,0-77.8C893.5,252.9,893.5,252.3,893.5,251.5L893.5,251.5z"/>
		</g>
	</g>
	
		<text id="XMLID_11_" transform="matrix(1 0 0 1 -1607.6359 542.8294)" style="font-family:'Inconsolata-Regular'; font-size:13.9143px;">artemdr1@gmail.com</text>
	
		<text id="XMLID_16_" transform="matrix(1 0 0 1 -1376.0442 542.8292)" style="font-family:'Inconsolata-Regular'; font-size:13.9143px;">/in/artemdruzhkov</text>
	
		<text id="XMLID_17_" transform="matrix(1 0 0 1 -1145.5872 542.8294)" style="font-family:'Inconsolata-Regular'; font-size:13.9143px;">github.com/artemdru</text>
	
		<text id="XMLID_18_" transform="matrix(1 0 0 1 -880.9995 542.8294)" style="font-family:'Inconsolata-Regular'; font-size:13.9143px;">/artem_dru</text>
	<g id="XMLID_21_">
		<rect id="XMLID_200_" x="-1550.5" y="-584.2" class="st2" width="206.3" height="277.2"/>
		<text transform="matrix(1 0 0 1 -1550.5308 -574.9729)" style="font-family:'Inconsolata-Regular'; font-size:13.9143px;">Fish District</text>
		<text transform="matrix(1 0 0 1 -1550.5308 -424.6729)" style="font-family:'Inconsolata-Regular'; font-size:13.9143px;">A restaurant website built </text>
		<text transform="matrix(1 0 0 1 -1550.5308 -407.9729)" style="font-family:'Inconsolata-Regular'; font-size:13.9143px;">primarily with Bootstrap and </text>
		<text transform="matrix(1 0 0 1 -1550.5308 -391.2729)" style="font-family:'Inconsolata-Regular'; font-size:13.9143px;">jQuery, fishdistrict.com is </text>
		<text transform="matrix(1 0 0 1 -1550.5308 -374.5729)" style="font-family:'Inconsolata-Regular'; font-size:13.9143px;">also SEO-optimized and fea</text>
		<text transform="matrix(1 0 0 1 -1369.6307 -374.5729)" style="font-family:'Inconsolata-Regular'; font-size:13.9143px;">-</text>
		<text transform="matrix(1 0 0 1 -1550.5308 -357.8729)" style="font-family:'Inconsolata-Regular'; font-size:13.9143px;">tures a fully functional </text>
		<text transform="matrix(1 0 0 1 -1550.5308 -341.1729)" style="font-family:'Inconsolata-Regular'; font-size:13.9143px;">blog.</text>
	</g>
	<g id="XMLID_43_">
		<rect id="XMLID_202_" x="-1299.3" y="-584.2" class="st2" width="206.3" height="277.2"/>
		<text transform="matrix(1 0 0 1 -1299.3098 -574.9729)" style="font-family:'Inconsolata-Regular'; font-size:13.9143px;">Haikuthon</text>
		<text transform="matrix(1 0 0 1 -1299.3098 -508.1729)" style="font-family:'Inconsolata-Regular'; font-size:13.9143px;">&lt;placeholder&gt;</text>
		<text transform="matrix(1 0 0 1 -1299.3098 -424.6729)" style="font-family:'Inconsolata-Regular'; font-size:13.9143px;">A web app built to streamline </text>
		<text transform="matrix(1 0 0 1 -1299.3098 -407.9729)" style="font-family:'Inconsolata-Regular'; font-size:13.9143px;">efficiency of watching videos </text>
		<text transform="matrix(1 0 0 1 -1299.3098 -391.2729)" style="font-family:'Inconsolata-Regular'; font-size:13.9143px;">on r/youtubehaiku, utilizing </text>
		<text transform="matrix(1 0 0 1 -1299.3098 -374.5729)" style="font-family:'Inconsolata-Regular'; font-size:13.9143px;">Reddit and YouTube API.</text>
	</g>
	<g id="XMLID_45_">
		<rect id="XMLID_204_" x="-1048.1" y="-584.2" class="st2" width="206.3" height="277.2"/>
		<text transform="matrix(1 0 0 1 -1048.0886 -574.9729)" style="font-family:'Inconsolata-Regular'; font-size:13.9143px;">Get Caitlyn Home!</text>
		<text transform="matrix(1 0 0 1 -1048.0886 -391.2729)" style="font-family:'Inconsolata-Regular'; font-size:13.9143px;">A platformer sharing what </text>
		<text transform="matrix(1 0 0 1 -1048.0886 -374.5729)" style="font-family:'Inconsolata-Regular'; font-size:13.9143px;">goes through our minds when </text>
		<text transform="matrix(1 0 0 1 -1048.0886 -357.8729)" style="font-family:'Inconsolata-Regular'; font-size:13.9143px;">we fall out of a chair, built </text>
		<text transform="matrix(1 0 0 1 -1048.0886 -341.1729)" style="font-family:'Inconsolata-Regular'; font-size:13.9143px;">in Unity using C#.</text>
	</g>
	<g id="XMLID_54_">
		<polygon id="XMLID_404_" points="-650.2,-570.9 -584,-703.3 -517.8,-570.9 		"/>
		<path id="XMLID_401_" class="st5" d="M-584-700l63.8,127.6h-127.6L-584-700 M-584-706.7l-68.6,137.3h137.3L-584-706.7L-584-706.7z
			"/>
	</g>
	<path id="XMLID_316_" d="M99.6,269.1c-2.2-14.6-8.5-27-18.9-37.4c-10-9.9-22-15.9-35.8-18.2c-2.2-0.4-4.4-0.6-6.6-0.9
		c-0.1,0-0.2,0-0.3,0c-1.6-0.1-4.6-0.3-7.4,0l0,0c-0.1,0-0.2,0-0.3,0c-0.1,0-0.3,0-0.4,0l0,0c-1.7,0.2-3.4,0.4-5,0.7
		c-20.4,3.3-36,13.7-46.9,31.2c-5.5,8.8-8.5,18.6-9.3,29c0,0.4-0.2,0.7-0.2,1.1c0,2.6,0,5.2,0,7.7c0.3,2.5,0.5,4.9,1,7.4
		c5.3,26,20.6,43.2,45.7,51.8c4.7,1.6,9.5,2.4,14.5,2.7c0.4,0,0.7,0.1,1.1,0.2c2.4,0,4.8,0,7.2,0c2-0.2,4-0.5,6-0.8
		c15.8-2.4,29-9.6,39.6-21.4c8.5-9.5,13.8-20.7,15.8-33.3c0.4-2.3,0.6-4.6,0.9-6.9c0-2.4,0-4.8,0-7.2
		C100.1,273,99.9,271.1,99.6,269.1z M53.5,333.1c-3.1,1.1-4.8-0.2-4.8-3.4c0-4.9,0-9.9,0-14.8c0-4-0.7-7.8-3.7-10.9
		c2.1-0.4,4.2-0.6,6.1-1.2c2.8-0.9,5.7-1.7,8.3-3c4.6-2.3,7.9-6.1,9.7-10.9c2.2-5.9,2.9-12,1.8-18.2c-0.6-3.6-2.2-6.8-4.5-9.5
		c-0.6-0.7-0.7-1.3-0.4-2.2c1.3-4.5,0.8-8.9-0.8-13.2c-0.1-0.4-0.8-0.8-1.2-0.8c-1.9,0.3-4,0.5-5.7,1.2c-2.8,1.1-5.3,2.7-8,4.1
		c-0.6,0.3-1.3,0.5-1.9,0.3c-9.1-2.4-18.2-2.4-27.3,0c-0.6,0.1-1.3-0.1-1.9-0.4c-3.6-2.2-7.3-4.2-11.4-5.1c-3.1-0.6-3.4-0.5-4.2,2.5
		c-1.1,3.9-1.3,7.8-0.1,11.8c0.1,0.4,0,1-0.2,1.3c-4.1,4.8-5.6,10.5-5.3,16.7c0.2,4.5,0.9,9,2.9,13.1c3.1,6.4,8.5,10,15.3,11.8
		c2.6,0.7,5.3,1.2,8.1,1.7c-1.9,2.1-2.9,4.5-3.5,7.2c-0.1,0.3-0.5,0.7-0.8,0.8c-6.3,2.4-12.4,1.5-16.2-5.1c-1.8-3.1-4.4-5.2-8.1-5.7
		c-1.1-0.2-2.6-0.4-3.1,0.8c-0.2,0.5,1,1.8,1.8,2.3c3,1.9,5.1,4.5,6.3,7.8c2.3,6.4,8.2,9.5,15.1,9.1c0.8,0,1.6-0.1,2.4-0.2
		c0.8-0.1,1.5-0.2,2.4-0.4c0,3.5,0.1,6.8,0,10.2c-0.1,2.1-2.3,3.3-4.4,2.4c-4-1.7-8.1-3.3-11.7-5.6c-15.9-10.1-25.1-24.6-27-43.4
		c-3-28.3,15.4-54.4,42.9-61.5c32-8.3,64.6,12,71.1,44.5C96.7,295.3,80.6,323.5,53.5,333.1z"/>
	
		<image style="overflow:visible;enable-background:new    ;" width="784" height="587" id="XMLID_411_" xlink:href="C:\Users\Arten\Desktop\Career stuff\Portfolio website\portfolio\game.jpg"  transform="matrix(0.75 0 0 0.75 -338.6412 -959.2238)">
	</image>
	
		<text id="XMLID_415_" transform="matrix(1 0 0 1 -328.0738 -1975.8259)" style="font-family:'SpaceMono-Italic'; font-size:71.25px;">&lt;PLACEHOLDER&gt;</text>
	<g id="XMLID_409_">
		<path id="XMLID_527_" class="st6" d="M-132.5-1305.6v6.7h-5.9c-0.8,0-1.4,0.1-1.7,0.4c-0.3,0.2-0.5,0.6-0.5,1.2s0.2,1.1,0.5,1.3
			c0.3,0.2,1,0.3,2.1,0.3h6.1v8.7h-7.1c-3.3,0-5.9-0.8-7.6-2.4c-1.8-1.6-2.6-3.9-2.6-6.9v-11.9c0-2.9,0.8-5.2,2.5-6.8
			c1.7-1.6,4-2.4,7-2.4h7.8v8.7h-5.8c-1.6,0-2.3,0.5-2.3,1.5c0,0.6,0.2,1,0.5,1.2c0.4,0.2,1,0.4,2,0.4L-132.5-1305.6L-132.5-1305.6z
			 M-102.1-1302.3v8h-2.6v7.2h-9v-19.3c0-3.7,1-6.6,3.1-8.7c2-2.1,4.9-3.1,8.6-3.1c3.6,0,6.2,0.9,7.9,2.8c1.7,1.9,2.6,4.8,2.6,8.7
			v19.6h-9v-19c0-1.2-0.1-2-0.4-2.5s-0.8-0.7-1.5-0.7c-1.4,0-2.1,1.1-2.1,3.2v3.8H-102.1L-102.1-1302.3z M-59.3-1308.7v21.6h-9
			v-21.6h-6.9v-8.7h22.8v8.7H-59.3z M-19.3-1305.6v6.7h-5.9c-0.8,0-1.4,0.1-1.7,0.4c-0.3,0.2-0.5,0.6-0.5,1.2s0.2,1.1,0.5,1.3
			c0.3,0.2,1,0.3,2.1,0.3h6.1v8.7h-7.1c-3.3,0-5.9-0.8-7.6-2.4c-1.8-1.6-2.6-3.9-2.6-6.9v-11.9c0-2.9,0.8-5.2,2.5-6.8
			c1.7-1.6,4-2.4,7-2.4h7.8v8.7h-5.7c-1.6,0-2.3,0.5-2.3,1.5c0,0.6,0.2,1,0.6,1.2s1,0.4,2,0.4L-19.3-1305.6L-19.3-1305.6z
			 M9.1-1309.3v22.2h-9v-30.3h11.6c3.5,0,6.2,0.9,8.2,2.6c2.2,2,3.2,4.4,3.2,7.4c0,3.1-1.3,5.6-4,7.7l5.2,12.5h-9.5l-4.4-9.8v-7.8
			h0.7c1.9,0,2.8-0.8,2.8-2.4c0-1.4-1.1-2.1-3.3-2.1L9.1-1309.3L9.1-1309.3z M62.3-1317.4l-8.6,13.5v16.8h-9v-16.8l-8.6-13.5h9.1
			l3.9,6.2l4.2-6.2H62.3L62.3-1317.4z"/>
		<path id="XMLID_512_" class="st6" d="M-318-1346.8v-3.4h11.8v-120.6H-318v-3.4l48.6-0.3c7.2,0,14,1.8,20.6,5.4s12.4,8.3,17.4,14.2
			c5,5.9,9.1,12.7,12.3,20.5c3.1,7.9,4.6,15.9,4.6,24c0,10.6-2.4,20.8-7.2,30.7c-4.9,9.9-11.6,17.8-20,24c-8.4,6-17.6,9-27.6,9
			L-318-1346.8L-318-1346.8z M-284.1-1350.2h15.8c21.2,0,31.8-20,31.8-60c0-16.1-2.6-30.2-7.8-42.5s-13.4-18.5-24.8-18.5h-15
			V-1350.2z M-204.5-1460.5v-3.4h11.8v-120.7h-11.8v-3.4h72.7v-3.1h3.5v39.5h-3.5v-12.7c0-8.3-2.7-13.7-8.1-16.3
			c-5.5-2.6-12.4-3.9-20.7-3.9h-9.9v71.2h8.4c1.3,0,2.2,0.1,2.8,0.3c4.5-0.2,7.9-1,10.1-2.5c2.4-1.3,3.6-4.4,3.6-9.3v-7.4h3.2v41
			h-3.6v-7.7c0-4.5-1.2-7.5-3.7-9c-2.5-1.4-5.9-2.2-10.3-2.2h-2.5h-8.1v46.3h10.2v3.4h-44.1V-1460.5z M-194.1-1346.8v-2.2h7.5v-77.6
			h-7.5v-2.2h29.3v2.2h-7.6v77.6h7.6v2.2H-194.1z M-151.1-1406.2c0.1-6.3,2.2-11.6,6.1-16.1c3.9-4.3,9.3-6.5,16.3-6.5
			c2.8,0,5.3,0.3,7.6,0.9c2.3,0.6,4.6,1.3,7.1,2.2v-5.1h2.3v25.4h-2.3v-9.4c-1-3.3-2.9-6.1-5.6-8.3c-2.7-2.2-5.7-3.3-8.8-3.3
			c-4.8,0-8.4,0.9-10.8,2.8c-2.5,1.9-3.9,4.5-4,7.6c0.2,3.5,1.7,7.1,4.6,10.9c2.9,3.9,7,7.4,12.5,10.7c11.7,6.9,17.5,15.2,17.5,25
			c0,3.9-1,7.5-3.1,11s-4.7,6.3-7.9,8.4c-3.2,2.1-6.5,3.2-9.8,3.2s-6.5-0.3-9.5-1s-6.2-2-9.6-3.8v6.7h-2.3v-25.6h2.3v9.5
			c1.6,3.4,4.2,6.2,7.6,8.5c3.5,2.3,7,3.4,10.6,3.5c3.3-0.4,6-1.5,8.2-3.2s3.2-4.1,3.2-7.2s-1.2-6.3-3.4-9.6
			c-3.4-5.1-9.7-10.9-18.8-17.6c-3.1-2.3-5.5-5.1-7.1-8.6C-150.1-1398.7-151-1402.3-151.1-1406.2z M-112.9-1460.5v-3.4h11.7v-120.7
			h-11.7v-3.4h45.5v3.4h-11.8v120.7h11.8v3.4H-112.9L-112.9-1460.5z M-96.6-1405.4v-25.4h2.3v2H-48v-2h2v25.4h-2v-8.2
			c0-4.1-1.2-7.3-3.5-9.6c-2.3-2.3-5.4-3.4-9.3-3.4h-3.4v77.6h7.6v2.2H-86v-2.2h7.6v-77.6h-3.2c-4,0-7.1,1.2-9.4,3.6
			s-3.4,5.5-3.4,9.4v8.2H-96.6L-96.6-1405.4z M-54.1-1552.9c0.2-9.7,3.4-18.1,9.5-25c6-6.7,14.5-10.1,25.3-10.1
			c4.4,0,8.3,0.5,11.8,1.4s7.2,2.1,11,3.5v-8H7v39.5H3.5v-14.6c-1.6-5.2-4.5-9.5-8.8-12.9s-8.8-5.1-13.7-5.1
			c-7.5,0-13.1,1.5-16.9,4.3c-3.9,3-6,6.9-6.2,11.8c0.3,5.4,2.7,11,7.2,16.9c4.5,6,11,11.6,19.5,16.6c18.2,10.8,27.3,23.7,27.3,38.8
			c0,6-1.6,11.7-4.9,17.1c-3.2,5.5-7.3,9.9-12.4,13.1c-5,3.3-10.1,5-15.3,5c-5.2,0-10.1-0.5-14.8-1.6c-4.7-1-9.7-3-15-6v10.4H-54
			v-39.8h3.5v14.8c2.5,5.3,6.5,9.7,11.9,13.2s10.9,5.4,16.5,5.5c5.1-0.7,9.3-2.4,12.8-5.1c3.4-2.6,5-6.4,5-11.2
			c0-4.9-1.8-9.8-5.3-14.9c-5.3-7.9-15.1-17-29.3-27.4c-4.8-3.5-8.5-8-11.1-13.4C-52.5-1541.2-53.9-1546.9-54.1-1552.9z
			 M-33.3-1346.8v-2.2h7.6v-77.6h-7.6v-2.2H-5c4.8,0,9.2,1,13.2,3c4,2.1,7.3,4.9,9.9,8.4c2.5,3.5,4,7.6,4.3,12.2c0,0.7,0,1.4,0,2.1
			c0,10.3-3.4,16.8-10.2,19.5l-4.9,1.9l2.1,0.6c3.6,0.7,6.6,2,9,3.8c2.8,2.1,4.2,6.7,4.2,13.8c0.2,4.8,0.4,7.8,0.6,9
			c0.1,1.3,0.8,2.3,1.9,2.8c0.1,0,0.2,0,0.3,0v0.2c0.7-0.1,1.4-0.4,2.2-1c0.8-0.7,1.4-1.3,1.8-1.8l2-2.2l1.7,1.4l-2.1,2.4
			c-3.1,3.7-6.9,5.6-11.2,5.8c-1.3-0.3-2.3-0.5-2.8-0.6c-3.7-1.2-5.8-3.1-6.5-5.6c-0.6-2.5-1.1-6.7-1.5-12.5
			c-0.4-5.7-1.6-9.5-3.5-11.4c-0.9-1-2.5-1.4-4.6-1.4h-3h-9.6v29.2h7.6v2.4L-33.3-1346.8L-33.3-1346.8L-33.3-1346.8z M-11.5-1380.6
			h2.1c10.8,0,16.1-7.8,16.1-23.3c0-0.5,0-1,0-1.5c-0.4-14.1-5.6-21.2-15.6-21.2h-2.6V-1380.6L-11.5-1380.6z M24.7-1460.5v-3.4h11.8
			v-120.7H24.7v-3.4h44.2v3.4H58.6v71.8h32v-71.8H78.4v-3.4h44.2v3.4h-10v120.7h10v3.4H78.4v-3.4h12.2v-45.4h-32v45.4h10.3v3.4H24.7
			L24.7-1460.5z M47.5-1346.8v-2.2H55v-77.6h-7.5v-2.2h29.3v2.2h-7.6v77.6h7.6v2.2H47.5z M90.8-1387.7c0-6.9,1.6-13.5,4.9-19.8
			c3.3-6.4,7.7-11.5,13.2-15.4c5.4-3.9,11.1-5.8,16.9-5.8c2.7,0,5.2,0.3,7.3,0.8c2.2,0.5,4.6,1.3,7.3,2.4v-5.1h2.2v25.4h-2.2v-14.6
			c-4-3.9-8.8-6-14.2-6.4c-0.4,0-0.8,0-1.2,0c-3.1,0-5.8,0.9-8.3,2.7c-2.8,2.1-5,5-6.7,8.6s-2.9,7.4-3.7,11.5s-1.2,8.6-1.3,13.5
			c0.1,0.5,0.2,1.3,0.2,2.4c0.1,7.4,0.7,13.6,1.7,18.7c0.9,5.2,2.9,9.6,5.9,13.4c2.9,3.7,7.2,5.8,12.8,6.2c0.9,0,1.6,0,2.2,0.1
			c0.6,0.1,1.2,0.1,1.9,0.2c6.2-0.1,11.8-2.1,16.8-6.1v3.6c-5.9,3.1-11.9,4.6-18,4.6c-5.3,0-10.2-1.1-14.9-3.4
			c-4.7-2.2-8.7-5.3-12-9.1c-3.3-3.7-6-8.1-7.9-13.1C91.7-1377.4,90.8-1382.5,90.8-1387.7z M161.2-1437.9v-39.5h3.5v3.1h72.1v-3.1
			h3.1v39.5h-3.1v-12.8c0-6.4-1.8-11.4-5.5-14.9c-3.6-3.5-8.5-5.3-14.5-5.3h-5.2v120.6h11.8v3.4h-45.8v-3.4h11.9v-120.6h-5
			c-6.2,0-11.1,1.9-14.6,5.6s-5.3,8.6-5.3,14.6v12.8L161.2-1437.9L161.2-1437.9z"/>
		<path id="XMLID_511_" class="st6" d="M73.1-1307.8c3.3,0,6,2.7,6,6s-2.7,6-6,6s-6-2.7-6-6C67.1-1305.1,69.8-1307.8,73.1-1307.8z"
			/>
		<path id="XMLID_510_" class="st6" d="M-162.4-1307.8c3.3,0,6,2.7,6,6s-2.7,6-6,6s-6-2.7-6-6
			C-168.4-1305.1-165.7-1307.8-162.4-1307.8z"/>
		<g id="XMLID_507_">
			<rect id="XMLID_509_" x="87.6" y="-1306.5" class="st6" width="159.6" height="2.7"/>
			<rect id="XMLID_508_" x="87.6" y="-1299.9" class="st6" width="159.6" height="2.7"/>
		</g>
		<g id="XMLID_410_">
			<rect id="XMLID_506_" x="-336.5" y="-1306.5" class="st6" width="159.6" height="2.7"/>
			<rect id="XMLID_505_" x="-336.5" y="-1299.9" class="st6" width="159.6" height="2.7"/>
		</g>
	</g>
	<g id="XMLID_96_">
		<path id="XMLID_172_" d="M1169.1,212.7c0,12.4,0,24.3,0,36.2c0,9,1.8,10.7,10.7,10.7c10.3,0,20.7,0,31,0c1.7,0,3.4,0.1,5.3,0.2
			c0.1,1.9,0.2,3.4,0.2,5c0,23.2,0,46.4,0,69.5c0,8.2-1.8,10.1-9.9,10.1c-31.2,0-62.3,0-93.5,0c-7.6,0-9.6-1.9-9.6-9.4
			c0-37.8,0-75.5,0-113.3c0-7.3,2-9.3,9.2-9.3c17.4,0,34.8,0,52.2,0C1165.9,212.5,1167.1,212.6,1169.1,212.7z M1159.6,297.7
			c8,0,16-0.1,23.9,0c3.6,0.1,5-1.2,5-4.9c0-3.5-1-5.2-4.8-5.2c-16,0.1-31.9,0.1-47.9,0c-3.8,0-4.8,1.7-4.8,5.2c0,3.7,1.3,5,5,4.9
			C1143.9,297.6,1151.8,297.7,1159.6,297.7z M1159.8,268.8c-7.8,0-15.6,0.1-23.4,0c-3.8-0.1-5.3,1.3-5.3,5.2c0,3.7,1.6,4.9,5.1,4.9
			c15.8-0.1,31.6-0.1,47.4,0c3.5,0,5-1.2,5-5c0-4-1.6-5.2-5.3-5.2C1175.5,268.9,1167.7,268.8,1159.8,268.8z M1159.9,306.8
			c-8,0-15.9,0.1-23.9-0.1c-3.7-0.1-4.9,1.4-4.9,5c0,3.7,1.5,4.9,5,4.8c15.8-0.1,31.6-0.1,47.3,0c3.5,0,5-1,5.1-4.8
			c0.1-4-1.5-5.2-5.3-5.1C1175.5,307,1167.7,306.8,1159.9,306.8z"/>
		<path id="XMLID_171_" d="M1179.2,249.4c0-11.1,0-22,0-31.8c10.5,10.3,21.5,21.2,32.3,31.8C1201.5,249.4,1190.6,249.4,1179.2,249.4
			z"/>
	</g>
</g>
</svg>
