<?xml version="1.0" encoding="utf-8"?>
<!-- Generator: Adobe Illustrator 19.0.0, SVG Export Plug-In . SVG Version: 6.00 Build 0)  -->
<svg version="1.1" xmlns="http://www.w3.org/2000/svg" xmlns:xlink="http://www.w3.org/1999/xlink" x="0px" y="0px"
	 viewBox="0 0 354.8 324.2" style="enable-background:new 0 0 354.8 324.2;" xml:space="preserve">
<style type="text/css">
	.st0{fill:#333333;}
</style>
<g id="Layer_1">
</g>
<g id="Layer_2">
	<g>
		<path class="st0" d="M23.6,83.8c5.2-7.8,10.5-15.6,15.3-23.6c1-1.7,0.9-5.9-0.2-6.6C26,45.4,12.9,37.7,0,29.8C0,38,0,46.3,0,54.5
			c4.4,9.8,8.4,19.7,13.3,29.2C15.8,88.5,20.2,89,23.6,83.8z"/>
		<path class="st0" d="M188.2,113.3c-1.6,1.5-2.7,2.4-3.7,3.5c-47.4,51.4-95,102.7-142,154.5c-5,5.5-8.5,13.6-9.8,21.1
			c-3.7,20.5,13.1,35.4,33.5,31c9.7-2.1,17-7.6,22.9-15.3c21.2-27.4,42.6-54.7,63.8-82.1c22.1-28.5,44.1-57.1,66.7-86.3
			C208.4,130.3,198.3,121.8,188.2,113.3z"/>
		<path class="st0" d="M94.7,153.5c5.8,6.1,11.3,12.6,17.1,19.1c12.3-13.3,24.2-26.3,36.3-39.4c-4.7-5.6-9.4-10.8-13.8-16.3
			c-12.6-15.5-18.8-33-15.6-53.2c2.2-13.9-1.9-26.4-10-37.3c-1.6-2.2-3.3-4.2-5.1-6.1l0,0c0,0,0,0,0,0c0,0-0.1-0.1-0.1-0.1
			c0,0,0,0,0,0C66-17.7,17,14,17,14l16.3,11c4.1,3,8.4,5.8,12.7,8.6l16.3,11c-13.7,20.8-27.1,40.8-40.2,61
			c-2.2,3.4-5.4,9.5-4.1,11.1c2.8,3.3,8.1,6.2,12.4,6.3C56.5,123.7,77.2,135.3,94.7,153.5z"/>
		<path class="st0" d="M200,190.3c-12.8,16.3-25.1,32-37.1,47.9c-1.1,1.5-1.3,5.2-0.3,6.7c15.5,22.1,30.6,44.5,47.1,65.9
			c12.1,15.8,37.8,17.2,53.1,4.3c15.3-12.9,17.7-37,4.2-52C245.1,238.7,222.8,215,200,190.3z"/>
		<path class="st0" d="M353,111c-6.6-5.2-13.8-9.9-19.8-15.7c-6.3-6-12.8-8-21.4-6.4c-13.1,2.4-17.1-1.9-19.1-15.1
			c-0.9-5.5-3.8-11.7-7.8-15.6c-11.7-11.5-24.7-21.7-36.7-33c-16.4-15.4-36-22.9-57.9-24.9c-17.4-1.5-33.9,2.4-49,11.2
			c-2,1.2-3.7,4.5-3.7,6.8c0,1.3,3.7,2.9,5.9,3.8c1.5,0.6,3.5,0.3,5.2,0.4c40.2,3,61.3,33.8,49.7,72.2c-0.7,2.3-0.3,6.1,1.2,7.5
			c9.3,8.5,19,16.5,29.2,25.2c1.9-2.3,3.3-4.3,5-5.8c6.7-6.2,14.6-7.9,22.8-4.2c8.2,3.7,15.6,10.7,13.4,19.6
			c-3,12.3,4.5,16.6,11.7,22.3c3.9,3.1,7.8,6.3,11.7,9.4c9.2,7.3,9.2,7.3,17.1-1.7c14.2-16.3,28.4-32.7,42.6-49
			C353,118.1,357.1,114.1,353,111z"/>
	</g>
</g>
</svg>
